<?xml version="1.0" encoding="utf-8"?>
<!-- Generator: Adobe Illustrator 24.0.0, SVG Export Plug-In . SVG Version: 6.00 Build 0)  -->
<svg version="1.1" id="Capa_1" xmlns="http://www.w3.org/2000/svg" xmlns:xlink="http://www.w3.org/1999/xlink" x="0px" y="0px"
	 viewBox="0 0 605 600" style="enable-background:new 0 0 605 600;" xml:space="preserve">
<style type="text/css">
	.st0{fill:url(#SVGID_1_);}
	.st1{fill:url(#SVGID_6_);}
	.st2{fill:#004775;}
	.st3{fill:#97BE13;}
	.st4{fill:#0097AC;}
	.st5{fill:#024266;}
	.st6{fill:#03828C;}
	.st7{opacity:0.4;fill:url(#SVGID_7_);}
	.st8{opacity:0.4;fill:url(#SVGID_8_);}
	.st9{opacity:0.4;fill:url(#SVGID_9_);}
	.st10{opacity:0.4;fill:url(#SVGID_10_);}
	.st11{opacity:0.4;fill:url(#SVGID_11_);}
	.st12{fill:url(#SVGID_12_);}
	.st13{fill:url(#SVGID_13_);}
	.st14{fill:url(#SVGID_14_);}
	.st15{fill:url(#SVGID_15_);}
	.st16{opacity:0.4;fill:url(#SVGID_16_);}
	.st17{opacity:0.4;fill:url(#SVGID_17_);}
	.st18{opacity:0.4;fill:url(#SVGID_18_);}
	.st19{opacity:0.4;fill:url(#SVGID_19_);}
	.st20{opacity:0.4;fill:url(#SVGID_20_);}
	.st21{fill:url(#SVGID_21_);}
	.st22{fill:#FFFFFF;}
	.st23{fill:#01243D;}
	.st24{fill:#CCE0E4;}
	.st25{fill:#4293B3;}
	.st26{fill:#55ABDD;}
	.st27{fill:#F8FBFC;}
	.st28{fill:#4BA82C;}
	.st29{fill:url(#SVGID_22_);}
	.st30{fill:url(#SVGID_23_);}
	.st31{fill:url(#SVGID_24_);}
</style>
<g>
	<path class="st22" d="M117.81,468.87c0,0-7.84,48.89,0,63.1c0,0,12.77-24.55,32.58-16.05c0,0,2.51,19.9,41.73,37.51
		c0,0-17.46-37.44-0.51-40.67c0,0,16.52,53.9,46.08,26.13c0,0,28.58,19.24,29.52,31.35c0,0,29.76-24.23,38.39-21.04
		c0,0,4.24,17.93,9.16,21.04c0,0,5.69-29.61,16.05-25.28c0,0,22.25,1.67,26.19,12.74c0,0,19.49-18.13,19.45-29.33
		c0,0,15.05,17.81,10.09,25.07c0,0,21.87-27.22,36.43-29.67c0,0,16.96,0.98,23.01,14.29c0,0,10.46-41.02,33.13-47.01
		c0,0,23.38-7.7,40.12,9.22c0,0-14.74-61.71,20.69-60.13c0,0,0.01,0,0.01,0c0,0-0.01,0-0.01-0.01c-0.1-0.07-0.18-0.13-0.28-0.2
		c-1.77-1.38-3.46-2.65-5.1-3.87c-0.44-0.32-0.86-0.63-1.27-0.93c-1.57-1.14-3.09-2.22-4.54-3.23c-0.11-0.07-0.22-0.16-0.31-0.23
		c-1.58-1.07-3.06-2.05-4.47-2.97c-0.33-0.22-0.66-0.43-0.99-0.63c-1.15-0.75-2.25-1.44-3.28-2.07c-0.21-0.12-0.42-0.27-0.63-0.39
		c-1.18-0.72-2.29-1.37-3.29-1.94c-0.23-0.13-0.44-0.25-0.66-0.38c-0.78-0.44-1.51-0.85-2.17-1.2c-0.18-0.1-0.39-0.21-0.56-0.31
		c-0.75-0.39-1.41-0.73-1.95-1.01c-0.11-0.05-0.19-0.08-0.29-0.14c-0.43-0.21-0.79-0.39-1.07-0.52c-0.08-0.04-0.18-0.09-0.24-0.12
		c-0.2-0.09-0.39-0.18-0.43-0.19c-1.12-0.49-1.79-1.66-1.63-2.88c0.14-1.21,1.09-2.18,2.29-2.38l21.9-3.58l-11.86-3.48
		c-1.16-0.34-1.97-1.4-1.98-2.62c-0.03-1.21,0.75-2.28,1.9-2.67l36.66-12.02c-30.05-19.76-39.08-33.01-39.47-33.59
		c-0.5-0.74-0.6-1.65-0.3-2.49c0.3-0.83,0.99-1.46,1.83-1.7c14.47-4.14,34.11-17.3,42.3-23.07c-20.62-10.38-37.46-32.44-38.21-33.44
		c-0.48-0.62-0.66-1.43-0.52-2.2c0.16-0.77,0.63-1.44,1.31-1.84l39.11-23.22c-26.9-10.34-58.78-36.75-60.21-37.95
		c-0.64-0.53-1-1.33-0.99-2.18c0.01-0.83,0.4-1.62,1.06-2.13l47.99-37.39c-13.64-2.2-44.53-9.57-61.65-32.76
		c-20.87-28.29-58.36-53.01-58.74-53.25c-0.72-0.47-1.18-1.26-1.24-2.13c-0.07-0.87,0.29-1.71,0.94-2.27
		c11.4-9.88,22.77-13.96,31.03-15.61c-32.04-10.43-80.64-12.7-81.19-12.73c-0.88-0.04-1.68-0.49-2.18-1.24
		c-0.48-0.72-0.59-1.65-0.29-2.47c6.61-18.17,19.68-30.99,29.66-38.63c-49.4,12.6-85.94,37.43-86.35,37.71
		c-0.62,0.42-1.39,0.59-2.14,0.42c-0.75-0.16-1.39-0.61-1.79-1.27c-13.55-22.43-42.94-35.9-59.32-41.95
		c19.98,20.98,26.05,42.91,26.33,43.95c0.27,0.97-0.02,2.01-0.75,2.71c-0.72,0.7-1.78,0.94-2.72,0.66
		c-55.88-17.02-117.1,5.45-140.68,15.81c25.08,2.71,40.25,15.47,40.96,16.09c0.81,0.69,1.15,1.78,0.88,2.81
		c-0.28,1.03-1.11,1.81-2.16,2.01c-36.04,6.91-56.68,26.67-65.01,36.54c13.57-2.04,23.48,1.53,23.97,1.7
		c0.93,0.34,1.62,1.16,1.78,2.14c0.17,0.98-0.21,1.97-0.98,2.6c-13.41,10.97-56.9,28.73-69.36,33.7l29.76,42.06
		c0.81,1.15,0.64,2.71-0.39,3.65c-6.82,6.2-38.66,20.74-48,24.93c12.3,26.49,37.29,37.43,37.54,37.54c0.7,0.29,1.25,0.86,1.51,1.57
		c0.25,0.71,0.23,1.49-0.11,2.18c-10.48,21.57-37.81,37.54-47.95,42.91c23.75,18.56,53.01,14.03,53.31,13.98
		c0.99-0.17,2.04,0.24,2.66,1.06c0.62,0.82,0.72,1.91,0.29,2.84c-8.78,18.67-32.65,40.23-43.29,49.26l43.82,4.2
		c1.15,0.11,2.1,0.92,2.41,2.04c0.29,1.11-0.13,2.29-1.08,2.96L78.6,429.21l20.61,2.57c1.11,0.14,2.02,0.93,2.32,2.01
		c0.3,1.07-0.07,2.23-0.96,2.91c-6.22,4.88-13.37,9.06-20.9,12.7C90.85,452.78,110.22,459.69,117.81,468.87z"/>
	<path class="st23" d="M267.21,574c-0.5,0-1.01-0.1-1.49-0.31c-1.29-0.55-2.16-1.77-2.27-3.17c-0.54-6.94-15.03-19.46-25.48-26.86
		c-7.35,6.07-14.71,8.19-21.91,6.27c-14.39-3.82-23.27-23.17-26.58-31.87c-0.18,0.24-0.35,0.49-0.49,0.78
		c-3.37,6.59,2.22,23.73,6.54,32.99c0.66,1.43,0.38,3.12-0.73,4.24c-1.11,1.12-2.79,1.44-4.23,0.79
		c-33.31-14.96-41.44-31.96-43.35-38.12c-15.42-4.98-25.62,14.12-26.06,14.97c-0.65,1.23-1.91,2.01-3.3,2.02
		c-1.2,0.17-2.67-0.73-3.34-1.94c-7.62-13.8-2.2-53.77-0.7-63.72c-5.75-5.82-18.42-11.97-35.23-17.05
		c-1.49-0.45-2.55-1.76-2.67-3.31c-0.13-1.55,0.71-3.01,2.11-3.69c6.99-3.38,13.12-7,18.27-10.79l-18.16-2.26
		c-1.55-0.19-2.81-1.31-3.19-2.82c-0.38-1.51,0.2-3.09,1.47-3.99l18.28-12.99l-41.14-3.95c-1.51-0.14-2.78-1.18-3.24-2.62
		c-0.45-1.45,0.01-3.02,1.16-4.01c9.59-8.14,32.36-28.57,41.5-46.33c-7.19,0.73-32.73,1.93-54.35-14.96
		c-1.01-0.79-1.55-2.03-1.44-3.3c0.11-1.27,0.86-2.4,1.99-3c10.49-5.55,35.69-20.47,45.88-40.32c-5.04-2.44-27.04-14.25-38.52-38.97
		c-0.43-0.91-0.47-1.96-0.12-2.9c0.35-0.94,1.07-1.71,1.99-2.12c18.64-8.37,40.17-18.81,46.33-23.71l-29.23-41.31
		c-0.67-0.95-0.86-2.14-0.54-3.25c0.33-1.1,1.15-2,2.22-2.43c25.12-10.02,55.22-23.43,66.85-31.94c-3.36-0.89-10.89-2.37-20.3-0.96
		c-1.59,0.2-3.09-0.53-3.85-1.89c-0.77-1.37-0.6-3.07,0.41-4.27c9.2-10.89,29.75-30.02,65.02-37.38
		c-4.52-3.3-17.78-11.78-37.21-13.89c-1.7-0.18-3.06-1.48-3.32-3.17c-0.26-1.69,0.65-3.34,2.21-4.03
		c23.84-10.47,84.98-32.85,141.5-16.5c-1.82-5.6-8.5-23.36-24.89-40.58c-1.21-1.27-1.38-3.21-0.42-4.67s2.82-2.06,4.45-1.47
		c16.59,6.13,46.33,19.77,60.69,42.65c6-3.96,40.62-25.93,86.67-37.66c1.73-0.45,3.54,0.39,4.32,2.01c0.78,1.61,0.32,3.55-1.1,4.64
		c-9.24,7.06-21.47,18.92-27.94,35.64c8.42,0.46,51.25,3.23,80.8,12.84c1.63,0.53,2.7,2.09,2.6,3.81c-0.1,1.71-1.35,3.14-3.03,3.48
		c-7.05,1.4-17.58,4.96-28.29,13.9c6.47,4.4,39.47,27.51,58.6,53.43c16.44,22.27,46.88,29.29,59.21,31.27
		c1.48,0.24,2.68,1.33,3.06,2.78c0.38,1.45-0.15,2.99-1.33,3.91l-47,36.62c5.65,4.62,34.06,27.25,58.19,36.53
		c1.35,0.52,2.28,1.76,2.4,3.2c0.13,1.44-0.59,2.82-1.83,3.56l-38.13,22.64c3.39,4.28,18.54,22.56,36.2,31.46
		c1.19,0.6,1.97,1.77,2.07,3.09c0.1,1.32-0.51,2.6-1.59,3.36c-9.66,6.81-27.7,18.68-42.04,23.2c2.77,3.55,12.9,15.19,37.58,31.42
		c1.21,0.8,1.86,2.21,1.67,3.65c-0.19,1.44-1.19,2.64-2.56,3.09l-33.59,11.01l8.76,2.57c1.69,0.5,2.81,2.09,2.7,3.85
		c-0.11,1.76-1.42,3.21-3.15,3.49l-18.81,3.07l1.33,0.69c0.04,0.02,0.64,0.35,0.68,0.37l2.16,1.2c0.01,0.01,0.69,0.39,0.71,0.4
		c1.03,0.59,2.16,1.25,3.37,2c1.68,1.02,2.81,1.73,4,2.51l1,0.63c1.42,0.92,2.92,1.91,4.52,3c1.82,1.27,3.36,2.37,4.96,3.53
		l1.28,0.94c1.66,1.23,3.39,2.53,5.18,3.92c1.29,1.01,1.92,2.85,1.35,4.38c-0.57,1.54-1.86,2.76-3.57,2.57
		c-5.92-0.3-10.43,1.48-13.63,5.35c-9.65,11.68-5.6,40.15-3.22,50.14c0.39,1.65-0.36,3.35-1.83,4.17c-1.48,0.82-3.32,0.57-4.51-0.64
		c-14.84-15.01-35.41-8.56-36.27-8.28c-17.05,4.51-27.88,33.55-30.65,44.36c-0.4,1.55-1.72,2.68-3.32,2.82
		c-1.6,0.14-3.09-0.74-3.76-2.19c-4.54-9.98-16.97-11.79-19.39-12.05c-10.8,2.25-27.92,21.07-33.68,28.23
		c-1.27,1.58-3.59,1.86-5.18,0.66c-1.63-1.21-2.01-3.48-0.87-5.15c1.47-2.14-1.27-8.39-5.36-14.51
		c-4.94,10.83-16.83,22.11-18.5,23.66c-0.94,0.86-2.23,1.19-3.47,0.9c-1.23-0.3-2.23-1.2-2.65-2.4
		c-2.55-7.15-17.79-9.86-22.92-10.25c-0.4-0.03-0.8-0.13-1.17-0.28c-0.5-0.21-0.82-0.2-1.3,0.07c-4.06,2.18-8.06,14.44-9.6,22.45
		c-0.24,1.22-1.06,2.25-2.21,2.75c-1.14,0.5-2.46,0.39-3.51-0.28c-4.91-3.11-8.52-14.58-10.14-20.72
		c-5.54,0.96-19.76,9.67-33.01,20.45C268.91,573.71,268.07,574,267.21,574z M237.69,535.11c0.73,0,1.47,0.21,2.11,0.64
		c4.29,2.89,23.22,16.1,29.31,28.15c10.88-8.46,29.43-21.38,37.8-18.24c1.18,0.44,2.07,1.44,2.36,2.67
		c1.07,4.51,2.52,9.01,3.93,12.49c2.11-7.06,5.77-16.01,11.29-18.97c2.28-1.23,4.74-1.44,7.14-0.62c3.64,0.33,19,2.19,26.11,10.44
		c6.79-7,14.95-17.37,14.92-23.3c-0.01-1.59,0.98-3.01,2.47-3.56c1.5-0.54,3.16-0.11,4.18,1.1c2.48,2.93,8.29,10.3,10.79,17.59
		c7.93-8.66,21.39-21.65,32.23-23.48c0.28-0.04,0.56-0.07,0.85-0.04c0.64,0.04,13.16,0.88,21.48,9.51
		c4.39-12.72,15.09-37.25,33.47-42.11c0.71-0.24,18.96-6.04,35.6,3.81c-1.86-12.85-3.21-34.93,6.55-46.76
		c2.7-3.27,6.04-5.57,9.95-6.86c-1.27-0.92-2.5-1.78-3.67-2.6c-1.84-1.26-3.29-2.22-4.68-3.13l-0.88-0.55
		c-1.24-0.8-2.3-1.47-3.3-2.08c-1.79-1.1-2.86-1.72-3.83-2.28l-6.13-3.28l0.84-3.78l-1.59,3.42c-2.76-1.21-4.34-4.01-3.98-6.87
		c0.32-2.82,2.55-5.15,5.41-5.63l7.05-1.15c-1.33-1.2-2.12-2.9-2.14-4.79c-0.07-2.81,1.73-5.35,4.47-6.27l29.36-9.63
		c-24.94-17.33-33.19-28.94-34.11-30.3c-1.16-1.73-1.43-3.93-0.73-5.88c0.72-1.97,2.34-3.47,4.35-4.05
		c11.56-3.31,26.88-12.83,36.2-19.11c-18.93-11.55-33.42-30.63-34.08-31.51c-1.11-1.44-1.56-3.34-1.21-5.18
		c0.38-1.84,1.49-3.42,3.07-4.37l32.73-19.43c-25.73-11.92-53.06-34.57-54.31-35.61c-1.52-1.27-2.38-3.14-2.34-5.14
		c0.01-1.96,0.94-3.81,2.52-5.04l41.45-32.3c-15.68-3.58-40.81-12.27-55.83-32.63c-20.37-27.61-57.41-52.1-57.78-52.34
		c-1.68-1.1-2.78-2.96-2.94-4.99c-0.17-2.01,0.66-4.04,2.23-5.4c6.97-6.04,13.95-10,20.17-12.59c-29.98-7.28-66.29-9.05-68.03-9.13
		c-2.06-0.08-3.99-1.18-5.15-2.92c-1.14-1.73-1.39-3.91-0.68-5.85c4.34-11.94,11.32-21.64,18.45-29.15
		c-40.36,12.98-69.15,32.42-69.47,32.64c-1.49,1.03-3.36,1.39-5.11,0.98c-1.69-0.35-3.24-1.45-4.17-3.01
		c-9.66-16-28.02-27.32-43.31-34.48c12.76,17.42,16.99,32.78,17.2,33.57c0.62,2.26-0.05,4.72-1.76,6.38
		c-1.72,1.66-4.21,2.23-6.44,1.57c-47.02-14.33-98.08,0-126.28,10.81c18.65,4.85,29.57,14.15,30.12,14.62
		c1.87,1.59,2.69,4.19,2.07,6.6c-0.68,2.5-2.64,4.31-5.13,4.77c-27.59,5.29-45.8,18.21-56.41,28.44c8.53,0.13,14.5,2.03,15.9,2.53
		c2.3,0.85,3.91,2.8,4.28,5.12c0.39,2.26-0.5,4.62-2.33,6.11c-12.48,10.21-49.38,25.79-65.9,32.49l27.01,38.16
		c1.9,2.7,1.5,6.4-0.93,8.61c-6.41,5.83-31.65,17.71-45.42,23.97c11.96,22.38,33,31.86,33.94,32.27c1.59,0.65,2.91,2.02,3.53,3.71
		c0.62,1.75,0.52,3.56-0.27,5.15c-9.38,19.3-31.23,34.13-44.24,41.64c21.26,13.46,45.39,9.91,45.64,9.87
		c2.33-0.38,4.81,0.59,6.26,2.52c1.47,1.95,1.72,4.53,0.68,6.73c-7.43,15.8-24.73,33.18-37.62,44.72l35.11,3.37
		c2.71,0.26,4.94,2.14,5.68,4.77c0.7,2.69-0.32,5.5-2.53,7.06l-12.58,8.93l10.98,1.37c2.63,0.34,4.78,2.2,5.49,4.74
		c0.72,2.57-0.18,5.28-2.28,6.91c-3.93,3.09-8.45,6.07-13.5,8.91c12.07,4.25,25.06,10.26,31.35,17.86c0.68,0.84,0.99,1.93,0.82,3
		c-1.79,11.16-5.06,38.95-2.52,53.85c6.86-8.54,18.63-16.97,32.85-10.87c1.23,0.53,2.08,1.66,2.25,2.99
		c0.02,0.12,2.67,15.22,30.8,30.27c-3.22-9.07-6.66-22.45-2.64-30.3c1.75-3.42,4.73-5.61,8.62-6.36c1.85-0.38,3.74,0.75,4.31,2.6
		c2.33,7.56,10.96,27.87,22.8,31c5.31,1.41,11.02-0.8,17.1-6.51C235.83,535.45,236.76,535.11,237.69,535.11z M98.24,433.74
		c-0.01,0-0.01,0-0.01,0.01C98.24,433.74,98.24,433.74,98.24,433.74z M509.91,416.33C509.91,416.33,509.92,416.33,509.91,416.33
		C509.92,416.33,509.91,416.33,509.91,416.33z M94.9,356.01c-0.01,0-0.02,0-0.03,0.01C94.88,356.02,94.89,356.02,94.9,356.01z
		 M86.02,295.11c0.01,0.01,0.03,0.01,0.04,0.02C86.05,295.13,86.04,295.13,86.02,295.11z M524.82,293.56c0,0,0.01,0.01,0.01,0.01
		C524.82,293.57,524.82,293.57,524.82,293.56z M177.02,104.85C177.03,104.85,177.03,104.85,177.02,104.85
		C177.03,104.85,177.03,104.85,177.02,104.85z M177.49,103.09c-0.01,0-0.01,0-0.01,0C177.48,103.1,177.48,103.1,177.49,103.09z
		 M431.25,99.78C431.25,99.78,431.25,99.78,431.25,99.78C431.25,99.78,431.25,99.78,431.25,99.78z M431.25,99.78L431.25,99.78
		L431.25,99.78z M279.02,67.71c0,0,0,0.01,0,0.01C279.02,67.71,279.02,67.71,279.02,67.71z M378.88,66.43c0.01,0,0.01,0,0.01,0
		C378.89,66.43,378.89,66.43,378.88,66.43z"/>
</g>
<path class="st24" d="M484.25,314.71c22.01-11.59-24.26-62.47-32.79-73.64c-1.16-1.52,0.14-3.54,1.65-4.06
	c3.55-1.25,7.13-2.24,10.74-3.11c-15.92-3.53-32.55-5.7-45.96-15.34c-1.87-1.34-1.83-4.39,0.65-5.06c5.46-1.48,10.8-3.25,16.07-5.15
	c-14.81,0.58-29.59,1.29-44.38-0.48c-2.26-0.27-3.83-2.87-1.96-4.72c7.75-7.67,15.73-15.06,19.94-25.12
	c-13.41,2.02-26.49,5.77-40.1,6.34c-2.19,0.09-3.32-2.39-2.39-4.16c5.96-11.28,13.63-21.57,18.61-33.3
	c-16.92,4.93-30.28,16.91-45.25,26.02c-1.52,0.93-3.61,0.06-4.06-1.65c-3.12-11.64-4.06-23.73-7.25-35.3
	c-4.11,12.41-5.46,25.59-9.54,38.07c-0.48,1.44-1.89,2.32-3.41,1.93c-20.5-5.35-40.46-12.75-61.6-14.64
	c8.12,7.94,17.77,14.11,25.58,22.47c1.09,1.17,1.15,3.61-0.57,4.34c-37.52,15.98-84.36,14.8-118.02,39.22
	c6.95,0.22,13.79,0.86,20.58,2.74c1.82,0.51,2.91,3.28,1.22,4.62c-17.34,13.71-40.28,18.63-56.72,33.32
	c7.44,0.87,14.65,1.88,21.6,5.2c1.67,0.79,1.69,3.13,0.56,4.33c-11.36,12.12-35.59,27.34-33.76,46.44
	c0.89,9.22,6.79,16.96,6.92,26.27c0.11,7.49-5.16,14.21-4.66,21.49c4.47-1.1,8.81-2.28,12.95-4.52c1.94-1.05,4.99,0.71,4.06,3.12
	c-6.37,16.47-3.29,39.64-0.3,56.49c2.44,13.82,9.58,46.47,27.48,26.54c1.26-1.41,3.39-0.84,4.34,0.56
	c5.62,8.26,10.13,17.19,15.69,25.46c3.47,5.14,8.15,11.23,14.24,4.89c3.65-3.81,6.63-8.01,9.54-12.38c1.05-1.58,2.93-1.73,4.35-0.56
	c13.09,10.78,39.23,55.86,50.68,20.58c0.69-2.14,3.9-2.9,5.05-0.66c6.05,11.75,9.42,24.67,16.27,35.96
	c8.4-6.9,15.58-15.09,24.2-21.75c1.23-0.95,3.04-0.15,3.78,1c1.92,2.96,4.2,5.63,6.33,8.43c11.38-10.28,21.26-23.06,30.79-5.98
	c9.38-8.94,15.4-20.59,23.53-30.67c0.99-1.23,2.86-0.9,3.9,0c6,5.15,10.88,10.86,15.24,17.29c12.86-10.25,18.69-28.22,34.62-34.59
	c1.29-0.52,3.17,0.56,3.39,1.93c0.62,3.95,2.19,7.58,3.27,11.37c26.33-18.55,36.54-55.62,38.58-86.14c0.54-8.15,0.7-16.8,0.23-25.52
	c-5.41,13.14-8.26,27.98-13.04,42.31c-1.12,3.36-6.46,1.92-5.34-1.47c5.99-17.92,9.28-36.25,17.45-51.53
	c-2.39-19.5-8.68-38.51-22.26-52.24c-2.51-2.54,1.39-6.45,3.9-3.91c12.7,12.83,19.7,30.26,22.97,48.62
	c4.65-6.5,10.69-12.19,18.73-16.77c-2.39-2.75-3.97-6.04-6.9-8.58C482.37,317.91,482.73,315.5,484.25,314.71z"/>
<path class="st25" d="M119.67,340.04c-0.23-0.75-0.13-1.56,0.27-2.24l10.67-18.03l-13.61,1c-1.23,0.1-2.35-0.64-2.79-1.78
	c-0.44-1.15-0.06-2.44,0.92-3.17c0.07-0.07,8.24-6.62,15.76-26.15c-0.18,0-0.37,0-0.58,0c-5.52,0-15.51,1.04-22.79,7.76
	c-6.89,6.37-9.97,16.49-9.16,30.1c0.72,12.25,4.21,20,10.36,23.08c7.85,3.91,18.6-0.26,24.59-3.3l-12.15-5.58
	C120.46,341.41,119.91,340.79,119.67,340.04"/>
<path class="st25" d="M511.04,289.61c-8.21-9.72-20.92-6.01-26.67-3.59l11.55,13.86c0.53,0.64,0.75,1.47,0.6,2.28
	c-0.16,0.8-0.65,1.51-1.37,1.9l-15.03,8.47l13.44,15.41c0.51,0.59,0.75,1.38,0.65,2.15c-0.09,0.77-0.51,1.47-1.14,1.92l-11.35,8.06
	c7.81,5.9,14.77,5.97,20.74,0.21C514.38,328.75,518.16,298.05,511.04,289.61"/>
<path class="st26" d="M398.16,287.91c-1.06,0.36-2.23,0.07-2.98-0.77c-0.74-0.83-0.92-2.02-0.44-3.04
	c0.12-0.24,9.86-20.79,14.88-37.66c-10.79,7.43-36.65,19.37-97,28.46c-1.04,0.13-2.08-0.3-2.68-1.15c-0.59-0.85-0.66-1.98-0.17-2.9
	c0.51-0.94,10.05-18.66,18.61-29.83c-22.02,5.55-79.81,21.33-98.68,38.05c-0.89,0.8-2.2,0.92-3.22,0.32
	c-1.04-0.6-1.56-1.79-1.32-2.96c0.23-1.09,4.77-22.07,12.86-36.92c-15.45,8.43-44.96,26.94-54.62,49.63
	c-0.45,1.06-1.51,1.75-2.63,1.68c-1.15-0.04-2.15-0.77-2.52-1.85c-0.18-0.54-3.76-10.98-4.42-28.11
	c-12.28,30.27-39.06,109.07-7.81,157.34c18.5,28.57,54.63,42.28,107.4,40.62c1.3-0.01,2.12,0.6,2.59,1.59l7.68,16.34l4.41-18.56
	c0.29-1.26,1.41-2.14,2.69-2.14c0.03,0,0.05,0,0.09,0.01c1.32,0.05,2.41,1,2.63,2.31l5.27,31.54l10.87-27.94
	c0.42-1.11,1.53-1.8,2.71-1.76c1.2,0.06,2.21,0.88,2.54,2.03l5.85,21.26l12.59-21.91c0.57-0.99,1.7-1.51,2.8-1.35
	c1.12,0.16,2.04,1,2.3,2.11l4.12,17.86l7.88-21.65c0.42-1.18,1.55-1.9,2.87-1.8c0.78,0.09,78.5,7.51,100.22-39.88
	c19.23-41.98-0.07-137.07-5.68-162.12C441.61,262.79,426.87,277.83,398.16,287.91"/>
<path class="st25" d="M174.37,304.44c12.27-8.31,23.29-18.26,35.2-27.07c1.36-1.01,3.76,0,4.07,1.66
	c1.28,7.14-0.23,22.59,11.15,18.98c9.35-2.96,18.03-7.19,26.53-12.05c13.92-7.97,27.51-16.57,42.79-21.76
	c2.52-0.86,4.07,2.06,3.13,4.06c-2.65,5.62-7.17,11.45-8.79,17.45c-1.69,6.29,24.01,1.29,25.11,1.11
	c22.04-3.66,43.26-10.07,64.44-17.09c2.4-0.8,4.22,2.03,3.12,4.06c-2.68,4.94-5.95,9.42-8.94,14.17
	c-5.98,9.51,1.94,17.06,12.16,16.91c12.21-0.19,24.1-3.85,34.64-10c11.71-6.83,23.19-15.9,31.62-26.99
	c-1.08-5.38-2.04-9.85-2.78-13.12c-6.21,8.03-20.94,23.07-49.66,33.15c-1.06,0.36-2.23,0.07-2.98-0.77
	c-0.74-0.83-0.92-2.02-0.44-3.04c0.12-0.24,9.86-20.79,14.88-37.66c-10.79,7.43-36.65,19.37-97,28.46c-1.04,0.13-2.08-0.3-2.68-1.15
	c-0.59-0.85-0.66-1.98-0.17-2.9c0.51-0.94,10.05-18.66,18.61-29.83c-22.02,5.55-79.81,21.33-98.68,38.05
	c-0.89,0.8-2.2,0.92-3.22,0.32c-1.04-0.6-1.56-1.79-1.32-2.96c0.23-1.09,4.77-22.07,12.86-36.92
	c-15.45,8.43-44.96,26.94-54.62,49.63c-0.45,1.06-1.51,1.75-2.63,1.68c-1.15-0.04-2.15-0.77-2.52-1.85
	c-0.18-0.54-3.76-10.98-4.42-28.11c-1.12,2.77-2.37,5.94-3.67,9.46C169.51,281.92,172.64,293.02,174.37,304.44z"/>
<path class="st2" d="M172.5,166.24c-57.38-22.21-72.23-62.47-76.05-80.5c-6.11,14.31-7.09,28.46-5.1,41.72
	c3.13-0.62,6.29-0.81,9-0.86c6.17-0.03,10.69,1.04,10.69,1.77c-0.01,0.95-4.58,1.42-10.3,2.52c-2.62,0.49-5.62,1.14-8.38,2.02
	c1.7,7.93,4.41,15.49,7.67,22.5c4.29-1.76,8.65-4.07,11.97-6.76c4.98-3.79,7.9-7.84,8.72-7.37c0.65,0.31-1.02,5.39-5.8,10.55
	c-3.14,3.53-7.7,6.6-12.31,8.84c4.71,9.03,10.17,17.01,15.28,23.59c4.59-2.34,9.13-5.01,12.76-7.9c6.34-4.79,9.46-10.16,10.33-9.74
	c0.69,0.22-1.26,6.77-7.46,12.93c-3.28,3.42-7.57,6.55-12.02,9.23c5.7,6.86,10.57,11.67,12.79,13.77
	C160.43,190.62,169.85,172.63,172.5,166.24"/>
<path class="st2" d="M468.69,171.93c-5.9-6.43-7.57-13.05-6.88-13.23c0.9-0.38,3.78,5.1,9.92,10.17c3.99,3.48,9.18,6.75,14.3,9.51
	c3.87-7.69,7.88-16.39,11.51-25.61c-3.46-2.21-6.7-4.84-9.02-7.73c-4.55-5.36-6-10.5-5.34-10.79c0.83-0.43,3.59,3.73,8.38,7.75
	c2.27,1.99,5.08,3.84,8,5.45c2.66-7.17,5-14.58,6.85-22.02c-0.97-0.25-1.92-0.49-2.81-0.7c-5.68-1.34-10.22-2.01-10.18-2.95
	c0.01-0.73,4.59-1.61,10.75-1.31c1.05,0.07,2.17,0.17,3.32,0.3c2.89-13.36,3.94-26.66,1.73-38.62
	c-5.41,18.77-22.98,55.94-78.9,74.81c2.65,8.37,13.15,36.14,39.57,50.2c2.34-3.73,7.56-12.26,13.48-23.59
	C477.97,180.35,472.57,176.33,468.69,171.93"/>
<path class="st23" d="M449.42,245.22c-1.11-0.12-2.23,0.44-2.78,1.45c-0.11,0.21-11.17,20.26-44.08,33.65
	c4.26-9.58,12.14-28.29,14.67-41.52c0.25-1.32-0.5-2.6-1.75-3.07c-1.28-0.47-2.69,0.06-3.38,1.21
	c-0.11,0.19-11.74,18.44-94.73,31.63c4.72-8.36,14.54-24.93,20.82-30.25c0.98-0.82,1.26-2.2,0.69-3.35
	c-0.58-1.14-1.84-1.75-3.09-1.45c-3.21,0.73-73.52,17.03-103.37,36.61c2.73-10.15,8.4-27.97,16.13-36.16
	c0.91-0.97,1.01-2.43,0.24-3.51c-0.77-1.07-2.19-1.45-3.4-0.91c-2,0.91-46.24,21.22-63.68,50.76c-1.43-6.78-3.06-18.25-2.25-32.88
	c0.08-1.31-0.79-2.5-2.05-2.82c-1.28-0.32-2.61,0.27-3.19,1.47c-2.22,4.55-53.65,112.09-12.85,175.12
	c19.4,29.98,56.55,44.5,110.39,43.2l10.29,21.87c0.51,1.06,1.55,1.67,2.79,1.57c1.17-0.12,2.14-0.97,2.4-2.11l3.07-12.92l4.65,27.95
	c0.21,1.22,1.21,2.17,2.44,2.29c0.1,0,0.2,0,0.29,0c1.12,0,2.16-0.69,2.57-1.75l11.5-29.54l5.39,19.59c0.29,1.08,1.21,1.87,2.3,2.02
	c1.16,0.13,2.2-0.41,2.76-1.37l12.39-21.55l4.64,20.1c0.28,1.19,1.3,2.07,2.53,2.14c1.23,0.06,2.35-0.67,2.76-1.82l10.34-28.42
	c13.37,0.99,82.12,3.68,103.65-43.27c22.95-50.08-5.52-166.93-6.75-171.88C451.5,246.19,450.57,245.37,449.42,245.22 M453.49,416.87
	c-21.72,47.38-99.43,39.98-100.22,39.88c-1.32-0.1-2.45,0.62-2.87,1.81l-7.88,21.63l-4.12-17.86c-0.25-1.11-1.17-1.95-2.3-2.12
	c-1.1-0.15-2.24,0.37-2.8,1.36l-12.59,21.9l-5.85-21.25c-0.32-1.15-1.34-1.97-2.54-2.03c-1.17-0.04-2.28,0.65-2.71,1.77
	l-10.88,27.95l-5.25-31.55c-0.22-1.29-1.32-2.26-2.63-2.31c-0.04-0.01-0.06-0.01-0.09-0.01c-1.28,0-2.4,0.88-2.69,2.14l-4.41,18.56
	L276,460.4c-0.47-1-1.29-1.59-2.6-1.59c-52.77,1.65-88.89-12.06-107.39-40.62c-31.25-48.26-4.47-127.07,7.81-157.34
	c0.66,17.13,4.24,27.57,4.42,28.12c0.37,1.07,1.37,1.81,2.51,1.85c1.14,0.07,2.2-0.62,2.65-1.68c9.66-22.7,39.17-41.2,54.62-49.63
	c-8.09,14.85-12.63,35.83-12.86,36.92c-0.24,1.16,0.28,2.36,1.32,2.97c1.03,0.59,2.33,0.47,3.22-0.33
	c18.88-16.72,76.66-32.49,98.68-38.05c-8.56,11.17-18.12,28.89-18.61,29.83c-0.5,0.93-0.42,2.04,0.17,2.9
	c0.6,0.85,1.64,1.28,2.68,1.15c60.36-9.08,86.22-21.03,97-28.45c-5.03,16.86-14.77,37.42-14.88,37.66c-0.48,1.01-0.3,2.21,0.44,3.03
	c0.75,0.83,1.92,1.13,2.98,0.77c28.71-10.09,43.45-25.11,49.67-33.15C453.42,279.81,472.72,374.91,453.49,416.87"/>
<path class="st23" d="M131.93,207.87c0.52,0.45,1.17,0.69,1.83,0.69c0.37,0,0.75-0.08,1.1-0.23c36.07-15.67,43.53-41.88,43.82-42.99
	c0.38-1.38-0.36-2.82-1.7-3.33c-73.93-27.3-76.3-84.99-76.31-85.57c-0.04-1.24-0.89-2.32-2.1-2.61c-1.22-0.31-2.46,0.24-3.08,1.33
	C58.1,142.02,131.19,207.22,131.93,207.87 M140.98,166.61c-0.86-0.42-3.99,4.94-10.33,9.74c-3.63,2.89-8.18,5.56-12.76,7.9
	c-5.11-6.58-10.57-14.56-15.28-23.59c4.6-2.25,9.17-5.31,12.31-8.84c4.77-5.16,6.45-10.24,5.8-10.55c-0.82-0.47-3.74,3.58-8.71,7.37
	c-3.34,2.68-7.69,5-11.97,6.78c-3.27-7.03-5.98-14.59-7.68-22.52c2.77-0.88,5.76-1.53,8.38-2.01c5.73-1.11,10.29-1.57,10.3-2.52
	c0-0.73-4.52-1.8-10.69-1.77c-2.71,0.05-5.86,0.24-9,0.85c-1.99-13.26-1-27.4,5.1-41.71c3.82,18.03,18.66,58.3,76.05,80.5
	c-2.65,6.38-12.07,24.37-38.19,36.29c-2.22-2.11-7.08-6.9-12.79-13.77c4.45-2.67,8.73-5.8,12.02-9.23
	C139.71,173.38,141.67,166.83,140.98,166.61"/>
<path class="st23" d="M511.35,69.55c-0.46-1.21-1.69-1.92-2.99-1.72c-1.27,0.2-2.25,1.26-2.33,2.55
	c-0.04,0.58-4.72,58.05-79.96,82.17c-1.39,0.44-2.19,1.87-1.85,3.27c0.4,1.64,10.1,40.22,45.41,57.43c0.39,0.19,0.8,0.28,1.21,0.28
	c0.91,0,1.79-0.45,2.31-1.23C475.57,208.66,532.2,122.55,511.35,69.55 M469.87,207.16c-26.41-14.06-36.92-41.83-39.57-50.2
	c55.91-18.86,73.49-56.03,78.9-74.81c2.21,11.96,1.16,25.25-1.73,38.62c-1.15-0.13-2.27-0.23-3.32-0.29
	c-6.16-0.3-10.74,0.57-10.75,1.3c-0.04,0.95,4.5,1.61,10.18,2.97c0.89,0.21,1.85,0.45,2.81,0.7c-1.85,7.44-4.19,14.84-6.85,22.01
	c-2.92-1.61-5.72-3.46-8-5.45c-4.79-4.01-7.55-8.18-8.38-7.75c-0.66,0.28,0.78,5.42,5.34,10.79c2.33,2.87,5.57,5.52,9.02,7.72
	c-3.64,9.22-7.65,17.92-11.51,25.61c-5.12-2.77-10.31-6.03-14.3-9.5c-6.13-5.07-9.02-10.56-9.92-10.17
	c-0.69,0.18,0.98,6.81,6.88,13.23c3.88,4.39,9.28,8.42,14.66,11.64C477.43,194.91,472.22,203.44,469.87,207.16"/>
<path class="st23" d="M140.53,344.54l-14.28-6.55l11.81-19.94c0.52-0.89,0.51-1.99-0.04-2.87c-0.53-0.88-1.52-1.41-2.55-1.31
	l-11.89,0.87c3.76-4.81,9.01-13.19,13.77-26.69c0.28-0.78,0.18-1.64-0.24-2.35c-0.44-0.71-1.16-1.18-1.98-1.31
	c-0.75-0.1-18.88-2.54-31.36,8.94c-8.18,7.55-11.87,19.15-10.95,34.53c0.85,14.35,5.36,23.67,13.41,27.69
	c3.11,1.54,6.45,2.16,9.81,2.16c12.08,0,24.2-7.92,24.86-8.36c0.83-0.55,1.31-1.51,1.22-2.51
	C142.06,345.84,141.44,344.96,140.53,344.54 M108.72,350.61c-6.15-3.08-9.64-10.84-10.36-23.07c-0.81-13.61,2.27-23.74,9.16-30.1
	c7.28-6.72,17.27-7.76,22.79-7.76c0.21,0,0.4,0,0.58,0c-7.53,19.54-15.7,26.1-15.76,26.14c-0.98,0.75-1.35,2.04-0.92,3.19
	c0.44,1.14,1.56,1.88,2.79,1.78l13.61-0.99l-10.67,18.02c-0.4,0.68-0.49,1.49-0.27,2.24c0.24,0.75,0.78,1.36,1.49,1.69l12.15,5.58
	C127.32,350.36,116.57,354.52,108.72,350.61"/>
<path class="st23" d="M515.26,286.05c-11.01-13.07-28.81-7.91-36.68-3.38c-0.7,0.41-1.19,1.11-1.34,1.92
	c-0.15,0.8,0.08,1.63,0.6,2.25l11.69,14.05l-15.07,8.5c-0.72,0.41-1.23,1.12-1.37,1.95c-0.14,0.82,0.09,1.65,0.64,2.28l13.65,15.68
	l-11.79,8.36c-0.67,0.49-1.11,1.25-1.16,2.1c-0.05,0.84,0.29,1.66,0.9,2.22c6.75,6.07,12.65,8.16,17.56,8.14
	c6.03,0,10.58-3.13,13.41-5.86C519.76,331.25,524.94,297.52,515.26,286.05 M502.47,340.28c-5.97,5.76-12.92,5.69-20.74-0.21
	l11.35-8.06c0.63-0.45,1.05-1.15,1.14-1.92c0.1-0.77-0.15-1.56-0.65-2.15l-13.44-15.41l15.03-8.47c0.71-0.41,1.22-1.11,1.37-1.91
	c0.15-0.81-0.07-1.64-0.6-2.28l-11.55-13.87c5.75-2.42,18.46-6.13,26.67,3.59C518.16,298.06,514.38,328.75,502.47,340.28"/>
<path class="st27" d="M301.28,352.19c2.86-0.13,5.04-0.19,6.82-0.2c0.12-2.91,1.41-7.04,3.02-7.04c1.63,0,2.95,4.26,3.03,7.17
	c3.06,0.14,5.73,0.24,14.49-0.6c0.06-2.91,1.39-7.24,3.03-7.24c1.52,0,2.76,3.73,3,6.59c7.97-1,11.5-3.62,11.41-5.87
	c-0.1-2.45-4.09-5.98-10.39-6.16l-3.38-0.11c-10.89-0.33-13.81-0.43-30.3,0.92c-8.29,0.67-11.85,4.12-11.67,7.02
	C290.54,349.6,294.33,352.52,301.28,352.19"/>
<path class="st3" d="M406.34,372.3c-2.18-2.26-7.87-3.19-20.28-3.36c-2.07-0.02-4.76-0.04-8.04-0.04
	c-23.33,0-76.06,0.84-137.61,4.88c-20.63,1.35-21.66,2.21-21.96,18.37c-0.07,3.94,1.73,7.71,5.35,11.23
	c1.05,1.02,2.28,1.98,3.6,2.93c9.99-14.23,14.13-15.91,16.98-15.57c2.36,0.29,4.69,2.1,6.39,10.75c13.92-7.32,34.6-13.4,65.15-13.54
	c28.97-0.18,48.84,1.81,62,6.48c0.86-6.14,2.82-8.1,4.52-8.96c2.98-1.49,7.64-1,19.11,13.15c4.14-3.63,6.25-7.4,6.33-11.07
	l0.07-2.87C408.1,378.4,408.21,374.25,406.34,372.3"/>
<path class="st28" d="M315.93,393.49c-30.85,0.15-51.09,6.44-64.26,13.8c0.33,2.61,0.62,5.68,0.86,9.17
	c13.33,3.12,32.69,5.33,60.15,4c26.6-1.28,48.7-4.7,65.16-9.94c-0.3-4.1-0.41-7.55-0.35-10.41
	C367.03,396.08,348.96,393.24,315.93,393.49"/>
<path class="st27" d="M232.11,409.21c4.11,2.21,9.06,4.15,14.77,5.77c-1.08-13.51-2.79-17.51-3.44-18.59
	C242.38,396.94,239.12,399.27,232.11,409.21"/>
<path class="st27" d="M384.83,390.5c-0.85,0.72-2.44,5.14-1.57,18.21c5.52-2.04,10.18-4.29,13.91-6.69
	C388.67,391.53,385.38,390.58,384.83,390.5"/>
<path class="st23" d="M301.54,357.71c6.81-0.34,9.7-0.19,12.25-0.07c1.22,0.06,2.36,0.11,3.78,0.11c3.1,0,7.53-0.25,17.01-1.28
	c15.7-1.7,17.14-8.73,17.02-11.68c-0.23-6.07-7.29-11.23-15.75-11.47l-3.37-0.11c-10.84-0.33-14.11-0.43-30.92,0.94
	c-12.06,0.98-17.09,7.19-16.71,12.89C285.2,352.71,291.09,358.23,301.54,357.71 M302.01,339.66c16.49-1.35,19.41-1.26,30.3-0.92
	l3.38,0.11c6.29,0.19,10.29,3.71,10.39,6.16c0.09,2.25-3.44,4.88-11.41,5.87c-0.23-2.87-1.47-6.59-3-6.59
	c-1.64,0-2.97,4.33-3.03,7.24c-8.76,0.83-11.43,0.73-14.49,0.6c-0.08-2.91-1.4-7.17-3.03-7.17c-1.61,0-2.9,4.13-3.02,7.04
	c-1.79,0.01-3.96,0.07-6.82,0.2c-6.95,0.33-10.74-2.6-10.93-5.52C290.16,343.77,293.73,340.33,302.01,339.66"/>
<path class="st23" d="M206.44,339.56c-0.85-0.93-6.47,2.8-9.62,5.66c-3.16,2.87-2.65,3.78-1.8,4.71c0.86,0.93,1.72,1.53,4.86-1.33
	C203.03,345.74,207.28,340.49,206.44,339.56"/>
<path class="st23" d="M216.46,342.68c-0.85-0.93-6.47,2.8-9.63,5.66c-3.15,2.86-2.63,3.78-1.79,4.71c0.86,0.92,1.71,1.53,4.86-1.34
	C213.06,348.86,217.31,343.6,216.46,342.68"/>
<path class="st23" d="M430.42,331.96c-0.85-0.93-6.47,2.8-9.62,5.66c-3.16,2.86-2.64,3.78-1.8,4.7c0.86,0.93,1.72,1.53,4.85-1.33
	C427.02,338.14,431.27,332.89,430.42,331.96"/>
<path class="st23" d="M440.45,335.07c-0.85-0.93-6.47,2.79-9.62,5.66c-3.16,2.86-2.65,3.78-1.8,4.71c0.86,0.93,1.72,1.53,4.85-1.33
	C437.04,341.25,441.3,336,440.45,335.07"/>
<path class="st23" d="M230.63,330.92c8.21,0,14.87-6.5,14.87-14.52c0-8.02-6.66-14.52-14.87-14.52c-8.21,0-14.87,6.5-14.87,14.52
	C215.76,324.42,222.41,330.92,230.63,330.92"/>
<path class="st23" d="M402.42,301.55c-8.21,0-14.87,6.49-14.87,14.51c0,8.02,6.66,14.52,14.87,14.52c8.21,0,14.86-6.5,14.86-14.52
	C417.28,308.04,410.64,301.55,402.42,301.55"/>
<path class="st23" d="M386.13,363.41c-16.79-0.23-75.7,0.23-146.09,4.84c-21.98,1.45-26.74,3.65-27.13,23.8
	c-0.1,5.45,2.33,10.74,7.03,15.3c8.3,8.05,23.08,13.7,42.64,16.64c0.05,0.01,0.08,0.01,0.12,0.02c4.98,0.76,10.26,1.32,15.79,1.72
	c0.54,0.04,1.1,0.07,1.64,0.1c2.09,0.14,4.22,0.24,6.37,0.32c0.76,0.03,1.52,0.05,2.3,0.09c2.68,0.07,5.41,0.13,8.2,0.13h0.09h0.02
	h0.02c5.11,0,10.39-0.13,15.83-0.39c4.24-0.2,8.35-0.47,12.37-0.78c0.97-0.07,1.89-0.17,2.84-0.25c3.12-0.26,6.18-0.55,9.16-0.87
	c0.79-0.09,1.58-0.18,2.37-0.28c3.2-0.37,6.33-0.77,9.35-1.22c0.4-0.06,0.79-0.12,1.18-0.19c39.81-6.05,62.86-18.34,63.2-34.72
	l0.06-2.84c0.19-7.67,0.33-12.74-3.14-16.35C406.87,364.88,400.76,363.61,386.13,363.41 M232.11,409.21
	c7.01-9.94,10.27-12.27,11.33-12.81c0.65,1.07,2.36,5.07,3.44,18.59C241.17,413.35,236.22,411.41,232.11,409.21 M312.68,420.45
	c-27.47,1.33-46.82-0.88-60.15-4c-0.25-3.49-0.53-6.56-0.86-9.17c13.17-7.36,33.41-13.65,64.26-13.8c33.03-0.25,51.1,2.6,61.56,6.62
	c-0.06,2.85,0.05,6.3,0.35,10.4C361.38,415.75,339.28,419.17,312.68,420.45 M384.83,390.5c0.55,0.08,3.84,1.04,12.34,11.51
	c-3.73,2.41-8.39,4.66-13.91,6.7C382.38,395.64,383.98,391.22,384.83,390.5 M407.94,384.68l-0.07,2.87
	c-0.08,3.67-2.19,7.44-6.33,11.07c-11.46-14.15-16.12-14.64-19.11-13.15c-1.7,0.86-3.66,2.81-4.52,8.96
	c-13.16-4.67-33.03-6.66-62-6.48c-30.55,0.14-51.23,6.22-65.15,13.54c-1.7-8.64-4.03-10.46-6.39-10.75c-2.85-0.34-7,1.34-17,15.58
	c-1.31-0.94-2.54-1.92-3.59-2.94c-3.62-3.52-5.42-7.29-5.35-11.22c0.3-16.17,1.33-17.03,21.96-18.39
	c61.55-4.03,114.29-4.87,137.61-4.87c3.28,0,5.98,0.02,8.04,0.04c12.42,0.16,18.1,1.1,20.28,3.36
	C408.21,374.25,408.1,378.4,407.94,384.68"/>
<path class="st23" d="M285.47,87.41c2.39,4.08,5.57,9,8.29,12.66c2.74,3.64,4.3,5.48,5.57,6.12c0.57,0.37,1.05,0.45,1.43,0.42
	c0.35-0.02,0.47-0.07,0.54-0.13c0.07-0.06,0.17-0.16,0.29-0.48c0.14-0.34,0.23-0.82,0.05-1.48c-0.2-1.41-1.47-3.46-4.07-7.2
	c-2.63-3.73-6.32-8.28-9.43-11.83c-1.59-1.76-2.97-3.31-4.04-4.38c-1.07-1.04-2.1-1.41-2.15-1.36c-0.06,0.04-0.04,1.12,0.63,2.47
	C283.25,83.56,284.28,85.35,285.47,87.41"/>
<path class="st23" d="M205.13,87.41c7.26,1.8,14.27,3.54,19.56,4.85c5.89,1.44,8.99,2.25,10.8,2.11c0.89,0.03,1.43-0.16,1.75-0.39
	c0.34-0.21,0.42-0.32,0.45-0.4c0.02-0.09,0.02-0.23-0.12-0.59c-0.14-0.37-0.48-0.85-1.23-1.33c-1.44-1.13-4.5-2.3-10.47-3.94
	c-5.97-1.63-13.83-2.97-20.19-3.54c-3.18-0.27-5.99-0.44-8-0.46c-2.02,0-3.29,0.48-3.3,0.55c0,0.07,1.12,0.81,3.06,1.31
	C199.36,86.09,202.08,86.67,205.13,87.41"/>
<path class="st23" d="M232.3,113.04c-1.21,0.17-1.98,0.73-1.98,0.81c-0.01,0.06,0.68,0.72,1.86,1.06c1.17,0.32,2.84,0.65,4.73,1.03
	c3.78,0.71,8.5,1.36,12.19,1.55c3.7,0.16,5.67,0.13,6.73-0.47c0.52-0.2,0.83-0.53,1.01-0.83c0.18-0.28,0.21-0.41,0.21-0.51
	c0.01-0.09-0.01-0.22-0.15-0.53c-0.13-0.32-0.38-0.69-0.88-0.97c-0.98-0.72-2.91-1.03-6.6-1.38c-3.68-0.31-8.44-0.32-12.29-0.13
	C235.21,112.79,233.52,112.89,232.3,113.04"/>
<path class="st23" d="M181.17,127.35c2.79-0.64,6.18-1.64,8.71-2.72c2.5-1.1,3.78-1.81,4.24-2.7c0.26-0.35,0.34-0.76,0.31-1.1
	c0-0.31-0.03-0.44-0.06-0.52c-0.04-0.09-0.11-0.21-0.31-0.44c-0.23-0.25-0.56-0.49-0.99-0.57c-0.95-0.33-2.36,0.04-4.94,0.98
	c-2.56,0.97-5.71,2.57-8.18,4.04c-1.22,0.75-2.3,1.41-3.04,1.97c-0.73,0.56-1.01,1.34-0.98,1.4c0.04,0.06,0.76,0.44,1.68,0.34
	C178.52,127.91,179.75,127.64,181.17,127.35"/>
<path class="st23" d="M219.48,142.18c5.31-1.13,8.1-1.86,9.46-2.8c0.69-0.38,1.03-0.8,1.19-1.15c0.16-0.34,0.17-0.47,0.15-0.56
	c-0.02-0.09-0.08-0.21-0.35-0.47c-0.29-0.26-0.76-0.53-1.54-0.61c-1.61-0.36-4.46,0.02-9.81,0.98c-5.35,0.99-12.15,2.65-17.58,4.18
	c-2.7,0.78-5.1,1.47-6.79,2.04c-1.68,0.59-2.61,1.4-2.6,1.47c0.02,0.07,1.17,0.47,2.96,0.38c1.79-0.11,4.25-0.38,7.05-0.68
	C207.23,144.32,214.14,143.29,219.48,142.18"/>
<path class="st23" d="M189.6,186.48c0.04,0.06,1.33-0.24,2.97-1.28c2.15-1.37,4.34-2.75,6.5-4.12c5.2-3.21,11.82-6.78,17.06-9.39
	c5.22-2.65,8.06-3.88,9.35-5.09c0.67-0.51,0.98-0.99,1.1-1.38c0.13-0.37,0.12-0.51,0.1-0.59c-0.04-0.08-0.12-0.19-0.46-0.38
	c-0.34-0.21-0.9-0.37-1.75-0.3c-1.8-0.01-4.89,0.94-10.41,3.53c-5.51,2.61-12.09,6.9-16.88,10.94c-2.39,2.03-4.42,3.9-5.79,5.31
	C190.03,185.2,189.55,186.44,189.6,186.48"/>
<path class="st23" d="M245.22,161.6c-1.41,0.95-2.04,1.94-2,1.99c0.02,0.07,1.2,0.18,2.8-0.3c1.59-0.48,3.79-1.25,6.29-2.02
	c5-1.61,11.23-3.41,16.06-4.82c4.83-1.44,7.4-2.13,8.65-3.08c0.63-0.38,0.94-0.8,1.09-1.15c0.15-0.34,0.16-0.47,0.15-0.56
	c-0.03-0.09-0.09-0.21-0.35-0.46c-0.28-0.26-0.72-0.52-1.49-0.61c-1.53-0.34-4.26,0.02-9.31,1.34c-5.04,1.34-11.27,3.82-16.04,6.32
	C248.69,159.51,246.64,160.67,245.22,161.6"/>
<path class="st23" d="M342.82,100.98c0.08,0.06,0.19,0.12,0.54,0.16c0.35,0.07,0.83,0.02,1.38-0.28c1.26-0.48,2.73-2.09,5.66-5.02
	c2.91-2.95,6.68-6.71,9.9-9.62c1.59-1.49,3.07-2.72,4.08-3.66c1.03-0.95,1.41-1.91,1.38-1.97c-0.04-0.06-1.06-0.15-2.38,0.39
	c-1.32,0.55-3.07,1.48-5.02,2.61c-3.89,2.28-8.35,5.77-11.33,8.99c-2.97,3.22-4.26,5.17-4.5,6.51c-0.19,0.62-0.12,1.09,0.01,1.42
	C342.66,100.83,342.75,100.93,342.82,100.98"/>
<path class="st23" d="M361.19,125.26c-0.05,0.36-0.03,0.5,0.02,0.58c0.04,0.09,0.12,0.18,0.46,0.35c0.32,0.19,0.84,0.32,1.59,0.21
	c1.57-0.05,4.07-1.12,8.8-3.13c4.1-1.81,9.6-4.23,15.65-6.89c2.45-1.09,4.63-1.99,6.17-2.71c1.53-0.72,2.34-1.6,2.33-1.67
	c-0.01-0.06-1.17-0.37-2.87-0.12c-1.69,0.26-4.03,0.78-6.68,1.41c-5.29,1.31-11.72,3.49-16.5,5.69c-4.79,2.23-7.19,3.66-8.19,4.89
	C361.44,124.4,361.23,124.88,361.19,125.26"/>
<path class="st23" d="M403.61,155.75c1.26,0.09,2.35,0.18,3.16,0.16c0.81-0.04,1.43-0.51,1.44-0.58c0.02-0.06-0.27-0.77-0.93-1.23
	c-0.69-0.44-1.68-0.93-2.79-1.5c-2.25-1.09-5.1-2.22-7.41-2.79c-2.32-0.56-3.57-0.72-4.38-0.26c-0.39,0.14-0.65,0.43-0.83,0.7
	c-0.17,0.27-0.23,0.39-0.24,0.47c-0.02,0.08-0.05,0.22-0.04,0.53c0.01,0.33,0.1,0.71,0.35,1.03c0.46,0.81,1.62,1.32,3.89,2.03
	C398.1,155.02,401.13,155.53,403.61,155.75"/>
<path class="st23" d="M380.56,179.3c0.04-0.07-0.13-0.87-0.78-1.55c-0.67-0.66-1.67-1.47-2.79-2.41c-2.27-1.84-5.22-3.91-7.67-5.26
	c-2.46-1.32-3.82-1.91-4.82-1.73c-0.46,0.01-0.81,0.2-1.07,0.42c-0.25,0.2-0.32,0.3-0.37,0.39c-0.05,0.08-0.1,0.2-0.15,0.51
	c-0.06,0.33-0.05,0.74,0.17,1.14c0.34,0.97,1.52,1.86,3.9,3.33c2.38,1.46,5.65,2.98,8.37,4.03c1.38,0.52,2.59,0.97,3.49,1.22
	C379.74,179.61,380.53,179.35,380.56,179.3"/>
<path class="st23" d="M317.37,168.91c-0.37-0.12-0.93-0.15-1.7,0.11c-1.66,0.38-4.17,1.99-8.81,5.22
	c-4.61,3.26-10.3,7.77-14.78,11.55c-2.21,1.92-4.18,3.59-5.53,4.85c-1.33,1.29-1.87,2.44-1.83,2.49c0.05,0.06,1.3-0.1,2.95-0.97
	c1.63-0.88,3.83-2.21,6.34-3.72c5-3.06,11.06-7.04,15.6-10.4c4.53-3.38,6.85-5.27,7.73-6.72c0.49-0.66,0.64-1.18,0.64-1.58
	c0.02-0.38-0.02-0.51-0.07-0.59C317.84,169.1,317.73,169.01,317.37,168.91"/>
<path class="st23" d="M270.97,207.07c0.55-0.53,0.76-1.02,0.81-1.4c0.07-0.36,0.05-0.5,0-0.58c-0.02-0.09-0.12-0.18-0.45-0.35
	c-0.33-0.2-0.83-0.34-1.59-0.23c-1.59,0.03-4.17,1.07-8.92,3.27c-4.73,2.23-10.65,5.44-15.33,8.2c-2.33,1.4-4.38,2.63-5.81,3.59
	c-1.41,0.97-2.07,1.97-2.04,2.03c0.02,0.06,1.22,0.17,2.86-0.35c1.63-0.51,3.88-1.36,6.41-2.32c5.07-1.95,11.26-4.59,15.94-6.92
	C267.54,209.66,269.94,208.3,270.97,207.07"/>
<path class="st23" d="M232.14,205.48c0.64-0.65,0.88-1.19,0.95-1.59c0.07-0.38,0.05-0.53,0-0.6c-0.05-0.09-0.15-0.17-0.52-0.3
	c-0.4-0.15-0.98-0.2-1.86,0.04c-1.85,0.3-4.82,1.82-10.34,4.93c-5.51,3.13-12.37,7.49-17.79,11.17c-2.7,1.86-5.08,3.49-6.74,4.73
	c-1.65,1.26-2.41,2.41-2.38,2.47c0.04,0.06,1.41-0.03,3.32-0.85c1.9-0.83,4.48-2.09,7.44-3.52c5.88-2.89,13.07-6.7,18.5-9.92
	C228.16,208.77,230.96,206.94,232.14,205.48"/>
<path class="st23" d="M277.64,226.91c5.71-2.22,12.71-5.19,18.03-7.8c5.3-2.62,8.04-4.13,9.24-5.42c0.64-0.57,0.89-1.07,0.99-1.47
	c0.1-0.37,0.07-0.51,0.02-0.59c-0.04-0.08-0.12-0.18-0.48-0.35c-0.35-0.18-0.9-0.3-1.75-0.16c-1.76,0.12-4.66,1.29-10.05,3.76
	c-5.36,2.49-12.09,6.04-17.42,9.08c-2.66,1.54-4.99,2.89-6.63,3.93c-1.62,1.06-2.4,2.12-2.38,2.18c0.04,0.06,1.34,0.12,3.19-0.48
	C272.25,228.98,274.76,228,277.64,226.91"/>
<path class="st23" d="M340.19,217.1c1.02-0.8,2.32-1.99,3.83-3.34c2.96-2.73,6.47-6.27,8.97-9.24c2.48-2.98,3.68-4.64,3.9-5.88
	c0.17-0.57,0.1-1.02-0.04-1.35c-0.12-0.32-0.19-0.42-0.26-0.48c-0.07-0.07-0.19-0.13-0.52-0.21c-0.34-0.08-0.8-0.1-1.33,0.16
	c-1.21,0.37-2.68,1.8-5.29,4.67c-2.6,2.89-5.62,6.86-7.91,10.18c-1.12,1.68-2.13,3.14-2.77,4.25c-0.64,1.12-0.68,2.1-0.63,2.15
	C338.21,218.05,339.17,217.88,340.19,217.1"/>
<path class="st23" d="M379.17,223.74c0.56-0.61,1.2-1.5,1.94-2.51c1.47-2.04,3.07-4.69,4.04-6.87c0.93-2.21,1.3-3.43,0.99-4.31
	c-0.07-0.4-0.3-0.71-0.54-0.93c-0.24-0.21-0.35-0.29-0.43-0.32c-0.07-0.04-0.21-0.09-0.52-0.12c-0.32-0.04-0.71-0.02-1.07,0.17
	c-0.87,0.32-1.57,1.39-2.67,3.51c-1.08,2.14-2.09,5.05-2.73,7.48c-0.3,1.22-0.58,2.29-0.69,3.1c-0.11,0.82,0.25,1.5,0.31,1.53
	C377.86,224.48,378.62,224.33,379.17,223.74"/>
<path class="st23" d="M130.52,256.31c4.72-4.4,8.97-8.33,12.12-11.26c3.63-3.4,5.58-5.16,6.25-6.56c0.38-0.61,0.47-1.13,0.43-1.5
	c-0.01-0.36-0.07-0.5-0.13-0.57c-0.05-0.06-0.16-0.15-0.51-0.25c-0.36-0.12-0.88-0.15-1.58,0.11c-1.51,0.38-3.74,1.93-7.61,5.3
	c-3.85,3.39-8.28,8.31-11.41,12.56c-1.56,2.14-2.87,4.06-3.75,5.49c-0.83,1.44-0.95,2.6-0.91,2.65c0.05,0.04,1.15-0.35,2.37-1.46
	C127.01,259.69,128.63,258.08,130.52,256.31"/>
<path class="st23" d="M105.52,253.6c0.6-0.91,1.35-2.21,2.25-3.64c2.46-4.08,4.3-7.14,5.55-9.23c1.58-2.81,2.42-4.3,2.37-5.43
	c0.06-0.5-0.07-0.91-0.27-1.19c-0.16-0.29-0.25-0.39-0.33-0.44c-0.07-0.05-0.19-0.11-0.52-0.17c-0.34-0.07-0.77-0.05-1.23,0.19
	c-1.07,0.4-2.25,1.78-4.06,4.65c-1.8,2.88-3.53,6.92-4.5,10.3c-0.47,1.69-0.85,3.19-1.02,4.29c-0.16,1.11,0.21,1.93,0.27,1.95
	C104.09,254.9,104.9,254.5,105.52,253.6"/>
<path class="st23" d="M478,262.14c0.68,0.67,1.27,1.26,1.76,1.63c0.51,0.37,1.21,0.35,1.27,0.32c0.06-0.03,0.42-0.64,0.35-1.26
	c-0.08-0.62-0.31-1.42-0.55-2.34c-0.53-1.81-1.4-3.93-2.34-5.42c-0.97-1.48-1.58-2.19-2.4-2.29c-0.32-0.09-0.7-0.04-1,0.06
	c-0.3,0.08-0.42,0.14-0.5,0.19c-0.07,0.04-0.19,0.12-0.41,0.34c-0.23,0.22-0.47,0.51-0.54,0.83c-0.33,0.76-0.01,1.66,0.8,3.22
	C475.27,258.99,476.7,260.79,478,262.14"/>
<path class="st23" d="M114.06,433.74c-0.31,4.45-0.33,10.19-0.13,14.81c0.12,2.32,0.2,4.35,0.36,5.82c0.17,1.45,0.74,2.37,0.8,2.37
	c0.07,0,0.75-0.84,1.08-2.26c0.33-1.44,0.65-3.45,1.03-5.73c0.71-4.58,1.36-10.28,1.56-14.74c0.17-4.45,0.12-6.82-0.46-8.09
	c-0.2-0.62-0.53-0.98-0.84-1.19c-0.28-0.21-0.42-0.23-0.5-0.24c-0.1-0.01-0.23,0.02-0.54,0.18c-0.32,0.17-0.69,0.48-0.97,1.09
	C114.71,426.96,114.4,429.29,114.06,433.74"/>
<path class="st23" d="M143.38,478.92c0.39,1.26,1.09,1.96,1.15,1.96c0.07-0.01,0.61-0.85,0.72-2.14c0.11-1.3,0.17-3.09,0.27-5.13
	c0.17-4.06,0.32-9.08,0.29-12.98c-0.06-3.9-0.13-5.95-0.76-7.07c-0.21-0.56-0.54-0.88-0.86-1.05c-0.28-0.18-0.41-0.22-0.51-0.22
	c-0.09-0.01-0.22,0.01-0.52,0.16c-0.33,0.15-0.69,0.43-0.95,0.99c-0.7,1.06-0.98,3.17-1.09,7.17c-0.08,4,0.4,9.15,1.14,13.22
	C142.66,475.88,143.02,477.66,143.38,478.92"/>
<path class="st23" d="M166.63,488.88c0.3,0.77,0.94,1.21,1.02,1.21c0.06-0.01,0.65-0.51,0.87-1.32c0.19-0.8,0.35-1.91,0.53-3.16
	c0.31-2.53,0.47-5.64,0.29-8.06c-0.22-2.41-0.46-3.68-1.16-4.32c-0.25-0.32-0.62-0.49-0.93-0.57c-0.3-0.08-0.44-0.1-0.53-0.08
	c-0.09,0-0.22,0.03-0.51,0.14c-0.31,0.13-0.65,0.32-0.87,0.67c-0.63,0.7-0.73,1.99-0.7,4.41c0.07,2.42,0.56,5.51,1.14,7.99
	C166.08,487.02,166.35,488.1,166.63,488.88"/>
<path class="st23" d="M208.14,489.02c-0.1,0-0.23,0.01-0.52,0.15c-0.32,0.14-0.67,0.39-0.91,0.82c-0.66,0.88-0.83,2.56-0.93,5.74
	c-0.06,3.19,0.26,7.26,0.71,10.55c0.25,1.64,0.46,3.09,0.7,4.12c0.26,1.04,0.87,1.66,0.94,1.66c0.06,0,0.68-0.62,0.93-1.66
	c0.24-1.03,0.45-2.48,0.7-4.12c0.46-3.29,0.77-7.36,0.71-10.55c-0.1-3.18-0.27-4.86-0.93-5.74c-0.24-0.44-0.58-0.68-0.91-0.82
	C208.36,489.03,208.23,489.02,208.14,489.02"/>
<path class="st23" d="M361.98,510.77c-0.29-0.12-0.42-0.15-0.51-0.16c-0.1-0.01-0.23,0.01-0.52,0.11c-0.32,0.08-0.69,0.28-0.94,0.64
	c-0.7,0.7-0.94,2.11-1.16,4.78c-0.18,2.67-0.03,6.12,0.3,8.9c0.18,1.39,0.33,2.62,0.52,3.49c0.22,0.9,0.81,1.44,0.87,1.44
	c0.07,0,0.71-0.5,1-1.35c0.29-0.86,0.56-2.06,0.87-3.43c0.58-2.74,1.08-6.16,1.12-8.83c0.05-2.68-0.06-4.09-0.69-4.87
	C362.63,511.1,362.3,510.89,361.98,510.77"/>
<path class="st23" d="M406.74,489.13c-0.31-0.12-0.45-0.12-0.53-0.12c-0.1,0-0.22,0.04-0.51,0.2c-0.31,0.15-0.64,0.42-0.83,0.88
	c-0.59,0.92-0.63,2.57-0.6,5.71c0.06,3.12,0.37,7.14,0.67,10.41c0.18,1.64,0.29,3.07,0.46,4.12c0.17,1.04,0.74,1.72,0.81,1.73
	c0.06,0.01,0.73-0.56,1.06-1.59c0.31-1.03,0.62-2.46,0.93-4.12c0.61-3.31,0.94-7.48,0.75-10.72c-0.21-3.24-0.53-4.92-1.26-5.76
	C407.42,489.44,407.05,489.23,406.74,489.13"/>
<path class="st23" d="M447.9,497.81c0.21,0.92,0.81,1.5,0.87,1.5c0.07,0.01,0.7-0.51,1-1.41c0.28-0.9,0.54-2.16,0.87-3.59
	c0.58-2.87,1.06-6.45,1.12-9.26c0.05-2.8-0.06-4.29-0.69-5.09c-0.22-0.4-0.56-0.63-0.87-0.76c-0.29-0.13-0.42-0.16-0.52-0.16
	c-0.08,0-0.21,0.01-0.52,0.12c-0.32,0.1-0.68,0.3-0.93,0.68c-0.7,0.75-0.94,2.21-1.16,5.01c-0.18,2.8-0.04,6.4,0.29,9.32
	C447.56,495.61,447.7,496.89,447.9,497.81"/>
<path class="st23" d="M485.69,470.95c0.21,1,0.8,1.62,0.87,1.63c0.06,0,0.71-0.57,1-1.56c0.28-0.99,0.54-2.36,0.86-3.93
	c0.59-3.14,1.07-7.04,1.14-10.1c0.04-3.06-0.07-4.68-0.69-5.55c-0.23-0.43-0.57-0.68-0.87-0.81c-0.3-0.14-0.42-0.18-0.52-0.18
	c-0.09,0-0.22,0.01-0.53,0.12c-0.31,0.12-0.68,0.34-0.93,0.75c-0.69,0.83-0.93,2.43-1.14,5.47c-0.19,3.06-0.04,6.99,0.29,10.17
	C485.35,468.55,485.49,469.95,485.69,470.95"/>
<linearGradient id="SVGID_1_" gradientUnits="userSpaceOnUse" x1="279.0177" y1="277.8887" x2="304.6159" y2="230.4415">
	<stop  offset="0" style="stop-color:#004775"/>
	<stop  offset="1" style="stop-color:#2D73B4;stop-opacity:0"/>
</linearGradient>
<path class="st0" d="M245.39,229.54c0,0-14.56,33.73-15.25,45.46c0,0,34.48-23.44,104.11-39.3c69.63-15.86,1.53-2.18,1.53-2.18"/>
<linearGradient id="SVGID_3_" gradientUnits="userSpaceOnUse" x1="313.4882" y1="254.2109" x2="414.8513" y2="254.2109">
	<stop  offset="0" style="stop-color:#97BE13"/>
	<stop  offset="1" style="stop-color:#97BE13;stop-opacity:0"/>
</linearGradient>
<path style="fill:url(#SVGID_3_);" d="M333.89,237.8c0,0-18.48,30.6-20.4,32.83c0,0,49.41-0.96,101.36-30.6"/>
<linearGradient id="SVGID_5_" gradientUnits="userSpaceOnUse" x1="400.3915" y1="261.6888" x2="447.5869" y2="261.6888">
	<stop  offset="0" style="stop-color:#2D73B4"/>
	<stop  offset="1" style="stop-color:#55ABDD;stop-opacity:0"/>
</linearGradient>
<path style="fill:url(#SVGID_5_);" d="M447.59,248.73c0,0-21.27,29.25-47.2,33.24c0,0,9.31-25.26,11.96-40.55"/>
</svg>
