<?xml version="1.0" encoding="utf-8"?>
<!-- Generator: Adobe Illustrator 24.0.0, SVG Export Plug-In . SVG Version: 6.00 Build 0)  -->
<svg version="1.1" id="Capa_1" xmlns="http://www.w3.org/2000/svg" xmlns:xlink="http://www.w3.org/1999/xlink" x="0px" y="0px"
	 viewBox="0 0 40 40" style="enable-background:new 0 0 40 40;" xml:space="preserve">
<style type="text/css">
	.st0{fill:#97BE13;}
	.st1{fill:#004775;}
	.st2{fill:#0097AC;}
</style>
<path class="st1" d="M14.58,26.22c-2.62,0-5.24-1-7.24-2.99c-1.93-1.93-3-4.5-3-7.24c0-2.73,1.06-5.3,3-7.24c1.93-1.93,4.5-3,7.24-3
	c2.73,0,5.3,1.06,7.24,3c1.93,1.93,3,4.5,3,7.24c0,2.73-1.06,5.3-3,7.24C19.82,25.23,17.2,26.22,14.58,26.22z M14.58,6.99
	c-2.4,0-4.66,0.94-6.36,2.64c-1.7,1.7-2.64,3.96-2.64,6.36s0.94,4.66,2.64,6.36c3.51,3.51,9.22,3.51,12.73,0
	c1.7-1.7,2.64-3.96,2.64-6.36s-0.94-4.66-2.64-6.36C19.25,7.93,16.99,6.99,14.58,6.99z"/>
<path class="st0" d="M33.43,38.47c-0.93,0-1.86-0.35-2.57-1.06l-5.19-5.19c-0.62-0.62-0.62-1.64,0-2.27l2.87-2.87
	c0.62-0.62,1.64-0.62,2.27,0L36,32.28c1.41,1.41,1.41,3.72,0,5.13C35.29,38.12,34.36,38.47,33.43,38.47z M26.55,31.35l5.19,5.19
	c0.45,0.45,1.05,0.7,1.69,0.7c0.64,0,1.24-0.25,1.69-0.7c0.45-0.45,0.7-1.05,0.7-1.69c0-0.64-0.25-1.24-0.7-1.69l-5.19-5.19
	c-0.14-0.14-0.38-0.14-0.52,0l-2.87,2.87C26.41,30.97,26.41,31.21,26.55,31.35L26.55,31.35z"/>
<path class="st1" d="M14.58,30.02c-3.59,0-7.19-1.37-9.92-4.1c-5.47-5.47-5.47-14.37,0-19.84c5.47-5.47,14.37-5.47,19.84,0
	c5.47,5.47,5.47,14.37,0,19.84C21.77,28.65,18.17,30.02,14.58,30.02z M14.58,3.2c-3.28,0-6.55,1.25-9.05,3.74
	c-4.99,4.99-4.99,13.11,0,18.1c4.99,4.99,13.11,4.99,18.1,0c4.99-4.99,4.99-13.11,0-18.1C21.14,4.45,17.86,3.2,14.58,3.2z"/>
<path class="st1" d="M26.11,31.01c-0.16,0-0.32-0.07-0.44-0.18l-3.59-3.59c-0.13-0.13-0.19-0.3-0.18-0.48
	c0.01-0.18,0.1-0.34,0.25-0.45c0.52-0.38,1.01-0.81,1.47-1.26c0.46-0.46,0.88-0.95,1.26-1.47c0.11-0.14,0.27-0.24,0.45-0.25
	c0.18-0.02,0.35,0.05,0.48,0.18l3.59,3.59c0.24,0.24,0.24,0.63,0,0.87l-2.87,2.87C26.43,30.95,26.28,31.01,26.11,31.01z
	 M23.46,26.86l2.66,2.66l1.99-2l-2.66-2.66c-0.3,0.36-0.62,0.71-0.95,1.05S23.82,26.57,23.46,26.86z"/>
<path class="st2" d="M14.58,26.23c-2.46,0-4.92-0.89-6.88-2.68c-0.13-0.12-0.2-0.28-0.2-0.46v-2.3c0-2.24,1.82-4.07,4.07-4.07h6.04
	c2.24,0,4.07,1.82,4.07,4.07v2.3c0,0.17-0.07,0.34-0.2,0.46C19.5,25.34,17.04,26.23,14.58,26.23z M8.73,22.82
	c3.38,2.91,8.32,2.91,11.71,0V20.8c0-1.56-1.27-2.83-2.83-2.83h-6.04c-1.56,0-2.83,1.27-2.83,2.83V22.82z"/>
<path class="st2" d="M14.58,15.94c-2.03,0-3.69-1.65-3.69-3.69c0-2.03,1.65-3.69,3.69-3.69c2.03,0,3.69,1.65,3.69,3.69
	C18.27,14.28,16.61,15.94,14.58,15.94z M14.58,9.8c-1.35,0-2.45,1.1-2.45,2.45s1.1,2.45,2.45,2.45c1.35,0,2.45-1.1,2.45-2.45
	S15.93,9.8,14.58,9.8z"/>
<path class="st2" d="M10.89,25.48c-0.34,0-0.62-0.28-0.62-0.62v-2.68c0-0.34,0.28-0.62,0.62-0.62c0.34,0,0.62,0.28,0.62,0.62v2.68
	C11.5,25.2,11.23,25.48,10.89,25.48z"/>
<path class="st2" d="M18.28,25.48c-0.34,0-0.62-0.28-0.62-0.62v-2.68c0-0.34,0.28-0.62,0.62-0.62c0.34,0,0.62,0.28,0.62,0.62v2.68
	C18.89,25.2,18.62,25.48,18.28,25.48z"/>
<path class="st1" d="M38.68,38.48h-29c-0.34,0-0.62-0.28-0.62-0.62c0-0.34,0.28-0.62,0.62-0.62h29c0.34,0,0.62,0.28,0.62,0.62
	C39.3,38.2,39.02,38.48,38.68,38.48z"/>
</svg>
