<svg width="52" height="52" viewBox="0 0 52 52" fill="none" xmlns="http://www.w3.org/2000/svg">
<path d="M16.952 35.646C16.913 35.646 16.887 35.646 16.848 35.646C15.795 35.685 14.248 35.23 13.039 32.942C12.428 31.785 12.103 30.407 12.103 28.964V28.834C12.103 27.651 12.727 26.572 13.741 26.013C14.43 25.623 15.535 25.168 16.848 25.168C17.927 25.168 19.071 25.545 20.176 26.26C21.086 26.858 21.632 27.872 21.632 28.964C21.632 30.42 21.307 31.798 20.683 32.968C19.513 35.165 18.031 35.646 16.952 35.646ZM16.835 33.969C17.758 33.969 18.564 33.397 19.214 32.175C19.708 31.252 19.968 30.134 19.968 28.964C19.968 28.431 19.708 27.95 19.279 27.664C18.707 27.287 17.81 26.832 16.848 26.832C15.886 26.832 15.067 27.183 14.547 27.469C14.066 27.742 13.767 28.262 13.767 28.821V28.951C13.767 30.121 14.027 31.226 14.508 32.149C15.145 33.384 15.938 33.969 16.835 33.969Z" fill="white"/>
<path d="M12.506 47.281C12.051 47.281 11.674 46.904 11.674 46.449V40.625C11.674 40.157 12.038 39.793 12.506 39.793C12.961 39.793 13.338 40.17 13.338 40.625V46.449C13.325 46.904 12.961 47.281 12.506 47.281Z" fill="white"/>
<path d="M21.229 47.281C20.774 47.281 20.397 46.904 20.397 46.449V40.625C20.397 40.157 20.761 39.793 21.229 39.793C21.684 39.793 22.061 40.17 22.061 40.625V46.449C22.061 46.904 21.684 47.281 21.229 47.281Z" fill="white"/>
<path d="M26.221 47.2811H7.50101C7.04601 47.2811 6.66901 46.9041 6.66901 46.4491V41.5481C6.66901 38.1681 9.06101 35.3211 12.363 34.7881C12.818 34.7101 13.234 35.0221 13.312 35.4771C13.39 35.9321 13.078 36.3611 12.623 36.4391C10.127 36.8551 8.32001 39.0001 8.32001 41.5481V45.6171H25.389V41.5481C25.389 39.0001 23.582 36.8421 21.086 36.4391C20.631 36.3611 20.332 35.9321 20.397 35.4771C20.475 35.0221 20.891 34.7101 21.346 34.7881C24.648 35.3341 27.04 38.1681 27.04 41.5481V46.4491C27.053 46.9041 26.676 47.2811 26.221 47.2811Z" fill="white"/>
<path d="M26.221 15.3141C25.766 15.3141 25.389 14.9371 25.389 14.4821V8.78806C25.389 8.32006 25.753 7.95605 26.221 7.95605C26.676 7.95605 27.053 8.33306 27.053 8.78806V14.4821C27.053 14.9371 26.676 15.3141 26.221 15.3141Z" fill="white"/>
<path d="M35.165 17.797C34.957 17.797 34.736 17.719 34.58 17.55C34.255 17.225 34.255 16.692 34.58 16.367L37.674 13.234C37.999 12.909 38.519 12.909 38.844 13.234C39.169 13.559 39.169 14.092 38.844 14.417L35.75 17.55C35.581 17.719 35.373 17.797 35.165 17.797Z" fill="white"/>
<path d="M43.238 26.832H37.609C37.154 26.832 36.777 26.455 36.777 26C36.777 25.532 37.141 25.168 37.609 25.168H43.238C43.693 25.168 44.07 25.545 44.07 26C44.07 26.468 43.693 26.832 43.238 26.832Z" fill="white"/>
<path d="M38.259 39.0131C38.051 39.0131 37.83 38.935 37.674 38.766L34.58 35.633C34.255 35.308 34.255 34.775 34.58 34.45C34.905 34.125 35.425 34.125 35.75 34.45L38.844 37.583C39.169 37.908 39.169 38.441 38.844 38.766C38.675 38.935 38.467 39.0131 38.259 39.0131Z" fill="white"/>
<path d="M11.063 26.832H9.20399C8.74899 26.832 8.37199 26.455 8.37199 26C8.37199 25.532 8.73599 25.168 9.20399 25.168H11.063C11.518 25.168 11.895 25.545 11.895 26C11.895 26.468 11.518 26.832 11.063 26.832Z" fill="white"/>
<path d="M17.29 17.797C17.082 17.797 16.861 17.719 16.705 17.55L13.611 14.417C13.286 14.092 13.286 13.559 13.611 13.234C13.936 12.909 14.456 12.909 14.781 13.234L17.875 16.367C18.2 16.692 18.2 17.225 17.875 17.55C17.706 17.719 17.498 17.797 17.29 17.797Z" fill="white"/>
<path d="M17.29 17.797C17.082 17.797 16.861 17.719 16.705 17.55L13.611 14.417C13.286 14.092 13.286 13.559 13.611 13.234C13.936 12.909 14.456 12.909 14.781 13.234L17.875 16.367C18.2 16.692 18.2 17.225 17.875 17.55C17.706 17.719 17.498 17.797 17.29 17.797Z" fill="white"/>
<path d="M26.221 29.3671C24.388 29.3671 22.893 27.8591 22.893 26.0001C22.893 24.1411 24.388 22.6331 26.221 22.6331C28.054 22.6331 29.549 24.1411 29.549 26.0001C29.549 27.8591 28.067 29.3671 26.221 29.3671ZM26.221 24.3101C25.298 24.3101 24.544 25.0641 24.544 26.0001C24.544 26.9361 25.298 27.6901 26.221 27.6901C27.144 27.6901 27.898 26.9361 27.898 26.0001C27.898 25.0641 27.144 24.3101 26.221 24.3101Z" fill="white"/>
<path d="M26.221 51.2331H5.421C4.966 51.2331 4.589 50.8561 4.589 50.4011C4.589 49.9331 4.953 49.5691 5.421 49.5691H26.234C39.078 49.5691 49.517 39.0001 49.517 26.0001C49.517 13.0001 39.065 2.43109 26.234 2.43109C13.39 2.43109 2.938 13.0001 2.938 26.0001C2.938 29.0161 3.497 31.9541 4.589 34.7361C4.758 35.1651 4.55 35.6591 4.121 35.8281C3.692 35.9971 3.211 35.7891 3.042 35.3601C1.872 32.3831 1.274 29.2371 1.274 26.0001C1.274 12.0771 12.467 0.76709 26.221 0.76709C39.975 0.76709 51.168 12.0901 51.168 26.0001C51.168 39.9231 39.975 51.2331 26.221 51.2331Z" fill="white"/>
<path d="M26.221 24.31C25.766 24.31 25.389 23.933 25.389 23.478V17.81C25.389 17.342 25.753 16.978 26.221 16.978C26.676 16.978 27.053 17.355 27.053 17.81V23.465C27.053 23.933 26.676 24.31 26.221 24.31Z" fill="white"/>
<path d="M31.915 26.832H28.73C28.275 26.832 27.898 26.455 27.898 26C27.898 25.532 28.262 25.168 28.73 25.168H31.915C32.37 25.168 32.747 25.545 32.747 26C32.747 26.468 32.37 26.832 31.915 26.832Z" fill="white"/>
<path d="M26.676 47.2809H1.664C1.209 47.2809 0.832001 46.9039 0.832001 46.4489C0.832001 45.9939 1.196 45.6169 1.664 45.6169H26.676C31.564 45.6169 36.127 43.8879 39.52 40.7419C39.741 40.5469 39.949 40.3389 40.157 40.1179C43.953 36.2699 46.007 31.1609 45.929 25.7269C45.851 20.2929 43.654 15.2359 39.728 11.5049C32.318 4.43288 20.605 4.28988 13.039 11.1799C6.89 16.7829 4.849 25.7789 7.969 33.5399C8.138 33.9689 7.943 34.4499 7.514 34.6319C7.085 34.8139 6.604 34.6059 6.435 34.1769C3.042 25.7529 5.265 16.0029 11.947 9.91888C20.137 2.44388 32.851 2.59988 40.872 10.2569C45.123 14.3129 47.502 19.7859 47.58 25.6749C47.671 31.5639 45.448 37.1149 41.327 41.2749C41.106 41.5089 40.872 41.7299 40.638 41.9509C36.933 45.3829 31.98 47.2809 26.676 47.2809Z" fill="white"/>
</svg>

