<svg width="59" height="59" viewBox="0 0 59 59" fill="none" xmlns="http://www.w3.org/2000/svg">
<path d="M35.6065 57.9675H19.3372C17.3312 57.9675 15.694 56.3303 15.694 54.3243V51.861C15.694 49.855 17.3312 48.2178 19.3372 48.2178H25.5617C26.0485 48.2178 26.4467 48.616 26.4467 49.1028C26.4467 49.5895 26.0485 49.9878 25.5617 49.9878H19.3372C18.3195 49.9878 17.4787 50.8138 17.4787 51.8463V54.3095C17.4787 55.3273 18.3047 56.168 19.3372 56.168H35.6212C36.639 56.168 37.4797 55.342 37.4797 54.3095V51.8463C37.4797 50.8285 36.6537 49.9878 35.6212 49.9878H30.503C30.0162 49.9878 29.618 49.5895 29.618 49.1028C29.618 48.616 30.0162 48.2178 30.503 48.2178H35.6212C37.6272 48.2178 39.2645 49.855 39.2645 51.861V54.3243C39.2497 56.3303 37.6125 57.9675 35.6065 57.9675Z" fill="white"/>
<path d="M35.9605 50.0024C35.4737 50.0024 35.0755 49.6042 35.0755 49.1174V32.6269C35.0755 32.1402 35.4737 31.7419 35.9605 31.7419C36.4472 31.7419 36.8455 32.1402 36.8455 32.6269V49.1027C36.8455 49.6042 36.4472 50.0024 35.9605 50.0024Z" fill="white"/>
<path d="M19.1012 50.0025C18.6145 50.0025 18.2162 49.6042 18.2162 49.1175C18.2162 47.5982 17.9655 46.1085 17.4935 44.6778C17.051 43.3798 16.4315 42.1555 15.635 41.0345L9.57274 32.5238C8.54024 31.0783 8.70249 29.1165 9.95624 27.8628C10.6347 27.1843 11.5492 26.8008 12.508 26.8008C13.4815 26.8008 14.3812 27.1843 15.0597 27.8628L17.6115 30.4145V18.349C17.6115 16.6528 18.9832 15.281 20.6795 15.281C22.3757 15.281 23.7475 16.6528 23.7475 18.349V29.4558C23.7475 29.9425 23.3492 30.3408 22.8625 30.3408C22.3757 30.3408 21.9775 29.9425 21.9775 29.4558V18.349C21.9775 17.641 21.4022 17.0658 20.6942 17.0658C19.9862 17.0658 19.411 17.641 19.411 18.349V32.568C19.411 32.922 19.1897 33.2465 18.8652 33.394C18.526 33.5268 18.1425 33.453 17.8917 33.2023L13.8207 29.1313C13.1127 28.4233 11.9475 28.4233 11.2247 29.1313C10.5905 29.7655 10.502 30.7538 11.033 31.4913L17.0952 40.002C17.995 41.2558 18.703 42.6423 19.1897 44.1025C19.7355 45.725 20.0157 47.4065 20.0157 49.1175C20.001 49.6042 19.6027 50.0025 19.1012 50.0025Z" fill="white"/>
<path d="M33.7775 36.8013C32.0813 36.8013 30.7095 35.4296 30.7095 33.7333V28.6593C30.7095 26.9631 32.0813 25.5913 33.7775 25.5913C35.4738 25.5913 36.8455 26.9631 36.8455 28.6593V33.7333C36.8455 35.4296 35.4738 36.8013 33.7775 36.8013ZM33.7775 27.3761C33.0695 27.3761 32.4943 27.9513 32.4943 28.6593V33.7333C32.4943 34.4413 33.0695 35.0166 33.7775 35.0166C34.4855 35.0166 35.0608 34.4413 35.0608 33.7333V28.6593C35.0608 27.9513 34.4855 27.3761 33.7775 27.3761Z" fill="white"/>
<path d="M29.4115 37.7601C27.7153 37.7601 26.3435 36.3883 26.3435 34.6921V27.7006C26.3435 26.0043 27.7153 24.6326 29.4115 24.6326C31.1078 24.6326 32.4795 26.0043 32.4795 27.7006V34.6921C32.4795 36.3883 31.1078 37.7601 29.4115 37.7601ZM29.4115 26.4026C28.7035 26.4026 28.1283 26.9778 28.1283 27.6858V34.6773C28.1283 35.3853 28.7035 35.9606 29.4115 35.9606C30.1195 35.9606 30.6948 35.3853 30.6948 34.6773V27.6858C30.6948 26.9926 30.1195 26.4026 29.4115 26.4026Z" fill="white"/>
<path d="M25.0455 38.2466C23.3492 38.2466 21.9775 36.8749 21.9775 35.1786V27.2284C21.9775 25.5322 23.3492 24.1604 25.0455 24.1604C26.7417 24.1604 28.1135 25.5322 28.1135 27.2284V35.1786C28.1282 36.8601 26.7417 38.2466 25.0455 38.2466ZM25.0455 25.9304C24.3375 25.9304 23.7622 26.5057 23.7622 27.2137V35.1639C23.7622 35.8719 24.3375 36.4471 25.0455 36.4471C25.7535 36.4471 26.3287 35.8719 26.3287 35.1639V27.2137C26.3435 26.5057 25.7535 25.9304 25.0455 25.9304Z" fill="white"/>
<path d="M38.35 53.5574H21.6088C21.122 53.5574 20.7238 53.1591 20.7238 52.6724C20.7238 52.1856 21.122 51.7874 21.6088 51.7874H38.35C38.8368 51.7874 39.235 52.1856 39.235 52.6724C39.2498 53.1591 38.8515 53.5574 38.35 53.5574Z" fill="white"/>
<path d="M39.3235 23.1722C38.8368 23.1722 38.4385 22.7739 38.4385 22.2872V19.7944C38.4385 19.3077 38.8368 18.9094 39.3235 18.9094C39.8103 18.9094 40.2085 19.3077 40.2085 19.7944V22.2872C40.2085 22.7739 39.8103 23.1722 39.3235 23.1722Z" fill="white"/>
<path d="M31.1667 23.1722C30.68 23.1722 30.2818 22.7739 30.2818 22.2872V19.7944C30.2818 19.3077 30.68 18.9094 31.1667 18.9094C31.6535 18.9094 32.0517 19.3077 32.0517 19.7944V22.2872C32.0517 22.7739 31.6535 23.1722 31.1667 23.1722Z" fill="white"/>
<path d="M43.9992 23.1722H26.491C26.0043 23.1722 25.606 22.774 25.606 22.2872V20.6352C25.606 17.4492 27.8923 14.7647 31.034 14.2485C31.5208 14.1747 31.978 14.4992 32.0518 14.986C32.1255 15.4727 31.801 15.93 31.3143 16.0037C29.0428 16.3725 27.3908 18.3195 27.3908 20.6205V21.3727H43.1142V20.6205C43.1142 18.3047 41.4622 16.3725 39.1907 16.0037C38.704 15.93 38.3795 15.4727 38.4532 14.986C38.527 14.4992 38.999 14.1747 39.471 14.2485C42.6127 14.7647 44.899 17.4492 44.899 20.6352V22.2872C44.8843 22.774 44.486 23.1722 43.9992 23.1722Z" fill="white"/>
<path d="M40.0905 29.5589C39.7218 29.5589 39.3825 29.3376 39.2498 28.9689C39.0728 28.5116 39.3088 27.9954 39.7808 27.8184C44.899 25.9304 48.3358 20.9891 48.3358 15.5464C48.3358 8.33361 42.4653 2.46311 35.2525 2.46311C29.1755 2.46311 23.7918 6.77011 22.479 12.6996C22.3758 13.1864 21.889 13.4814 21.417 13.3781C20.9303 13.2749 20.6353 12.7881 20.7385 12.3161C22.243 5.57537 28.3348 0.693115 35.2525 0.693115C43.4535 0.693115 50.1205 7.36011 50.1205 15.5611C50.1205 21.7561 46.2118 27.3611 40.4003 29.5146C40.297 29.5441 40.1938 29.5589 40.0905 29.5589Z" fill="white"/>
<path d="M35.2377 14.6615C32.4942 14.6615 30.267 12.4342 30.267 9.69072C30.267 6.94722 32.4942 4.71997 35.2377 4.71997C37.9812 4.71997 40.2085 6.94722 40.2085 9.69072C40.2085 12.4342 37.9812 14.6615 35.2377 14.6615ZM35.2377 6.48997C33.4825 6.48997 32.0517 7.92072 32.0517 9.67597C32.0517 11.4312 33.4825 12.862 35.2377 12.862C36.993 12.862 38.4237 11.4312 38.4237 9.67597C38.4237 7.92072 37.0077 6.48997 35.2377 6.48997Z" fill="white"/>
<path d="M49.2208 57.9675H13.1275C12.6408 57.9675 12.2425 57.5693 12.2425 57.0825C12.2425 56.5958 12.6408 56.1975 13.1275 56.1975H49.2208C49.7075 56.1975 50.1058 56.5958 50.1058 57.0825C50.1058 57.5693 49.7075 57.9675 49.2208 57.9675Z" fill="white"/>
</svg>
