<?xml version="1.0" encoding="utf-8"?>
<!-- Generator: Adobe Illustrator 24.0.0, SVG Export Plug-In . SVG Version: 6.00 Build 0)  -->
<svg version="1.1" id="Capa_1" xmlns="http://www.w3.org/2000/svg" xmlns:xlink="http://www.w3.org/1999/xlink" x="0px" y="0px"
	 viewBox="0 0 40 40" style="enable-background:new 0 0 40 40;" xml:space="preserve">
<style type="text/css">
	.st0{fill:#97BE13;}
	.st1{fill:#004775;}
	.st2{fill:#0097AC;}
</style>
<path class="st1" d="M19.51,38.99c-4.94,0-9.59-1.93-13.09-5.42c-7.22-7.22-7.22-18.96,0-26.17c5.73-5.73,14.41-7.08,21.59-3.35
	c0.32,0.16,0.44,0.55,0.28,0.87c-0.16,0.32-0.55,0.44-0.87,0.28C20.74,1.73,12.66,2.98,7.33,8.31c-6.71,6.71-6.71,17.64,0,24.35
	c3.25,3.25,7.58,5.04,12.18,5.04c4.6,0,8.92-1.79,12.18-5.04c5.33-5.33,6.58-13.4,3.12-20.09c-0.16-0.32-0.04-0.7,0.28-0.87
	c0.31-0.16,0.7-0.04,0.87,0.28c3.72,7.19,2.37,15.87-3.35,21.59C29.1,37.07,24.45,38.99,19.51,38.99z"/>
<path class="st2" d="M19.51,35.05c-3.73,0-7.46-1.42-10.3-4.26c-2.75-2.75-4.27-6.41-4.27-10.3c0-3.89,1.52-7.55,4.27-10.3
	c4.76-4.76,12.09-5.65,17.84-2.17c0.3,0.18,0.4,0.58,0.22,0.88c-0.18,0.3-0.58,0.4-0.88,0.22c-5.24-3.17-11.93-2.36-16.26,1.98
	c-2.51,2.51-3.89,5.84-3.89,9.39c0,3.55,1.38,6.88,3.89,9.39c5.18,5.18,13.61,5.18,18.78,0c4.34-4.34,5.15-11.02,1.98-16.26
	c-0.18-0.3-0.09-0.7,0.22-0.88c0.3-0.18,0.7-0.09,0.88,0.22c3.48,5.75,2.59,13.08-2.17,17.84C26.97,33.63,23.24,35.05,19.51,35.05z"
	/>
<path class="st1" d="M12.1,13.79c-0.16,0-0.33-0.06-0.45-0.19c-0.25-0.25-0.25-0.66,0-0.91c2.04-2.04,4.74-3.19,7.62-3.24
	c0.36,0.01,0.65,0.28,0.66,0.63c0.01,0.36-0.28,0.65-0.63,0.66c-2.54,0.05-4.93,1.07-6.73,2.86C12.42,13.73,12.26,13.79,12.1,13.79z
	"/>
<path class="st1" d="M9.32,23.59c-0.29,0-0.56-0.2-0.63-0.49c-0.9-3.77,0.2-7.66,2.94-10.4c0.25-0.25,0.66-0.25,0.91,0
	c0.25,0.25,0.25,0.66,0,0.91c-2.42,2.42-3.39,5.86-2.6,9.19c0.08,0.35-0.13,0.69-0.48,0.77C9.42,23.58,9.37,23.59,9.32,23.59z"/>
<path class="st1" d="M19.39,31.6c-2.93-0.02-5.68-1.17-7.75-3.24c-0.25-0.25-0.25-0.66,0-0.91s0.66-0.25,0.91,0
	c1.83,1.83,4.26,2.85,6.85,2.87c0.36,0,0.64,0.29,0.64,0.65C20.03,31.31,19.75,31.6,19.39,31.6z"/>
<path class="st1" d="M26.99,28.4c-0.16,0-0.32-0.06-0.45-0.18c-0.26-0.25-0.26-0.65-0.02-0.91c3.07-3.19,3.62-8.06,1.32-11.85
	c-0.18-0.3-0.09-0.7,0.22-0.88c0.3-0.18,0.7-0.09,0.88,0.22c2.59,4.28,1.98,9.8-1.5,13.4C27.33,28.33,27.16,28.4,26.99,28.4z"/>
<path class="st1" d="M19.51,24.29c-1.02,0-1.97-0.4-2.69-1.11c-0.72-0.72-1.11-1.67-1.11-2.69c0-1.02,0.4-1.97,1.11-2.69
	c0.29-0.29,0.62-0.53,0.99-0.71c0.32-0.16,0.7-0.03,0.86,0.29c0.16,0.32,0.03,0.7-0.29,0.86c-0.24,0.12-0.46,0.28-0.65,0.47
	c-0.48,0.48-0.74,1.11-0.74,1.78c0,0.67,0.26,1.3,0.74,1.78c0.48,0.48,1.11,0.74,1.78,0.74c0.67,0,1.3-0.26,1.78-0.74
	c0.22-0.22,0.4-0.48,0.52-0.77c0.14-0.33,0.52-0.47,0.85-0.33c0.33,0.14,0.47,0.52,0.33,0.85c-0.19,0.43-0.46,0.82-0.79,1.16
	C21.48,23.9,20.52,24.29,19.51,24.29z"/>
<path class="st1" d="M23.5,17.14c-0.16,0-0.33-0.06-0.45-0.19c-0.25-0.25-0.25-0.66,0-0.91L34.4,4.69c0.25-0.25,0.66-0.25,0.91,0
	c0.25,0.25,0.25,0.66,0,0.91L23.95,16.95C23.83,17.08,23.66,17.14,23.5,17.14z"/>
<path class="st1" d="M19.62,21.02c-0.02,0-0.05,0-0.07,0c-0.35-0.04-0.61-0.36-0.57-0.71l0.56-5.02c0.03-0.25,0.19-0.45,0.43-0.54
	c0.23-0.08,0.49-0.02,0.67,0.15l1.29,1.29c0.25,0.25,0.25,0.66,0,0.91c-0.25,0.25-0.66,0.25-0.91,0l-0.34-0.34l-0.41,3.69
	C20.22,20.78,19.94,21.02,19.62,21.02z"/>
<path class="st0" d="M19.51,28.1c-1.95,0-3.9-0.74-5.38-2.23c-1.44-1.44-2.23-3.35-2.23-5.38c0-2.03,0.79-3.95,2.23-5.38
	c1.85-1.85,4.48-2.62,7.04-2.05c0.35,0.08,0.57,0.42,0.49,0.77c-0.08,0.35-0.42,0.57-0.77,0.49c-2.13-0.47-4.32,0.16-5.85,1.7
	c-1.2,1.19-1.85,2.78-1.85,4.47c0,1.69,0.66,3.28,1.85,4.47c2.47,2.47,6.48,2.47,8.95,0c1.53-1.53,2.17-3.72,1.71-5.84
	c-0.08-0.35,0.14-0.69,0.49-0.77c0.35-0.08,0.69,0.14,0.77,0.49c0.56,2.55-0.21,5.18-2.05,7.03C23.41,27.36,21.46,28.1,19.51,28.1z"
	/>
<path class="st1" d="M19.61,21.02c-0.32,0-0.6-0.24-0.64-0.57c-0.04-0.35,0.22-0.67,0.57-0.71l3.69-0.41l-0.34-0.34
	c-0.25-0.25-0.25-0.66,0-0.91c0.25-0.25,0.66-0.25,0.91,0l1.29,1.29c0.17,0.17,0.23,0.43,0.15,0.67c-0.08,0.23-0.29,0.4-0.54,0.43
	l-5.02,0.56C19.66,21.02,19.64,21.02,19.61,21.02z"/>
<path class="st1" d="M32.64,8c-0.29,0-0.56-0.2-0.63-0.5l-0.86-3.86c-0.08-0.35,0.14-0.69,0.49-0.77c0.35-0.08,0.69,0.14,0.77,0.49
	l0.86,3.86c0.08,0.35-0.14,0.69-0.49,0.77C32.73,8,32.68,8,32.64,8z"/>
<path class="st1" d="M34.85,5.78c-0.29,0-0.56-0.2-0.63-0.5l-0.86-3.86c-0.08-0.35,0.14-0.69,0.49-0.77
	c0.35-0.08,0.69,0.14,0.77,0.49L35.48,5c0.08,0.35-0.14,0.69-0.49,0.77C34.95,5.78,34.9,5.78,34.85,5.78z"/>
<path class="st1" d="M36.5,8.86c-0.05,0-0.09,0-0.14-0.02L32.5,7.98c-0.35-0.08-0.57-0.42-0.49-0.77c0.08-0.35,0.42-0.57,0.77-0.49
	l3.86,0.86c0.35,0.08,0.57,0.42,0.49,0.77C37.06,8.65,36.79,8.86,36.5,8.86z"/>
<path class="st1" d="M38.71,6.64c-0.05,0-0.09-0.01-0.14-0.02l-3.86-0.86C34.37,5.69,34.15,5.35,34.23,5
	c0.08-0.35,0.42-0.57,0.77-0.49l3.86,0.86c0.35,0.08,0.57,0.42,0.49,0.77C39.28,6.44,39.01,6.64,38.71,6.64z"/>
</svg>
