<?xml version="1.0" encoding="utf-8"?>
<!-- Generator: Adobe Illustrator 24.0.0, SVG Export Plug-In . SVG Version: 6.00 Build 0)  -->
<svg version="1.1" id="Capa_1" xmlns="http://www.w3.org/2000/svg" xmlns:xlink="http://www.w3.org/1999/xlink" x="0px" y="0px"
	 viewBox="0 0 40 40" style="enable-background:new 0 0 40 40;" xml:space="preserve">
<style type="text/css">
	.st0{fill:#97BE13;}
	.st1{fill:#004775;}
	.st2{fill:#0097AC;}
</style>
<path class="st0" d="M33.75,32.99h-2.53c-0.36,0-0.65-0.29-0.65-0.65c0-0.36,0.29-0.65,0.65-0.65h1.89V7.47L27.63,2H11.61v2.54
	c0,0.36-0.29,0.65-0.65,0.65c-0.36,0-0.65-0.29-0.65-0.65V1.35c0-0.36,0.29-0.65,0.65-0.65H27.9c0.17,0,0.34,0.07,0.46,0.19
	l5.85,5.85c0.12,0.12,0.19,0.29,0.19,0.46v25.15C34.4,32.7,34.11,32.99,33.75,32.99z"/>
<path class="st0" d="M33.75,7.85h-2.99c-0.36,0-0.65-0.29-0.65-0.65c0-0.36,0.29-0.65,0.65-0.65h1.43l-3.64-3.64v1.36
	c0,0.36-0.29,0.65-0.65,0.65s-0.65-0.29-0.65-0.65V1.35c0-0.26,0.16-0.5,0.4-0.6c0.24-0.1,0.52-0.04,0.71,0.14l5.85,5.85
	c0.18,0.19,0.24,0.46,0.14,0.71C34.25,7.69,34.01,7.85,33.75,7.85z"/>
<path class="st1" d="M13.65,34.44c-0.36,0-0.65-0.29-0.65-0.65v-5.64c0-0.36,0.29-0.65,0.65-0.65c0.36,0,0.65,0.29,0.65,0.65v5.64
	C14.29,34.15,14,34.44,13.65,34.44z"/>
<path class="st1" d="M20.94,34.44c-0.36,0-0.65-0.29-0.65-0.65v-5.64c0-0.36,0.29-0.65,0.65-0.65s0.65,0.29,0.65,0.65v5.64
	C21.58,34.15,21.29,34.44,20.94,34.44z"/>
<path class="st2" d="M31.22,36.19h-2.53c-0.36,0-0.65-0.29-0.65-0.65c0-0.36,0.29-0.65,0.65-0.65h1.89V10.66L25.1,5.19H9.07v2.54
	c0,0.36-0.29,0.65-0.65,0.65c-0.36,0-0.65-0.29-0.65-0.65V4.54c0-0.36,0.29-0.65,0.65-0.65h16.94c0.17,0,0.34,0.07,0.46,0.19
	l5.85,5.85c0.12,0.12,0.19,0.29,0.19,0.46v25.15C31.87,35.9,31.58,36.19,31.22,36.19z"/>
<path class="st2" d="M31.22,11.04h-3.01c-0.36,0-0.65-0.29-0.65-0.65c0-0.36,0.29-0.65,0.65-0.65h1.45L26.02,6.1v1.46
	c0,0.36-0.29,0.65-0.65,0.65c-0.36,0-0.65-0.29-0.65-0.65V4.54c0-0.26,0.16-0.5,0.4-0.6c0.24-0.1,0.52-0.04,0.71,0.14l5.85,5.85
	c0.18,0.18,0.24,0.46,0.14,0.71C31.72,10.88,31.48,11.04,31.22,11.04z"/>
<path class="st1" d="M20.94,36.43H19.1c-0.36,0-0.65-0.29-0.65-0.65c0-0.36,0.29-0.65,0.65-0.65h1.19V33.8
	c0-0.36,0.29-0.65,0.65-0.65h1.18c0.31,0,0.57-0.26,0.57-0.57v-5.57c0-0.98-0.8-1.78-1.78-1.78h-0.86l-2.47,1.19
	c-0.18,0.09-0.38,0.09-0.56,0l-2.47-1.19h-0.86c-0.98,0-1.78,0.8-1.78,1.78v5.57c0,0.31,0.25,0.57,0.57,0.57h1.18
	c0.36,0,0.65,0.29,0.65,0.65v1.34h2.21c0.36,0,0.65,0.29,0.65,0.65c0,0.36-0.29,0.65-0.65,0.65h-2.85c-0.36,0-0.65-0.29-0.65-0.65
	v-1.34h-0.53c-1.03,0-1.86-0.84-1.86-1.86v-5.57c0-1.7,1.38-3.08,3.08-3.08h1.01c0.1,0,0.19,0.02,0.28,0.06l2.32,1.12L19.61,24
	c0.09-0.04,0.18-0.06,0.28-0.06h1.01c1.7,0,3.08,1.38,3.08,3.08v5.57c0,1.03-0.84,1.86-1.86,1.86h-0.53v1.34
	C21.58,36.14,21.29,36.43,20.94,36.43z"/>
<path class="st1" d="M17.29,23.4c-1.87,0-3.4-1.52-3.4-3.4c0-1.87,1.52-3.4,3.4-3.4s3.4,1.52,3.4,3.4
	C20.69,21.88,19.17,23.4,17.29,23.4z M17.29,17.9c-1.16,0-2.1,0.94-2.1,2.1c0,1.16,0.94,2.1,2.1,2.1c1.16,0,2.1-0.94,2.1-2.1
	C19.4,18.84,18.45,17.9,17.29,17.9z"/>
<path class="st1" d="M28.69,39.38H5.9c-0.36,0-0.65-0.29-0.65-0.65v-31c0-0.36,0.29-0.65,0.65-0.65h16.94
	c0.17,0,0.34,0.07,0.46,0.19l5.85,5.85c0.12,0.12,0.19,0.29,0.19,0.46v25.15C29.33,39.09,29.04,39.38,28.69,39.38z M6.54,38.08h21.5
	V13.85l-5.47-5.47H6.54V38.08z"/>
<path class="st1" d="M28.69,14.23h-5.85c-0.36,0-0.65-0.29-0.65-0.65V7.73c0-0.26,0.16-0.5,0.4-0.6c0.24-0.1,0.52-0.04,0.71,0.14
	l5.85,5.85c0.19,0.18,0.24,0.46,0.14,0.71C29.19,14.07,28.95,14.23,28.69,14.23z M23.48,12.93h3.64l-3.64-3.64V12.93z"/>
<path class="st1" d="M19.55,11.95H8.73c-0.36,0-0.65-0.29-0.65-0.65c0-0.36,0.29-0.65,0.65-0.65h10.81c0.36,0,0.65,0.29,0.65,0.65
	C20.19,11.66,19.9,11.95,19.55,11.95z"/>
<path class="st1" d="M19.55,14.96H8.73c-0.36,0-0.65-0.29-0.65-0.65c0-0.36,0.29-0.65,0.65-0.65h10.81c0.36,0,0.65,0.29,0.65,0.65
	C20.19,14.67,19.9,14.96,19.55,14.96z"/>
</svg>
