<?xml version="1.0" encoding="utf-8"?>
<!-- Generator: Adobe Illustrator 24.0.0, SVG Export Plug-In . SVG Version: 6.00 Build 0)  -->
<svg version="1.1" id="Capa_1" xmlns="http://www.w3.org/2000/svg" xmlns:xlink="http://www.w3.org/1999/xlink" x="0px" y="0px"
	 viewBox="0 0 40 40" style="enable-background:new 0 0 40 40;" xml:space="preserve">
<style type="text/css">
	.st0{fill:#97BE13;}
	.st1{fill:#004775;}
	.st2{fill:#0097AC;}
</style>
<path class="st1" d="M33.24,39.29H6.95c-0.64,0-1.16-0.52-1.16-1.16V5.17c0-0.64,0.52-1.16,1.16-1.16h5.93
	c0.36,0,0.64,0.29,0.64,0.64c0,0.36-0.29,0.64-0.64,0.64h-5.8V38h26.03V5.3h-5.8c-0.36,0-0.64-0.29-0.64-0.64
	c0-0.36,0.29-0.64,0.64-0.64h5.93c0.64,0,1.16,0.52,1.16,1.16v32.96C34.4,38.77,33.88,39.29,33.24,39.29z"/>
<path class="st1" d="M30.68,36.11H9.51c-0.36,0-0.64-0.29-0.64-0.64V7.61c0-0.36,0.29-0.64,0.64-0.64h3.38
	c0.36,0,0.64,0.29,0.64,0.64c0,0.36-0.29,0.64-0.64,0.64h-2.73v26.57h19.89V8.26h-2.73c-0.36,0-0.64-0.29-0.64-0.64
	c0-0.36,0.29-0.64,0.64-0.64h3.38c0.36,0,0.64,0.29,0.64,0.64v27.85C31.33,35.82,31.04,36.11,30.68,36.11z"/>
<path class="st1" d="M26.56,13.84H13.64c-0.36,0-0.64-0.29-0.64-0.64c0-0.36,0.29-0.64,0.64-0.64h12.92c0.36,0,0.64,0.29,0.64,0.64
	C27.2,13.55,26.91,13.84,26.56,13.84z"/>
<path class="st1" d="M26.56,16.63H13.64c-0.36,0-0.64-0.29-0.64-0.64c0-0.36,0.29-0.64,0.64-0.64h12.92c0.36,0,0.64,0.29,0.64,0.64
	C27.2,16.34,26.91,16.63,26.56,16.63z"/>
<path class="st1" d="M26.56,19.42H13.64c-0.36,0-0.64-0.29-0.64-0.64c0-0.36,0.29-0.64,0.64-0.64h12.92c0.36,0,0.64,0.29,0.64,0.64
	C27.2,19.13,26.91,19.42,26.56,19.42z"/>
<path class="st1" d="M26.56,22.21H13.64c-0.36,0-0.64-0.29-0.64-0.64c0-0.36,0.29-0.64,0.64-0.64h12.92c0.36,0,0.64,0.29,0.64,0.64
	C27.2,21.92,26.91,22.21,26.56,22.21z"/>
<path class="st1" d="M16.76,28.95h-4.09c-0.36,0-0.64-0.29-0.64-0.64c0-0.36,0.29-0.64,0.64-0.64h4.09c0.36,0,0.64,0.29,0.64,0.64
	C17.41,28.67,17.12,28.95,16.76,28.95z"/>
<path class="st1" d="M27.19,32.98h-3.91c-0.36,0-0.64-0.29-0.64-0.64c0-0.36,0.29-0.64,0.64-0.64h3.91c0.36,0,0.64,0.29,0.64,0.64
	C27.84,32.69,27.55,32.98,27.19,32.98z"/>
<path class="st2" d="M28.2,31.54c-0.02,0-0.05,0-0.08,0c-0.94-0.11-1.32-0.46-1.63-0.73c-0.19-0.17-0.33-0.3-0.65-0.41
	c-0.19-0.07-0.51,0.04-0.86,0.3c-0.73,0.55-1.77,0.51-2.47-0.1l-0.22-0.19c-0.27-0.23-0.3-0.64-0.06-0.91
	c0.23-0.27,0.64-0.3,0.91-0.06l0.22,0.19c0.25,0.21,0.61,0.23,0.86,0.04c0.91-0.68,1.62-0.64,2.06-0.49
	c0.56,0.2,0.85,0.46,1.09,0.67c0.24,0.22,0.39,0.35,0.92,0.41c0.35,0.04,0.61,0.36,0.56,0.71C28.8,31.3,28.53,31.54,28.2,31.54z"/>
<path class="st1" d="M18.48,27.68c-0.03,0-0.05,0-0.08,0c-0.91-0.11-1.39-0.61-1.78-1.02c-0.26-0.28-0.47-0.49-0.79-0.59
	c-0.28-0.08-0.51,0.04-0.97,0.34c-0.42,0.27-0.89,0.59-1.5,0.56c-1.14-0.03-1.66-0.97-1.77-1.47c-0.08-0.35,0.14-0.69,0.49-0.77
	c0.34-0.08,0.69,0.14,0.77,0.48c0.03,0.11,0.15,0.46,0.55,0.47c0.21-0.01,0.47-0.16,0.77-0.36c0.49-0.32,1.17-0.76,2.05-0.5
	c0.64,0.2,1.03,0.61,1.35,0.94c0.35,0.37,0.57,0.58,1,0.63c0.35,0.04,0.6,0.36,0.56,0.72C19.08,27.44,18.8,27.68,18.48,27.68z"/>
<path class="st1" d="M22.18,5.12h-4.16c-1.22,0-2.21-0.99-2.21-2.21S16.8,0.7,18.02,0.7h4.16c1.22,0,2.21,0.99,2.21,2.21
	S23.4,5.12,22.18,5.12z M18.02,1.99c-0.51,0-0.92,0.41-0.92,0.92s0.41,0.92,0.92,0.92h4.16c0.51,0,0.92-0.41,0.92-0.92
	s-0.41-0.92-0.92-0.92H18.02z"/>
<path class="st0" d="M26.28,8.96H13.92c-0.92,0-1.67-0.75-1.67-1.67V3.94c0-0.92,0.75-1.67,1.67-1.67h2.53
	c0.36,0,0.64,0.29,0.64,0.64c0,0.51,0.41,0.92,0.92,0.92h4.16c0.51,0,0.92-0.41,0.92-0.92c0-0.36,0.29-0.64,0.64-0.64h2.53
	c0.92,0,1.67,0.75,1.67,1.67v3.35C27.95,8.21,27.2,8.96,26.28,8.96z M13.92,3.56c-0.21,0-0.39,0.17-0.39,0.39v3.35
	c0,0.21,0.17,0.39,0.39,0.39h12.36c0.21,0,0.39-0.17,0.39-0.39V3.94c0-0.21-0.17-0.39-0.39-0.39h-1.98
	c-0.28,0.91-1.12,1.57-2.11,1.57h-4.16c-0.99,0-1.84-0.66-2.11-1.57H13.92z"/>
</svg>
