<?xml version="1.0" encoding="utf-8"?>
<!-- Generator: Adobe Illustrator 24.0.0, SVG Export Plug-In . SVG Version: 6.00 Build 0)  -->
<svg version="1.1" id="Capa_1" xmlns="http://www.w3.org/2000/svg" xmlns:xlink="http://www.w3.org/1999/xlink" x="0px" y="0px"
	 viewBox="0 0 40 40" style="enable-background:new 0 0 40 40;" xml:space="preserve">
<style type="text/css">
	.st0{fill:#97BE13;}
	.st1{fill:#004775;}
	.st2{fill:#0097AC;}
</style>
<path class="st1" d="M35.26,27.91H4.7c-1.14,0-2.07-0.93-2.07-2.07V6.48c0-1.14,0.93-2.07,2.07-2.07h30.57
	c1.14,0,2.07,0.93,2.07,2.07v19.36C37.34,26.98,36.41,27.91,35.26,27.91z M4.7,5.63c-0.47,0-0.85,0.38-0.85,0.85v19.36
	c0,0.47,0.38,0.85,0.85,0.85h30.57c0.47,0,0.85-0.38,0.85-0.85V6.48c0-0.47-0.38-0.85-0.85-0.85H4.7z"/>
<path class="st1" d="M33.18,24.78H6.78c-0.61,0-1.11-0.5-1.11-1.11V8.65c0-0.61,0.5-1.11,1.11-1.11h26.4c0.61,0,1.11,0.5,1.11,1.11
	v15.02C34.29,24.28,33.79,24.78,33.18,24.78z M6.89,23.56h26.19V8.76H6.89V23.56z"/>
<path class="st1" d="M36.85,36.01H3.11c-1.41,0-2.56-1.15-2.56-2.56v-1.4c0-0.34,0.27-0.61,0.61-0.61H38.8
	c0.34,0,0.61,0.27,0.61,0.61v1.4C39.41,34.87,38.26,36.01,36.85,36.01z M1.77,32.66v0.79c0,0.74,0.6,1.34,1.34,1.34h33.74
	c0.74,0,1.34-0.6,1.34-1.34v-0.79H1.77z"/>
<path class="st1" d="M1.16,32.66c-0.06,0-0.12-0.01-0.18-0.03c-0.32-0.1-0.5-0.44-0.4-0.76l0.91-2.92c0.1-0.32,0.44-0.5,0.76-0.4
	c0.32,0.1,0.5,0.44,0.4,0.76l-0.91,2.92C1.66,32.5,1.42,32.66,1.16,32.66z"/>
<path class="st1" d="M38.8,32.66c-0.26,0-0.5-0.17-0.58-0.43l-0.91-2.92c-0.1-0.32,0.08-0.66,0.4-0.76c0.32-0.1,0.66,0.08,0.76,0.4
	l0.91,2.92c0.1,0.32-0.08,0.66-0.4,0.76C38.92,32.65,38.86,32.66,38.8,32.66z"/>
<path class="st1" d="M26.56,30.47H5.24c-0.34,0-0.61-0.27-0.61-0.61c0-0.34,0.27-0.61,0.61-0.61h21.31c0.34,0,0.61,0.27,0.61,0.61
	C27.17,30.2,26.89,30.47,26.56,30.47z"/>
<path class="st2" d="M10.08,21.66c-0.92,0-1.66-0.74-1.66-1.66c0-0.92,0.74-1.66,1.66-1.66s1.66,0.74,1.66,1.66
	C11.74,20.91,11,21.66,10.08,21.66z M10.08,19.56c-0.24,0-0.44,0.2-0.44,0.44c0,0.24,0.2,0.44,0.44,0.44c0.24,0,0.44-0.2,0.44-0.44
	C10.52,19.75,10.32,19.56,10.08,19.56z"/>
<path class="st2" d="M16.01,16.36c-0.92,0-1.66-0.74-1.66-1.66c0-0.92,0.74-1.66,1.66-1.66c0.92,0,1.66,0.74,1.66,1.66
	C17.67,15.61,16.92,16.36,16.01,16.36z M16.01,14.26c-0.24,0-0.44,0.2-0.44,0.44c0,0.24,0.2,0.44,0.44,0.44
	c0.24,0,0.44-0.2,0.44-0.44C16.45,14.46,16.25,14.26,16.01,14.26z"/>
<path class="st2" d="M23.05,20.42c-0.92,0-1.66-0.74-1.66-1.66c0-0.92,0.74-1.66,1.66-1.66c0.92,0,1.66,0.74,1.66,1.66
	C24.71,19.68,23.97,20.42,23.05,20.42z M23.05,18.32c-0.24,0-0.44,0.2-0.44,0.44c0,0.24,0.2,0.44,0.44,0.44
	c0.24,0,0.44-0.2,0.44-0.44C23.49,18.52,23.3,18.32,23.05,18.32z"/>
<path class="st2" d="M28.6,15.17c-0.92,0-1.66-0.74-1.66-1.66s0.74-1.66,1.66-1.66c0.92,0,1.66,0.74,1.66,1.66
	S29.51,15.17,28.6,15.17z M28.6,13.07c-0.24,0-0.44,0.2-0.44,0.44c0,0.24,0.2,0.44,0.44,0.44c0.24,0,0.44-0.2,0.44-0.44
	C29.04,13.27,28.84,13.07,28.6,13.07z"/>
<path class="st2" d="M10.85,19.9c-0.16,0-0.33-0.07-0.45-0.2c-0.23-0.25-0.21-0.63,0.04-0.86l4.32-3.96
	c0.25-0.23,0.63-0.21,0.86,0.04c0.23,0.25,0.21,0.63-0.04,0.86l-4.32,3.96C11.15,19.84,11,19.9,10.85,19.9z"/>
<path class="st2" d="M22,19.17c-0.13,0-0.26-0.04-0.37-0.13l-4.94-3.87c-0.26-0.21-0.31-0.59-0.1-0.85c0.21-0.27,0.59-0.31,0.85-0.1
	l4.94,3.87c0.26,0.21,0.31,0.59,0.1,0.85C22.36,19.09,22.18,19.17,22,19.17z"/>
<path class="st2" d="M24.1,19.37c-0.14,0-0.28-0.05-0.39-0.14c-0.26-0.22-0.29-0.6-0.08-0.86l3.75-4.51
	c0.22-0.26,0.6-0.29,0.86-0.08c0.26,0.22,0.29,0.6,0.08,0.86l-3.75,4.51C24.45,19.3,24.28,19.37,24.1,19.37z"/>
<path class="st1" d="M21.3,11.07H8.39c-0.34,0-0.61-0.27-0.61-0.61c0-0.34,0.27-0.61,0.61-0.61H21.3c0.34,0,0.61,0.27,0.61,0.61
	C21.91,10.79,21.64,11.07,21.3,11.07z"/>
</svg>
