<?xml version="1.0" encoding="utf-8"?>
<!-- Generator: Adobe Illustrator 24.0.0, SVG Export Plug-In . SVG Version: 6.00 Build 0)  -->
<svg version="1.1" id="Capa_1" xmlns="http://www.w3.org/2000/svg" xmlns:xlink="http://www.w3.org/1999/xlink" x="0px" y="0px"
	 viewBox="0 0 40 40" style="enable-background:new 0 0 40 40;" xml:space="preserve">
<style type="text/css">
	.st0{fill:#97BE13;}
	.st1{fill:#004775;}
	.st2{fill:#0097AC;}
</style>
<path class="st2" d="M14.05,17.98c-0.34,0-0.61-0.27-0.61-0.61v-1.72c0-0.34,0.27-0.61,0.61-0.61c0.34,0,0.61,0.27,0.61,0.61v1.72
	C14.66,17.7,14.39,17.98,14.05,17.98z"/>
<path class="st2" d="M19.67,17.98c-0.34,0-0.61-0.27-0.61-0.61v-1.72c0-0.34,0.27-0.61,0.61-0.61c0.34,0,0.61,0.27,0.61,0.61v1.72
	C20.28,17.7,20.01,17.98,19.67,17.98z"/>
<path class="st2" d="M22.89,17.98H10.83c-0.34,0-0.61-0.27-0.61-0.61v-1.13c0-2.2,1.57-4.04,3.73-4.4c0.34-0.06,0.65,0.17,0.71,0.51
	c0.05,0.33-0.17,0.65-0.51,0.7c-1.57,0.26-2.7,1.59-2.7,3.18v0.52h10.83v-0.52c0-1.59-1.14-2.93-2.7-3.18
	c-0.33-0.05-0.56-0.37-0.51-0.7c0.05-0.33,0.37-0.56,0.7-0.51c2.16,0.35,3.73,2.2,3.73,4.4v1.13C23.5,17.7,23.23,17.98,22.89,17.98z
	"/>
<path class="st1" d="M15.87,22.92c-0.02,0-0.04,0-0.06,0c-5.24-0.53-9.19-4.91-9.19-10.19c0-5.65,4.59-10.24,10.24-10.24
	c5.65,0,10.24,4.59,10.24,10.24c0,1.39-0.28,2.75-0.82,4.02c-0.13,0.31-0.49,0.46-0.81,0.32c-0.31-0.13-0.46-0.49-0.32-0.81
	c0.48-1.12,0.72-2.31,0.72-3.53c0-4.97-4.04-9.01-9.01-9.01c-4.97,0-9.01,4.04-9.01,9.01c0,4.64,3.48,8.5,8.09,8.97
	c0.34,0.03,0.58,0.34,0.55,0.67C16.45,22.68,16.19,22.92,15.87,22.92z"/>
<path class="st1" d="M27.77,7.33c-0.22,0-0.43-0.11-0.54-0.32c-1.15-2.08-2.88-3.76-5-4.84c-0.3-0.15-0.42-0.52-0.27-0.83
	c0.15-0.3,0.52-0.42,0.83-0.27c2.34,1.19,4.25,3.04,5.52,5.34c0.16,0.3,0.06,0.67-0.24,0.83C27.98,7.31,27.87,7.33,27.77,7.33z"/>
<path class="st1" d="M5.66,18.83c-0.23,0-0.45-0.13-0.55-0.34c-0.88-1.8-1.33-3.74-1.33-5.75c0-2.57,0.75-5.06,2.16-7.2
	c0.19-0.28,0.57-0.36,0.85-0.17c0.28,0.19,0.36,0.57,0.17,0.85c-1.28,1.94-1.96,4.19-1.96,6.53c0,1.83,0.41,3.58,1.21,5.21
	c0.15,0.3,0.02,0.67-0.28,0.82C5.85,18.81,5.75,18.83,5.66,18.83z"/>
<path class="st2" d="M16.86,12.11c-1.89,0-3.43-1.54-3.43-3.43s1.54-3.43,3.43-3.43c1.89,0,3.43,1.54,3.43,3.43
	S18.75,12.11,16.86,12.11z M16.86,6.49c-1.21,0-2.2,0.99-2.2,2.2s0.99,2.2,2.2,2.2c1.21,0,2.2-0.99,2.2-2.2S18.07,6.49,16.86,6.49z"
	/>
<path class="st0" d="M23.21,34.19c-0.34,0-0.61-0.27-0.61-0.61v-1.72c0-0.34,0.27-0.61,0.61-0.61c0.34,0,0.61,0.27,0.61,0.61v1.72
	C23.82,33.92,23.55,34.19,23.21,34.19z"/>
<path class="st0" d="M28.83,34.19c-0.34,0-0.61-0.27-0.61-0.61v-1.72c0-0.34,0.27-0.61,0.61-0.61c0.34,0,0.61,0.27,0.61,0.61v1.72
	C29.44,33.92,29.17,34.19,28.83,34.19z"/>
<path class="st0" d="M32.05,34.19H19.99c-0.34,0-0.61-0.27-0.61-0.61v-1.13c0-2.2,1.57-4.04,3.73-4.4c0.34-0.06,0.65,0.17,0.7,0.51
	c0.05,0.33-0.17,0.65-0.51,0.7c-1.57,0.26-2.7,1.59-2.7,3.18v0.52h10.83v-0.52c0-1.59-1.14-2.93-2.7-3.18
	c-0.33-0.05-0.56-0.37-0.51-0.7c0.05-0.33,0.37-0.56,0.7-0.51c2.16,0.35,3.73,2.2,3.73,4.4v1.13
	C32.66,33.92,32.39,34.19,32.05,34.19z"/>
<path class="st1" d="M26.02,39.18c-5.65,0-10.24-4.59-10.24-10.24c0-5.65,4.59-10.24,10.24-10.24s10.24,4.59,10.24,10.24
	C36.26,34.59,31.66,39.18,26.02,39.18z M26.02,19.93c-4.97,0-9.01,4.04-9.01,9.01c0,4.97,4.04,9.01,9.01,9.01s9.01-4.04,9.01-9.01
	C35.03,23.97,30.99,19.93,26.02,19.93z"/>
<path class="st1" d="M13.38,31.26c-0.3,0-0.57-0.22-0.61-0.53c-0.08-0.59-0.12-1.19-0.12-1.79c0-1.58,0.27-3.13,0.82-4.61
	c0.12-0.32,0.47-0.48,0.79-0.36c0.32,0.12,0.48,0.47,0.36,0.79c-0.49,1.34-0.74,2.75-0.74,4.18c0,0.54,0.04,1.09,0.11,1.62
	c0.04,0.34-0.19,0.64-0.53,0.69C13.43,31.26,13.41,31.26,13.38,31.26z"/>
<path class="st1" d="M32.92,18.83c-0.11,0-0.23-0.03-0.33-0.1c-1.37-0.89-2.88-1.48-4.49-1.75c-0.33-0.06-0.56-0.38-0.5-0.71
	c0.06-0.33,0.38-0.56,0.71-0.5c1.77,0.31,3.43,0.96,4.95,1.93c0.28,0.18,0.37,0.56,0.18,0.85C33.32,18.73,33.12,18.83,32.92,18.83z"
	/>
<path class="st0" d="M26.02,28.32c-1.89,0-3.43-1.54-3.43-3.43s1.54-3.43,3.43-3.43c1.89,0,3.43,1.54,3.43,3.43
	S27.91,28.32,26.02,28.32z M26.02,22.7c-1.21,0-2.2,0.99-2.2,2.2s0.99,2.2,2.2,2.2s2.2-0.99,2.2-2.2S27.23,22.7,26.02,22.7z"/>
<path class="st1" d="M13.55,33.37H7.23c-0.34,0-0.61-0.27-0.61-0.61V20.84c0-0.34,0.27-0.61,0.61-0.61c0.34,0,0.61,0.27,0.61,0.61
	v11.31h5.71c0.34,0,0.61,0.27,0.61,0.61C14.17,33.1,13.89,33.37,13.55,33.37z"/>
<path class="st1" d="M35.64,21.42c-0.34,0-0.61-0.27-0.61-0.61V9.5h-5.71c-0.34,0-0.61-0.27-0.61-0.61c0-0.34,0.27-0.61,0.61-0.61
	h6.32c0.34,0,0.61,0.27,0.61,0.61v11.92C36.26,21.15,35.98,21.42,35.64,21.42z"/>
</svg>
