<svg width="56" height="56" viewBox="0 0 56 56" fill="none" xmlns="http://www.w3.org/2000/svg">
<path d="M20.412 36.7081C16.744 36.7081 13.076 35.3081 10.276 32.5221C7.574 29.8201 6.076 26.2221 6.076 22.3861C6.076 18.5641 7.56 14.9661 10.276 12.25C12.978 9.54805 16.576 8.05005 20.412 8.05005C24.234 8.05005 27.832 9.53405 30.548 12.25C33.25 14.9521 34.748 18.5501 34.748 22.3861C34.748 26.2081 33.264 29.8061 30.548 32.5221C27.748 35.3221 24.08 36.7081 20.412 36.7081ZM20.412 9.78605C17.052 9.78605 13.888 11.102 11.508 13.4821C9.128 15.8621 7.812 19.0261 7.812 22.3861C7.812 25.7461 9.128 28.9101 11.508 31.2901C16.422 36.2041 24.416 36.2041 29.33 31.2901C31.71 28.9101 33.026 25.7461 33.026 22.3861C33.026 19.0261 31.71 15.8621 29.33 13.4821C26.95 11.102 23.786 9.78605 20.412 9.78605Z" fill="white"/>
<path d="M46.802 53.858C45.5 53.858 44.198 53.368 43.204 52.374L35.938 45.108C35.07 44.24 35.07 42.812 35.938 41.93L39.956 37.912C40.824 37.044 42.252 37.044 43.134 37.912L50.4 45.192C52.374 47.166 52.374 50.4 50.4 52.374C49.406 53.368 48.104 53.858 46.802 53.858ZM37.17 43.89L44.436 51.156C45.066 51.786 45.906 52.136 46.802 52.136C47.698 52.136 48.538 51.786 49.168 51.156C49.798 50.526 50.148 49.686 50.148 48.79C50.148 47.894 49.798 47.054 49.168 46.424L41.902 39.158C41.706 38.962 41.37 38.962 41.174 39.158L37.156 43.176C36.974 43.358 36.974 43.694 37.17 43.89Z" fill="white"/>
<path d="M20.412 42.0281C15.386 42.0281 10.346 40.1101 6.524 36.2881C-1.134 28.6301 -1.134 16.1701 6.524 8.51205C14.182 0.854055 26.642 0.854055 34.3 8.51205C41.958 16.1701 41.958 28.6301 34.3 36.2881C30.478 40.1101 25.438 42.0281 20.412 42.0281ZM20.412 4.48005C15.82 4.48005 11.242 6.23006 7.742 9.71606C0.756003 16.7021 0.756003 28.0701 7.742 35.0561C14.728 42.0421 26.096 42.0421 33.082 35.0561C40.068 28.0701 40.068 16.7021 33.082 9.71606C29.596 6.23006 25.004 4.48005 20.412 4.48005Z" fill="white"/>
<path d="M36.554 43.414C36.33 43.414 36.106 43.316 35.938 43.162L30.912 38.136C30.73 37.954 30.646 37.716 30.66 37.464C30.674 37.212 30.8 36.988 31.01 36.834C31.738 36.302 32.424 35.7 33.068 35.07C33.712 34.426 34.3 33.74 34.832 33.012C34.986 32.816 35.21 32.676 35.462 32.662C35.714 32.634 35.952 32.732 36.134 32.914L41.16 37.94C41.496 38.276 41.496 38.822 41.16 39.158L37.142 43.176C37.002 43.33 36.792 43.414 36.554 43.414ZM32.844 37.604L36.568 41.328L39.354 38.528L35.63 34.804C35.21 35.308 34.762 35.798 34.3 36.274C33.838 36.75 33.348 37.198 32.844 37.604Z" fill="white"/>
<path d="M20.412 36.722C16.968 36.722 13.524 35.476 10.78 32.97C10.598 32.802 10.5 32.578 10.5 32.326V29.106C10.5 25.97 13.048 23.408 16.198 23.408H24.654C27.79 23.408 30.352 25.956 30.352 29.106V32.326C30.352 32.564 30.254 32.802 30.072 32.97C27.3 35.476 23.856 36.722 20.412 36.722ZM12.222 31.948C16.954 36.022 23.87 36.022 28.616 31.948V29.12C28.616 26.936 26.838 25.158 24.654 25.158H16.198C14.014 25.158 12.236 26.936 12.236 29.12V31.948H12.222Z" fill="white"/>
<path d="M20.412 22.3161C17.57 22.3161 15.246 20.0061 15.246 17.1501C15.246 14.3081 17.556 11.9841 20.412 11.9841C23.254 11.9841 25.578 14.2941 25.578 17.1501C25.578 19.9921 23.254 22.3161 20.412 22.3161ZM20.412 13.7201C18.522 13.7201 16.982 15.2601 16.982 17.1501C16.982 19.0401 18.522 20.5801 20.412 20.5801C22.302 20.5801 23.842 19.0401 23.842 17.1501C23.842 15.2601 22.302 13.7201 20.412 13.7201Z" fill="white"/>
<path d="M15.246 35.6721C14.77 35.6721 14.378 35.2801 14.378 34.8041V31.0521C14.378 30.5761 14.77 30.1841 15.246 30.1841C15.722 30.1841 16.114 30.5761 16.114 31.0521V34.8041C16.1 35.2801 15.722 35.6721 15.246 35.6721Z" fill="white"/>
<path d="M25.592 35.6721C25.116 35.6721 24.724 35.2801 24.724 34.8041V31.0521C24.724 30.5761 25.116 30.1841 25.592 30.1841C26.068 30.1841 26.46 30.5761 26.46 31.0521V34.8041C26.446 35.2801 26.068 35.6721 25.592 35.6721Z" fill="white"/>
<path d="M54.152 53.872H13.552C13.076 53.872 12.684 53.48 12.684 53.004C12.684 52.528 13.076 52.136 13.552 52.136H54.152C54.628 52.136 55.02 52.528 55.02 53.004C55.02 53.48 54.628 53.872 54.152 53.872Z" fill="white"/>
</svg>

