<svg width="66" height="77" viewBox="0 0 66 77" fill="none" xmlns="http://www.w3.org/2000/svg">
<path d="M9.98884 62.0992C9.98884 62.0992 9.01764 68.848 9.98884 70.8096C9.98884 70.8096 11.5708 67.4207 14.0248 68.594C14.0248 68.594 14.3357 71.341 19.1943 73.7719C19.1943 73.7719 17.0313 68.6037 19.1311 68.1578C19.1311 68.1578 21.1776 75.5982 24.8394 71.7648C24.8394 71.7648 28.3799 74.4207 28.4963 76.0924C28.4963 76.0924 32.1829 72.7477 33.252 73.188C33.252 73.188 33.7773 75.6631 34.3867 76.0924C34.3867 76.0924 35.0916 72.005 36.375 72.6027C36.375 72.6027 39.1313 72.8333 39.6194 74.3614C39.6194 74.3614 42.0338 71.8587 42.0288 70.3126C42.0288 70.3126 43.8932 72.7711 43.2787 73.7733C43.2787 73.7733 45.988 70.0158 47.7916 69.6776C47.7916 69.6776 49.8926 69.8129 50.6421 71.6502C50.6421 71.6502 51.9379 65.9878 54.7462 65.1609C54.7462 65.1609 57.6425 64.098 59.7162 66.4337C59.7162 66.4337 57.8902 57.9151 62.2792 58.1332H62.2805C62.2805 58.1332 62.2792 58.1332 62.2792 58.1319C62.2669 58.1222 62.257 58.1139 62.2446 58.1043C62.0253 57.9138 61.8159 57.7384 61.6128 57.57C61.5583 57.5259 61.5062 57.4831 61.4555 57.4417C61.261 57.2843 61.0727 57.1352 60.893 56.9958C60.8794 56.9861 60.8658 56.9737 60.8546 56.964C60.6589 56.8163 60.4756 56.6811 60.3009 56.5541C60.26 56.5237 60.2192 56.4947 60.1783 56.4671C60.0358 56.3636 59.8995 56.2683 59.7719 56.1813C59.7459 56.1648 59.7199 56.1441 59.6939 56.1275C59.5477 56.0281 59.4102 55.9384 59.2863 55.8597C59.2579 55.8418 59.2318 55.8252 59.2046 55.8073C59.108 55.7465 59.0175 55.6899 58.9358 55.6416C58.9135 55.6278 58.8875 55.6126 58.8664 55.5988C58.7735 55.545 58.6917 55.498 58.6248 55.4594C58.6112 55.4525 58.6013 55.4483 58.5889 55.4401C58.5356 55.4111 58.491 55.3862 58.4564 55.3683C58.4464 55.3628 58.4341 55.3559 58.4266 55.3517C58.4018 55.3393 58.3783 55.3269 58.3734 55.3255C58.2346 55.2578 58.1516 55.0963 58.1714 54.9279C58.1888 54.7609 58.3065 54.627 58.4551 54.5994L61.1681 54.1052L59.6989 53.6248C59.5552 53.5779 59.4548 53.4316 59.4536 53.2631C59.4499 53.0961 59.5465 52.9484 59.6889 52.8946L64.2303 51.2353C60.5078 48.5076 59.3892 46.6786 59.3408 46.5985C59.2789 46.4964 59.2665 46.3708 59.3037 46.2548C59.3409 46.1402 59.4263 46.0533 59.5304 46.0201C61.3229 45.4486 63.7559 43.632 64.7704 42.8355C62.2161 41.4027 60.13 38.3575 60.037 38.2194C59.9776 38.1338 59.9553 38.022 59.9726 37.9157C59.9924 37.8094 60.0507 37.717 60.1349 37.6617L64.9798 34.4564C61.6475 33.0291 57.6982 29.3834 57.5211 29.2178C57.4418 29.1446 57.3972 29.0342 57.3984 28.9168C57.3997 28.8023 57.448 28.6932 57.5297 28.6228L63.4747 23.4614C61.785 23.1578 57.9584 22.1404 55.8376 18.9392C53.2522 15.034 48.608 11.6217 48.5609 11.5885C48.4717 11.5236 48.4148 11.4146 48.4073 11.2945C48.3986 11.1744 48.4432 11.0584 48.5238 10.9811C49.936 9.61729 51.3445 9.05408 52.3677 8.82632C48.3986 7.38655 42.3781 7.07319 42.31 7.06905C42.201 7.06353 42.1019 7.00141 42.04 6.89788C41.9805 6.79849 41.9669 6.67011 42.004 6.55692C42.8229 4.04871 44.442 2.27902 45.6783 1.22439C39.5587 2.96371 35.0321 6.39127 34.9814 6.42992C34.9046 6.4879 34.8092 6.51137 34.7163 6.4879C34.6233 6.46581 34.5441 6.40369 34.4945 6.31259C32.816 3.21632 29.1752 1.35691 27.146 0.521759C29.6211 3.41786 30.3731 6.44511 30.4078 6.58867C30.4412 6.72257 30.4053 6.86613 30.3148 6.96276C30.2257 7.05939 30.0943 7.09252 29.9779 7.05387C23.0556 4.70441 15.4717 7.80619 12.5507 9.2363C15.6575 9.61039 17.5368 11.3718 17.6247 11.4574C17.7251 11.5526 17.7672 11.7031 17.7337 11.8453C17.699 11.9875 17.5962 12.0951 17.4662 12.1227C13.0016 13.0766 10.4447 15.8043 9.41281 17.1668C11.0938 16.8852 12.3215 17.378 12.3822 17.4014C12.4974 17.4484 12.5829 17.5616 12.6027 17.6968C12.6237 17.8321 12.5767 17.9688 12.4813 18.0557C10.8201 19.5701 5.43259 22.0217 3.88906 22.7077L7.57569 28.5138C7.67603 28.6725 7.65497 28.8878 7.52738 29.0176C6.68253 29.8735 2.73823 31.8806 1.5812 32.459C3.10491 36.1157 6.20064 37.6258 6.23161 37.641C6.31832 37.6811 6.38645 37.7598 6.41866 37.8578C6.44963 37.9558 6.44715 38.0634 6.40504 38.1587C5.10679 41.1362 1.72119 43.3408 0.465057 44.082C3.40717 46.6441 7.03186 46.0187 7.06903 46.0118C7.19167 45.9884 7.32174 46.045 7.39854 46.1582C7.47535 46.2714 7.48774 46.4218 7.43447 46.5502C6.34681 49.1274 3.38983 52.1036 2.07176 53.3501L7.50012 53.9299C7.64258 53.9451 7.76027 54.0569 7.79867 54.2115C7.8346 54.3647 7.78257 54.5276 7.66488 54.6201L5.13156 56.6245L7.6847 56.9792C7.82221 56.9985 7.93494 57.1076 7.9721 57.2567C8.00926 57.4044 7.96343 57.5645 7.85318 57.6584C7.08265 58.332 6.19692 58.909 5.26411 59.4115C6.64908 59.8781 9.04861 60.832 9.98884 62.0992Z" fill="white"/>
<path d="M28.4963 76.6106C28.4344 76.6106 28.3712 76.5968 28.3117 76.5678C28.1519 76.4919 28.0441 76.3235 28.0305 76.1303C27.9636 75.1723 26.1686 73.444 24.8741 72.4225C23.9636 73.2604 23.0518 73.553 22.1599 73.288C20.3773 72.7607 19.2773 70.0896 18.8672 68.8886C18.8449 68.9218 18.8239 68.9563 18.8065 68.9963C18.389 69.906 19.0815 72.272 19.6167 73.5503C19.6984 73.7477 19.6638 73.981 19.5263 74.1356C19.3887 74.2902 19.1806 74.3343 19.0022 74.2446C14.8758 72.1795 13.8687 69.8328 13.6321 68.9825C11.7219 68.2951 10.4583 70.9316 10.4038 71.049C10.3233 71.2188 10.1672 71.3264 9.99503 71.3278C9.84638 71.3513 9.66427 71.227 9.58127 71.06C8.63732 69.155 9.30874 63.6376 9.49456 62.264C8.78226 61.4606 7.21272 60.6117 5.13032 59.9104C4.94574 59.8483 4.81443 59.6675 4.79956 59.4535C4.78346 59.2396 4.88752 59.038 5.06095 58.9442C5.92686 58.4776 6.68623 57.9779 7.32421 57.4547L5.07457 57.1427C4.88256 57.1165 4.72647 56.9619 4.6794 56.7534C4.63233 56.545 4.70417 56.3269 4.8615 56.2027L7.126 54.4095L2.02964 53.8643C1.84258 53.8449 1.68525 53.7014 1.62827 53.5026C1.57252 53.3024 1.62951 53.0857 1.77197 52.949C2.95996 51.8254 5.78068 49.0052 6.91293 46.5536C6.02224 46.6544 2.85838 46.82 0.180129 44.4885C0.0550114 44.3795 -0.0118834 44.2083 0.00174328 44.033C0.0153699 43.8577 0.108279 43.7017 0.248262 43.6188C1.54775 42.8527 4.66949 40.7931 5.93181 38.053C5.30746 37.7162 2.58213 36.0859 1.16001 32.6736C1.10674 32.548 1.10179 32.403 1.14514 32.2733C1.1885 32.1435 1.27769 32.0372 1.39166 31.9806C3.70076 30.8252 6.36786 29.3841 7.13096 28.7077L3.50999 23.0052C3.42699 22.874 3.40345 22.7098 3.44309 22.5565C3.48397 22.4047 3.58555 22.2805 3.7181 22.2211C6.82993 20.8379 10.5587 18.9868 11.9994 17.8121C11.5832 17.6892 10.6503 17.4849 9.48465 17.6796C9.28768 17.7072 9.10186 17.6064 9.00772 17.4187C8.91233 17.2295 8.93339 16.9949 9.05851 16.8292C10.1982 15.326 12.7439 12.6852 17.1131 11.6693C16.5532 11.2137 14.9105 10.0431 12.5036 9.75187C12.293 9.72702 12.1245 9.54756 12.0923 9.31427C12.0601 9.08099 12.1728 8.85322 12.3661 8.75797C15.3193 7.31268 22.8933 4.22332 29.8949 6.48029C29.6694 5.70726 28.8419 3.25566 26.8116 0.878589C26.6617 0.703277 26.6406 0.435477 26.7595 0.233938C26.8784 0.0323977 27.1089 -0.0504268 27.3108 0.0310174C29.3659 0.877209 33.0501 2.76009 34.829 5.91847C35.5722 5.37182 39.8609 2.33906 45.5655 0.719842C45.7798 0.657723 46.0041 0.773678 46.1007 0.997304C46.1973 1.21955 46.1403 1.48735 45.9644 1.63781C44.8198 2.61238 43.3047 4.24955 42.5033 6.5576C43.5463 6.62109 48.852 7.00347 52.5126 8.33004C52.7146 8.4032 52.8471 8.61855 52.8347 8.85598C52.8223 9.09203 52.6675 9.28943 52.4594 9.33636C51.586 9.52962 50.2816 10.021 48.9548 11.2551C49.7563 11.8625 53.8443 15.0526 56.2141 18.6307C58.2507 21.7048 62.0216 22.6739 63.549 22.9472C63.7323 22.9803 63.881 23.1308 63.9281 23.331C63.9751 23.5311 63.9095 23.7437 63.7633 23.8707L57.941 28.9258C58.6409 29.5635 62.1603 32.6874 65.1495 33.9684C65.3167 34.0402 65.4319 34.2114 65.4468 34.4101C65.4629 34.6089 65.3737 34.7994 65.2201 34.9016L60.4966 38.0268C60.9166 38.6176 62.7933 41.141 64.981 42.3696C65.1284 42.4524 65.2251 42.6139 65.2374 42.7961C65.2498 42.9783 65.1743 43.155 65.0405 43.2599C63.8438 44.2 61.609 45.8385 59.8326 46.4625C60.1758 46.9525 61.4307 48.5593 64.488 50.7997C64.6379 50.9102 64.7184 51.1048 64.6949 51.3036C64.6713 51.5024 64.5474 51.668 64.3777 51.7301L60.2167 53.25L61.3018 53.6047C61.5112 53.6738 61.6499 53.8932 61.6363 54.1362C61.6227 54.3791 61.4604 54.5793 61.2461 54.618L58.9159 55.0417L59.0807 55.137C59.0856 55.1397 59.16 55.1853 59.1649 55.1881L59.4325 55.3537C59.4337 55.3551 59.518 55.4076 59.5205 55.4089C59.6481 55.4904 59.788 55.5815 59.9379 55.685C60.146 55.8258 60.286 55.9238 60.4334 56.0315L60.5573 56.1185C60.7332 56.2455 60.919 56.3821 61.1172 56.5326C61.3427 56.7079 61.5335 56.8597 61.7317 57.0199L61.8903 57.1496C62.0959 57.3194 62.3102 57.4989 62.5319 57.6907C62.6917 57.8302 62.7698 58.0842 62.6992 58.2954C62.6286 58.5079 62.4688 58.6764 62.2569 58.6501C61.5236 58.6087 60.9649 58.8544 60.5685 59.3886C59.373 61.001 59.8747 64.931 60.1696 66.31C60.2179 66.5378 60.125 66.7725 59.9429 66.8857C59.7595 66.9988 59.5316 66.9643 59.3842 66.7973C57.5458 64.7253 54.9976 65.6157 54.8911 65.6543C52.779 66.2769 51.4374 70.2856 51.0942 71.7778C51.0447 71.9918 50.8812 72.1478 50.683 72.1671C50.4847 72.1864 50.3002 72.0649 50.2172 71.8648C49.6548 70.4871 48.115 70.2373 47.8152 70.2014C46.4773 70.512 44.3565 73.1099 43.6429 74.0983C43.4856 74.3164 43.1982 74.3551 43.0012 74.1894C42.7993 74.0224 42.7522 73.709 42.8935 73.4785C43.0756 73.1831 42.7361 72.3203 42.2295 71.4755C41.6175 72.9705 40.1446 74.5276 39.9377 74.7416C39.8213 74.8603 39.6615 74.9058 39.5079 74.8658C39.3555 74.8244 39.2316 74.7002 39.1796 74.5345C38.8637 73.5475 36.9758 73.1734 36.3403 73.1196C36.2907 73.1154 36.2412 73.1016 36.1954 73.0809C36.1334 73.0519 36.0938 73.0533 36.0343 73.0906C35.5314 73.3915 35.0358 75.0839 34.8451 76.1896C34.8153 76.358 34.7138 76.5002 34.5713 76.5692C34.4301 76.6383 34.2666 76.6231 34.1365 76.5306C33.5282 76.1013 33.081 74.5179 32.8804 73.6704C32.1941 73.8029 30.4325 75.0052 28.7911 76.4933C28.7069 76.5706 28.6028 76.6106 28.4963 76.6106ZM24.8394 71.2422C24.9298 71.2422 25.0215 71.2712 25.1008 71.3306C25.6322 71.7295 27.9772 73.553 28.7317 75.2164C30.0795 74.0486 32.3774 72.2651 33.4143 72.6986C33.5605 72.7593 33.6707 72.8973 33.7066 73.0671C33.8392 73.6897 34.0188 74.3109 34.1935 74.7913C34.4549 73.8167 34.9083 72.5812 35.5921 72.1726C35.8745 72.0028 36.1792 71.9738 36.4766 72.087C36.9275 72.1326 38.8302 72.3893 39.711 73.5282C40.5522 72.5619 41.563 71.1304 41.5593 70.3118C41.5581 70.0924 41.6807 69.8963 41.8653 69.8204C42.0511 69.7459 42.2567 69.8052 42.3831 69.9723C42.6903 70.3767 43.41 71.3941 43.7197 72.4004C44.7021 71.205 46.3695 69.4118 47.7123 69.1592C47.747 69.1537 47.7817 69.1495 47.8176 69.1537C47.8969 69.1592 49.4479 69.2751 50.4786 70.4664C51.0224 68.7106 52.3479 65.3244 54.6248 64.6535C54.7127 64.6204 56.9735 63.8198 59.0348 65.1795C58.8044 63.4056 58.6372 60.3577 59.8463 58.7247C60.1807 58.2733 60.5945 57.9558 61.0788 57.7777C60.9215 57.6507 60.7691 57.532 60.6242 57.4188C60.3963 57.2449 60.2167 57.1124 60.0445 56.9867L59.9354 56.9108C59.7818 56.8004 59.6505 56.7079 59.5266 56.6237C59.3049 56.4718 59.1724 56.3863 59.0522 56.309L58.2928 55.8562L58.3969 55.3344L58.1999 55.8065C57.858 55.6395 57.6623 55.2529 57.7069 54.8581C57.7465 54.4689 58.0228 54.1472 58.3771 54.081L59.2504 53.9222C59.0856 53.7566 58.9878 53.5219 58.9853 53.261C58.9766 52.8731 59.1996 52.5225 59.539 52.3955L63.1761 51.0662C60.0866 48.6739 59.0646 47.0713 58.9506 46.8835C58.8069 46.6447 58.7735 46.341 58.8602 46.0718C58.9494 45.7999 59.1501 45.5928 59.3991 45.5128C60.8311 45.0559 62.7289 43.7417 63.8835 42.8748C61.5384 41.2804 59.7434 38.6466 59.6617 38.5251C59.5242 38.3264 59.4684 38.0641 59.5118 37.8101C59.5589 37.5561 59.6964 37.338 59.8921 37.2068L63.9466 34.5247C60.7592 32.8793 57.3736 29.7526 57.2188 29.6091C57.0305 29.4338 56.924 29.1756 56.9289 28.8995C56.9302 28.629 57.0454 28.3736 57.2411 28.2038L62.3759 23.7451C60.4334 23.2509 57.3204 22.0513 55.4597 19.2408C52.9363 15.4295 48.3478 12.0489 48.302 12.0157C48.0939 11.8639 47.9576 11.6071 47.9378 11.3269C47.9167 11.0494 48.0196 10.7692 48.2141 10.5815C49.0775 9.74772 49.9422 9.20108 50.7127 8.84356C46.9988 7.83862 42.5008 7.59428 42.2852 7.58324C42.03 7.5722 41.7909 7.42035 41.6472 7.18016C41.506 6.94135 41.4751 6.64042 41.563 6.37262C42.1006 4.72441 42.9653 3.38541 43.8486 2.34873C38.8488 4.1405 35.2824 6.82401 35.2427 6.85438C35.0581 6.99657 34.8265 7.04626 34.6097 6.98966C34.4004 6.94135 34.2083 6.7895 34.0931 6.57416C32.8965 4.3655 30.6221 2.80288 28.728 1.81451C30.3086 4.21918 30.8326 6.33949 30.8587 6.44854C30.9355 6.76052 30.8525 7.1001 30.6406 7.32925C30.4276 7.55839 30.1191 7.63708 29.8429 7.54597C24.0181 5.56784 17.6928 7.54597 14.1995 9.03819C16.5098 9.70769 17.8626 10.9915 17.9307 11.0564C18.1623 11.2758 18.2639 11.6347 18.1871 11.9674C18.1029 12.3125 17.8601 12.5624 17.5516 12.6259C14.1338 13.3561 11.878 15.1396 10.5636 16.5518C11.6203 16.5697 12.3599 16.832 12.5333 16.901C12.8182 17.0183 13.0177 17.2875 13.0635 17.6078C13.1118 17.9198 13.0016 18.2455 12.7749 18.4512C11.2289 19.8606 6.65774 22.0113 4.61127 22.9362L7.95723 28.2038C8.1926 28.5765 8.14305 29.0873 7.84202 29.3923C7.04796 30.1971 3.92126 31.837 2.21545 32.7012C3.69704 35.7905 6.30345 37.0992 6.41989 37.1558C6.61686 37.2455 6.78038 37.4346 6.85718 37.6679C6.93399 37.9095 6.9216 38.1593 6.82374 38.3788C5.66176 41.043 2.95501 43.0901 1.34335 44.1268C3.97701 45.9849 6.9662 45.4948 6.99717 45.4893C7.28581 45.4368 7.59302 45.5707 7.77265 45.8372C7.95475 46.1063 7.98572 46.4625 7.85688 46.7662C6.93647 48.9472 4.79337 51.3464 3.19657 52.9394L7.54595 53.4046C7.88166 53.4405 8.15791 53.7 8.24958 54.063C8.3363 54.4344 8.20994 54.8223 7.93617 55.0376L6.37778 56.2703L7.73796 56.4594C8.06376 56.5064 8.3301 56.7631 8.41806 57.1137C8.50725 57.4685 8.39576 57.8426 8.13561 58.0676C7.64877 58.4941 7.08884 58.9055 6.46325 59.2975C7.95847 59.8842 9.56765 60.7138 10.3468 61.763C10.4311 61.8789 10.4695 62.0294 10.4484 62.1771C10.2267 63.7176 9.8216 67.5538 10.1363 69.6106C10.9861 68.4317 12.4441 67.268 14.2057 68.1101C14.358 68.1832 14.4633 68.3392 14.4844 68.5228C14.4869 68.5394 14.8151 70.6238 18.2999 72.7013C17.901 71.4493 17.4748 69.6023 17.9728 68.5187C18.1896 68.0466 18.5588 67.7443 19.0406 67.6407C19.2698 67.5883 19.504 67.7443 19.5746 67.9996C19.8632 69.0432 20.9323 71.8468 22.399 72.2789C23.0568 72.4736 23.7641 72.1685 24.5173 71.3803C24.609 71.2892 24.7242 71.2422 24.8394 71.2422ZM7.56453 57.249C7.56329 57.249 7.56329 57.249 7.56329 57.2504C7.56453 57.249 7.56453 57.249 7.56453 57.249ZM58.5616 54.8457C58.5616 54.8457 58.5629 54.8457 58.5616 54.8457C58.5629 54.8457 58.5616 54.8457 58.5616 54.8457ZM7.15078 46.5191C7.14954 46.5191 7.1483 46.5191 7.14706 46.5205C7.1483 46.5205 7.14954 46.5205 7.15078 46.5191ZM6.05073 38.1124C6.05197 38.1138 6.05445 38.1138 6.05569 38.1152C6.05445 38.1152 6.05321 38.1152 6.05073 38.1124ZM60.4087 37.8984L60.4099 37.8998C60.4087 37.8998 60.4087 37.8998 60.4087 37.8984ZM17.3237 11.8487C17.3249 11.8487 17.3249 11.8487 17.3237 11.8487C17.3249 11.8487 17.3249 11.8487 17.3237 11.8487ZM17.3819 11.6058C17.3807 11.6058 17.3807 11.6058 17.3807 11.6058C17.3807 11.6071 17.3807 11.6071 17.3819 11.6058ZM29.9593 6.72186V6.72325C29.9593 6.72186 29.9593 6.72186 29.9593 6.72186ZM42.3298 6.54517C42.3311 6.54517 42.3311 6.54517 42.3311 6.54517C42.3311 6.54517 42.3311 6.54517 42.3298 6.54517Z" fill="#01243D"/>
<path d="M55.3829 40.818C58.1095 39.2181 52.3776 32.1946 51.3209 30.6527C51.1772 30.4429 51.3383 30.164 51.5253 30.0922C51.9651 29.9197 52.4086 29.783 52.8558 29.6629C50.8836 29.1756 48.8236 28.8761 47.1623 27.5454C46.9307 27.3604 46.9356 26.9394 47.2429 26.8469C47.9192 26.6426 48.5807 26.3983 49.2336 26.136C47.3989 26.216 45.568 26.314 43.7359 26.0697C43.4559 26.0324 43.2614 25.6735 43.493 25.4182C44.4531 24.3594 45.4417 23.3393 45.9632 21.9506C44.302 22.2294 42.6816 22.7471 40.9957 22.8257C40.7244 22.8382 40.5844 22.4958 40.6996 22.2515C41.4379 20.6944 42.3881 19.2739 43.005 17.6547C40.9089 18.3353 39.2539 19.989 37.3995 21.2466C37.2112 21.3749 36.9523 21.2548 36.8965 21.0188C36.51 19.412 36.3936 17.7431 35.9984 16.1459C35.4893 17.859 35.322 19.6784 34.8166 21.4012C34.7571 21.5999 34.5825 21.7214 34.3942 21.6676C31.8547 20.9291 29.382 19.9076 26.7632 19.6467C27.7691 20.7427 28.9646 21.5944 29.9321 22.7484C30.0671 22.91 30.0745 23.2468 29.8615 23.3475C25.2135 25.5534 19.4111 25.3906 15.2413 28.7615C16.1023 28.7919 16.9496 28.8802 17.7907 29.1398C18.0162 29.2102 18.1512 29.5925 17.9419 29.7775C15.7938 31.67 12.952 32.3492 10.9155 34.377C11.8371 34.4971 12.7303 34.6366 13.5912 35.0948C13.7981 35.2039 13.8006 35.5269 13.6606 35.6926C12.2533 37.3656 9.25177 39.4666 9.47847 42.1032C9.58872 43.3759 10.3196 44.4444 10.3357 45.7295C10.3493 46.7635 9.69649 47.6911 9.75843 48.696C10.3122 48.5442 10.8498 48.3813 11.3627 48.0721C11.603 47.9272 11.9808 48.1701 11.8656 48.5028C11.0765 50.7763 11.458 53.9747 11.8284 56.3007C12.1307 58.2085 13.0152 62.7155 15.2326 59.9643C15.3887 59.7697 15.6526 59.8484 15.7703 60.0416C16.4665 61.1819 17.0251 62.4146 17.7139 63.5562C18.1438 64.2657 18.7235 65.1064 19.4779 64.2312C19.9301 63.7053 20.2993 63.1255 20.6597 62.5223C20.7898 62.3041 21.0227 62.2834 21.1986 62.445C22.8202 63.933 26.0584 70.1559 27.4768 65.2858C27.5623 64.9904 27.9599 64.8855 28.1024 65.1947C28.8518 66.8167 29.2693 68.6002 30.1179 70.1587C31.1585 69.2062 32.0479 68.0757 33.1157 67.1563C33.2681 67.0252 33.4923 67.1356 33.584 67.2943C33.8218 67.7029 34.1043 68.0715 34.3682 68.458C35.7779 67.039 37.0018 65.2748 38.1824 67.6325C39.3444 66.3984 40.0901 64.7903 41.0972 63.3988C41.2199 63.229 41.4515 63.2746 41.5804 63.3988C42.3236 64.1097 42.9282 64.8979 43.4683 65.7855C45.0614 64.3706 45.7836 61.89 47.757 61.0107C47.9168 60.9389 48.1496 61.088 48.1769 61.2771C48.2537 61.8224 48.4482 62.3235 48.582 62.8466C51.8437 60.286 53.1085 55.1688 53.3612 50.9558C53.4281 49.8307 53.4479 48.6367 53.3897 47.433C52.7195 49.2468 52.3665 51.2954 51.7743 53.2735C51.6356 53.7373 50.9741 53.5385 51.1128 53.0706C51.8549 50.5969 52.2624 48.0666 53.2745 45.9573C52.9784 43.2655 52.1992 40.6413 50.517 38.746C50.206 38.3954 50.6892 37.8557 51.0001 38.2063C52.5734 39.9774 53.4405 42.3834 53.8456 44.9179C54.4216 44.0206 55.1698 43.2351 56.1658 42.6029C55.8698 42.2233 55.674 41.7691 55.3111 41.4185C55.15 41.2598 55.1946 40.9271 55.3829 40.818Z" fill="#CCE0E4"/>
<path d="M10.2193 44.3146C10.1908 44.2111 10.2032 44.0993 10.2527 44.0054L11.5745 41.5165L9.8885 41.6545C9.73613 41.6684 9.59739 41.5662 9.54288 41.4088C9.48837 41.2501 9.53545 41.072 9.65685 40.9712C9.66552 40.9616 10.6776 40.0574 11.6092 37.3615C11.5869 37.3615 11.5633 37.3615 11.5373 37.3615C10.8535 37.3615 9.61597 37.505 8.71413 38.4327C7.86061 39.312 7.47906 40.709 7.5794 42.5877C7.6686 44.2787 8.10093 45.3485 8.86279 45.7737C9.83524 46.3135 11.1669 45.7378 11.909 45.3182L10.4038 44.5479C10.3171 44.5037 10.249 44.4181 10.2193 44.3146Z" fill="#4293B3"/>
<path d="M58.7016 37.3532C57.6846 36.0114 56.1101 36.5236 55.3978 36.8576L56.8286 38.7709C56.8942 38.8592 56.9215 38.9738 56.9029 39.0856C56.8831 39.196 56.8224 39.294 56.7332 39.3479L54.8713 40.5171L56.5362 42.6443C56.5994 42.7257 56.6291 42.8348 56.6167 42.9411C56.6056 43.0474 56.5536 43.144 56.4755 43.2061L55.0695 44.3187C56.037 45.1332 56.8992 45.1428 57.6387 44.3477C59.1154 42.7561 59.5836 38.5183 58.7016 37.3532Z" fill="#4293B3"/>
<path d="M44.7182 37.1185C44.5869 37.1682 44.442 37.1281 44.3491 37.0122C44.2574 36.8976 44.2351 36.7333 44.2946 36.5925C44.3094 36.5594 45.516 33.7227 46.1379 31.3939C44.8012 32.4196 41.5977 34.0678 34.1216 35.3226C33.9928 35.3405 33.864 35.2812 33.7897 35.1638C33.7166 35.0465 33.7079 34.8905 33.7686 34.7635C33.8318 34.6337 35.0136 32.1877 36.074 30.6457C33.3462 31.4119 26.1872 33.5901 23.8496 35.8982C23.7394 36.0086 23.5771 36.0252 23.4507 35.9424C23.3219 35.8595 23.2575 35.6953 23.2872 35.5338C23.3157 35.3833 23.8781 32.4872 24.8803 30.4373C22.9664 31.601 19.3107 34.1561 18.1141 37.2883C18.0583 37.4346 17.927 37.5298 17.7883 37.5202C17.6458 37.5147 17.5219 37.4139 17.4761 37.2648C17.4538 37.1903 17.0103 35.7491 16.9285 33.3845C15.4073 37.563 12.0898 48.4406 15.961 55.1039C18.2528 59.0477 22.7285 60.9403 29.2656 60.7111C29.4267 60.7097 29.5282 60.7939 29.5865 60.9306L30.5378 63.1862L31.0841 60.6241C31.1201 60.4502 31.2588 60.3287 31.4174 60.3287C31.4211 60.3287 31.4236 60.3287 31.4285 60.3301C31.592 60.337 31.7271 60.4682 31.7543 60.649L32.4072 65.0028L33.7537 61.1459C33.8058 60.9927 33.9433 60.8975 34.0894 60.903C34.2381 60.9113 34.3632 61.0245 34.4041 61.1832L35.1288 64.118L36.6884 61.0935C36.759 60.9568 36.899 60.885 37.0353 60.9071C37.174 60.9292 37.288 61.0452 37.3202 61.1984L37.8306 63.6638L38.8067 60.6752C38.8588 60.5123 38.9987 60.4129 39.1623 60.4267C39.2589 60.4392 48.8867 61.4634 51.5774 54.9217C53.9596 49.1267 51.5687 36.0003 50.8737 32.5424C50.1007 33.6509 48.2748 35.727 44.7182 37.1185Z" fill="#55ABDD"/>
<path d="M16.9954 39.4003C18.5154 38.2532 19.8805 36.8797 21.3559 35.6635C21.5244 35.5241 21.8217 35.6635 21.8601 35.8927C22.0187 36.8783 21.8316 39.0111 23.2414 38.5127C24.3996 38.1041 25.4749 37.5202 26.5279 36.8493C28.2523 35.7491 29.9358 34.562 31.8286 33.8455C32.1408 33.7268 32.3328 34.1299 32.2164 34.406C31.8881 35.1818 31.3282 35.9866 31.1275 36.8148C30.9181 37.6831 34.1018 36.9929 34.2381 36.968C36.9684 36.4628 39.5971 35.578 42.2208 34.6089C42.5181 34.4985 42.7436 34.8891 42.6073 35.1694C42.2753 35.8513 41.8702 36.4697 41.4998 37.1254C40.759 38.4382 41.7402 39.4804 43.0062 39.4597C44.5188 39.4335 45.9917 38.9282 47.2974 38.0793C48.748 37.1364 50.1701 35.8844 51.2144 34.3535C51.0806 33.6109 50.9617 32.9938 50.87 32.5424C50.1007 33.6509 48.276 35.727 44.7182 37.1185C44.5869 37.1682 44.442 37.1282 44.349 37.0122C44.2574 36.8976 44.2351 36.7334 44.2945 36.5926C44.3094 36.5594 45.516 33.7227 46.1379 31.3939C44.8012 32.4196 41.5977 34.0678 34.1216 35.3226C33.9928 35.3405 33.864 35.2812 33.7896 35.1638C33.7165 35.0465 33.7079 34.8905 33.7686 34.7635C33.8317 34.6338 35.0136 32.1877 36.074 30.6457C33.3461 31.4119 26.1872 33.5902 23.8496 35.8982C23.7394 36.0086 23.5771 36.0252 23.4507 35.9424C23.3219 35.8596 23.2575 35.6953 23.2872 35.5338C23.3157 35.3833 23.8781 32.4872 24.8803 30.4373C22.9664 31.601 19.3107 34.1561 18.114 37.2883C18.0583 37.4346 17.927 37.5299 17.7882 37.5202C17.6458 37.5147 17.5219 37.4139 17.4761 37.2648C17.4538 37.1903 17.0103 35.7491 16.9285 33.3845C16.7898 33.7668 16.6349 34.2044 16.4739 34.6904C16.3934 36.2916 16.7811 37.8239 16.9954 39.4003Z" fill="#4293B3"/>
<path d="M16.7638 20.3231C9.65561 17.2572 7.81601 11.6996 7.34279 9.21072C6.58589 11.1861 6.46449 13.1394 6.71101 14.9698C7.09875 14.8842 7.49021 14.858 7.82592 14.8511C8.59025 14.847 9.15018 14.9947 9.15018 15.0954C9.14894 15.2266 8.58282 15.2915 7.87423 15.4433C7.54967 15.5109 7.17803 15.6007 6.83613 15.7221C7.04672 16.8168 7.38243 17.8604 7.78628 18.8281C8.31772 18.5851 8.85783 18.2662 9.26911 17.8949C9.88602 17.3717 10.2477 16.8127 10.3493 16.8776C10.4298 16.9203 10.223 17.6216 9.63083 18.3339C9.24185 18.8212 8.67697 19.245 8.10589 19.5542C8.68935 20.8007 9.36573 21.9023 9.99875 22.8106C10.5674 22.4876 11.1298 22.119 11.5794 21.72C12.3648 21.0588 12.7513 20.3175 12.8591 20.3755C12.9446 20.4059 12.703 21.3101 11.935 22.1604C11.5287 22.6325 10.9972 23.0646 10.446 23.4345C11.1521 24.3815 11.7553 25.0455 12.0304 25.3354C15.2685 23.6885 16.4355 21.2052 16.7638 20.3231Z" fill="#004775"/>
<path d="M53.4554 21.1085C52.7245 20.2209 52.5176 19.307 52.6031 19.2822C52.7146 19.2297 53.0713 19.9862 53.832 20.6861C54.3262 21.1664 54.9692 21.6178 55.6034 21.9988C56.0828 20.9373 56.5796 19.7363 57.0293 18.4636C56.6006 18.1585 56.1993 17.7955 55.9119 17.3965C55.3482 16.6566 55.1686 15.9471 55.2504 15.9071C55.3532 15.8477 55.6951 16.422 56.2885 16.9769C56.5697 17.2516 56.9178 17.507 57.2795 17.7292C57.609 16.7395 57.8989 15.7166 58.1281 14.6896C58.0079 14.6551 57.8902 14.6219 57.78 14.5929C57.0763 14.408 56.5139 14.3155 56.5189 14.1857C56.5201 14.0849 57.0875 13.9635 57.8506 14.0049C57.9807 14.0145 58.1194 14.0283 58.2619 14.0463C58.6199 12.2021 58.7499 10.3661 58.4762 8.71515C57.806 11.3062 55.6294 16.4372 48.7021 19.042C49.0304 20.1974 50.3312 24.0308 53.604 25.9716C53.8939 25.4568 54.5405 24.2793 55.2739 22.7153C54.605 22.2708 53.936 21.7158 53.4554 21.1085Z" fill="#004775"/>
<path d="M51.0682 31.2255C50.9307 31.2089 50.792 31.2862 50.7238 31.4256C50.7102 31.4546 49.3401 34.2224 45.2633 36.0707C45.791 34.7483 46.7672 32.1655 47.0806 30.3393C47.1115 30.157 47.0186 29.9804 46.8638 29.9155C46.7052 29.8506 46.5305 29.9238 46.4451 30.0825C46.4314 30.1087 44.9907 32.628 34.7101 34.4487C35.2948 33.2947 36.5112 31.0074 37.2892 30.273C37.4106 30.1598 37.4453 29.9693 37.3747 29.8106C37.3028 29.6532 37.1467 29.569 36.9919 29.6104C36.5942 29.7112 27.8843 31.9612 24.1866 34.6641C24.5248 33.263 25.2271 30.8031 26.1847 29.6725C26.2975 29.5386 26.3098 29.3371 26.2145 29.188C26.1191 29.0403 25.9432 28.9878 25.7933 29.0624C25.5455 29.188 20.0651 31.9916 17.9047 36.0693C17.7275 35.1334 17.5256 33.5501 17.626 31.5306C17.6359 31.3497 17.5281 31.1855 17.372 31.1413C17.2134 31.0971 17.0487 31.1786 16.9768 31.3442C16.7018 31.9723 10.3307 46.8172 15.385 55.518C17.7882 59.6564 22.3903 61.6608 29.0599 61.4813L30.3347 64.5003C30.3978 64.6466 30.5267 64.7308 30.6803 64.717C30.8252 64.7005 30.9454 64.5831 30.9776 64.4258L31.3579 62.6423L31.9339 66.5005C31.9599 66.6689 32.0838 66.8001 32.2362 66.8166C32.2486 66.8166 32.261 66.8166 32.2721 66.8166C32.4109 66.8166 32.5397 66.7214 32.5905 66.575L34.0151 62.4973L34.6828 65.2015C34.7187 65.3506 34.8327 65.4597 34.9677 65.4804C35.1114 65.4983 35.2403 65.4238 35.3096 65.2913L36.8445 62.3165L37.4193 65.0911C37.454 65.2554 37.5803 65.3769 37.7327 65.3865C37.8851 65.3948 38.0238 65.294 38.0746 65.1353L39.3555 61.2122C41.0118 61.3488 49.5284 61.7201 52.1955 55.2391C55.0385 48.326 51.5117 32.1959 51.3593 31.5126C51.3259 31.3594 51.2107 31.2462 51.0682 31.2255ZM51.5724 54.9202C48.8818 61.4606 39.2552 60.4391 39.1573 60.4253C38.9938 60.4115 38.8538 60.5109 38.8018 60.6752L37.8256 63.661L37.3152 61.1956C37.2842 61.0424 37.1703 60.9264 37.0303 60.9029C36.894 60.8822 36.7528 60.954 36.6834 61.0907L35.1238 64.1138L34.3991 61.1804C34.3595 61.0217 34.2331 60.9085 34.0845 60.9002C33.9395 60.8947 33.802 60.9899 33.7488 61.1445L32.401 65.0028L31.7506 60.6476C31.7233 60.4695 31.5871 60.3356 31.4248 60.3287C31.4198 60.3273 31.4174 60.3273 31.4136 60.3273C31.2551 60.3273 31.1163 60.4488 31.0804 60.6227L30.5341 63.1848L29.5852 60.9292C29.527 60.7911 29.4254 60.7097 29.2631 60.7097C22.726 60.9375 18.2515 59.0449 15.9598 55.1025C12.0886 48.4406 15.406 37.5616 16.9273 33.3831C17.009 35.7477 17.4525 37.1889 17.4748 37.2648C17.5207 37.4125 17.6445 37.5146 17.7858 37.5202C17.927 37.5298 18.0583 37.4346 18.114 37.2883C19.3107 34.1547 22.9664 31.601 24.8803 30.4373C23.8781 32.4872 23.3157 35.3833 23.2872 35.5337C23.2575 35.6939 23.3219 35.8595 23.4507 35.9437C23.5783 36.0252 23.7394 36.0086 23.8496 35.8982C26.1884 33.5901 33.3461 31.4132 36.074 30.6457C35.0136 32.1876 33.8293 34.6337 33.7686 34.7635C33.7066 34.8919 33.7165 35.0451 33.7896 35.1638C33.864 35.2811 33.9928 35.3405 34.1216 35.3225C41.5989 34.0691 44.8024 32.4195 46.1379 31.3953C45.5147 33.7226 44.3082 36.5608 44.2945 36.5939C44.2351 36.7333 44.2574 36.899 44.349 37.0122C44.442 37.1267 44.5869 37.1682 44.7182 37.1185C48.2748 35.7256 50.1007 33.6522 50.8713 32.5424C51.5637 36.0003 53.9546 49.128 51.5724 54.9202Z" fill="#01243D"/>
<path d="M11.738 26.0696C11.8024 26.1318 11.8829 26.1649 11.9647 26.1649C12.0105 26.1649 12.0576 26.1538 12.101 26.1331C16.5693 23.97 17.4934 20.352 17.5293 20.1988C17.5764 20.0083 17.4847 19.8095 17.3187 19.7391C8.16038 15.9706 7.86679 8.00703 7.86555 7.92697C7.86059 7.7558 7.7553 7.60671 7.6054 7.56668C7.45427 7.52389 7.30066 7.59981 7.22386 7.75028C2.59204 16.9797 11.6463 25.9799 11.738 26.0696ZM12.8591 20.3741C12.7526 20.3161 12.3648 21.056 11.5794 21.7186C11.1297 22.1175 10.5661 22.4861 9.99874 22.8091C9.36572 21.9008 8.68934 20.7992 8.10587 19.5527C8.67571 19.2422 9.24184 18.8197 9.63082 18.3325C10.2217 17.6202 10.4298 16.9189 10.3493 16.8761C10.2477 16.8113 9.88601 17.3703 9.27033 17.8935C8.85658 18.2634 8.3177 18.5837 7.7875 18.8294C7.38242 17.859 7.04671 16.8154 6.83612 15.7207C7.17926 15.5993 7.54966 15.5095 7.87422 15.4433C8.58404 15.2901 9.14893 15.2266 9.15017 15.0954C9.15017 14.9946 8.59024 14.8469 7.82591 14.8511C7.4902 14.858 7.09998 14.8842 6.711 14.9684C6.46448 13.138 6.58712 11.1861 7.34278 9.21074C7.816 11.6996 9.65435 17.2585 16.7637 20.323C16.4355 21.2037 15.2685 23.6871 12.0328 25.3325C11.7578 25.0412 11.1558 24.38 10.4484 23.4317C10.9997 23.0631 11.5299 22.631 11.9374 22.1576C12.7018 21.3086 12.9446 20.4045 12.8591 20.3741Z" fill="#01243D"/>
<path d="M58.74 6.97585C58.683 6.80883 58.5307 6.71082 58.3696 6.73842C58.2123 6.76603 58.0909 6.91235 58.081 7.09043C58.076 7.17049 57.4963 15.1037 48.1757 18.4332C48.0035 18.494 47.9044 18.6914 47.9465 18.8846C47.996 19.111 49.1977 24.4366 53.5718 26.8123C53.6201 26.8386 53.6709 26.851 53.7217 26.851C53.8344 26.851 53.9434 26.7889 54.0079 26.6812C54.3077 26.1787 61.3229 14.292 58.74 6.97585ZM53.6015 25.9717C50.3299 24.0308 49.0279 20.1974 48.6997 19.042C55.6257 16.4386 57.8035 11.3076 58.4737 8.71517C58.7475 10.3661 58.6174 12.2007 58.2594 14.0463C58.1169 14.0284 57.9782 14.0146 57.8481 14.0063C57.085 13.9649 56.5176 14.085 56.5164 14.1857C56.5115 14.3169 57.0739 14.408 57.7775 14.5957C57.8877 14.6247 58.0067 14.6578 58.1256 14.6923C57.8964 15.7194 57.6065 16.7409 57.277 17.7306C56.9153 17.5084 56.5684 17.253 56.286 16.9783C55.6926 16.4248 55.3507 15.8491 55.2479 15.9085C55.1661 15.9471 55.3445 16.6567 55.9094 17.3979C56.198 17.7941 56.5994 18.1599 57.0268 18.4636C56.5759 19.7364 56.0791 20.9373 55.6009 21.9988C54.9667 21.6165 54.3238 21.1665 53.8295 20.6875C53.0701 19.9876 52.7121 19.2297 52.6006 19.2836C52.5151 19.3084 52.722 20.2236 53.4529 21.1099C53.9335 21.7159 54.6025 22.2722 55.2689 22.7167C54.5381 24.2807 53.8927 25.4582 53.6015 25.9717Z" fill="#01243D"/>
<path d="M12.8034 44.9357L11.0344 44.0316L12.4974 41.279C12.5618 41.1562 12.5606 41.0043 12.4924 40.8828C12.4268 40.7614 12.3041 40.6882 12.1765 40.702L10.7036 40.8221C11.1694 40.1581 11.8198 39.0013 12.4094 37.1378C12.4441 37.0301 12.4317 36.9114 12.3797 36.8134C12.3252 36.7154 12.236 36.6505 12.1344 36.6325C12.0415 36.6187 9.79559 36.2819 8.24958 37.8666C7.23625 38.9088 6.77914 40.5101 6.89311 42.6332C6.99841 44.6141 7.5571 45.9007 8.55432 46.4556C8.93959 46.6682 9.35334 46.7538 9.76957 46.7538C11.266 46.7538 12.7674 45.6605 12.8492 45.5997C12.952 45.5238 13.0115 45.3913 13.0003 45.2532C12.9929 45.1152 12.9161 44.9937 12.8034 44.9357ZM8.86278 45.7737C8.10093 45.3485 7.66859 44.2773 7.5794 42.589C7.47906 40.7103 7.8606 39.3119 8.71413 38.434C9.61596 37.5063 10.8535 37.3628 11.5373 37.3628C11.5633 37.3628 11.5869 37.3628 11.6092 37.3628C10.6764 40.0601 9.66428 40.9657 9.65684 40.9712C9.53544 41.0747 9.48961 41.2528 9.54288 41.4115C9.59738 41.5689 9.73613 41.6711 9.8885 41.6573L11.5745 41.5206L10.2527 44.0081C10.2031 44.102 10.192 44.2138 10.2193 44.3173C10.249 44.4209 10.3159 44.5051 10.4038 44.5506L11.909 45.3209C11.1669 45.7391 9.83523 46.3134 8.86278 45.7737Z" fill="#01243D"/>
<path d="M59.2244 36.8617C57.8605 35.0575 55.6555 35.7698 54.6805 36.3952C54.5938 36.4518 54.5331 36.5484 54.5145 36.6602C54.496 36.7706 54.5245 36.8852 54.5889 36.9708L56.037 38.9103L54.1702 40.0836C54.081 40.1402 54.0178 40.2382 54.0004 40.3528C53.9831 40.466 54.0116 40.5806 54.0797 40.6675L55.7707 42.832L54.3101 43.9861C54.2271 44.0537 54.1726 44.1586 54.1664 44.276C54.1603 44.3919 54.2024 44.5051 54.2779 44.5824C55.1141 45.4203 55.845 45.7088 56.4532 45.7061C57.2002 45.7061 57.7639 45.274 58.1145 44.8971C59.7819 43.1012 60.4236 38.4451 59.2244 36.8617ZM57.64 44.3477C56.9004 45.1429 56.0395 45.1332 55.0708 44.3187L56.4768 43.2061C56.5548 43.144 56.6069 43.0474 56.618 42.9411C56.6304 42.8348 56.5994 42.7257 56.5375 42.6443L54.8726 40.5171L56.7345 39.3479C56.8224 39.2913 56.8856 39.1946 56.9042 39.0842C56.9227 38.9724 56.8955 38.8578 56.8298 38.7695L55.399 36.8548C56.1113 36.5208 57.6858 36.0086 58.7029 37.3504C59.5837 38.5196 59.1154 42.7561 57.64 44.3477Z" fill="#01243D"/>
<path d="M32.7168 45.9926C33.0711 45.9746 33.3412 45.9664 33.5617 45.965C33.5766 45.5631 33.7364 44.9927 33.9358 44.9927C34.1377 44.9927 34.3013 45.5811 34.3112 45.9829C34.6902 46.0023 35.021 46.0161 36.1062 45.9001C36.1136 45.4982 36.2784 44.9002 36.4815 44.9002C36.6698 44.9002 36.8234 45.4153 36.8532 45.8103C37.8405 45.6722 38.2778 45.3104 38.2666 44.9996C38.2542 44.6613 37.7599 44.1738 36.9795 44.1489L36.5608 44.1338C35.2118 44.0882 34.85 44.0744 32.8073 44.2608C31.7803 44.3533 31.3393 44.8298 31.3616 45.2303C31.3864 45.6349 31.8559 46.0382 32.7168 45.9926Z" fill="#F8FBFC"/>
<path d="M45.7316 48.7678C45.4615 48.4558 44.7566 48.3275 43.2193 48.304C42.9629 48.3012 42.6296 48.2985 42.2233 48.2985C39.3332 48.2985 32.8011 48.4144 25.1764 48.9721C22.6208 49.1584 22.4932 49.2772 22.456 51.5079C22.4473 52.0517 22.6703 52.5721 23.1187 53.058C23.2488 53.1988 23.4012 53.3314 23.5647 53.4625C24.8023 51.4982 25.3151 51.2663 25.6682 51.3132C25.9605 51.3533 26.2492 51.6031 26.4598 52.7971C28.1841 51.7867 30.746 50.9474 34.5304 50.9281C38.1192 50.9033 40.5807 51.178 42.2109 51.8226C42.3175 50.975 42.5603 50.7045 42.7709 50.5858C43.14 50.3801 43.7173 50.4477 45.1382 52.401C45.651 51.8999 45.9124 51.3795 45.9223 50.8729L45.931 50.4767C45.9496 49.6098 45.9632 49.037 45.7316 48.7678Z" fill="#97BE13"/>
<path d="M34.5317 51.6929C30.71 51.7136 28.2027 52.5819 26.5712 53.5979C26.6121 53.9582 26.648 54.3819 26.6778 54.8637C28.3291 55.2944 30.7274 55.5995 34.1291 55.4159C37.4242 55.2392 40.1619 54.7671 42.201 54.0437C42.1638 53.4778 42.1502 53.0015 42.1576 52.6067C40.8619 52.0504 38.6234 51.6584 34.5317 51.6929Z" fill="#4BA82C"/>
<path d="M24.1482 53.8629C24.6573 54.1679 25.2705 54.4357 25.9778 54.6594C25.8441 52.7944 25.6322 52.2423 25.5517 52.0932C25.4204 52.1691 25.0165 52.4908 24.1482 53.8629Z" fill="#F8FBFC"/>
<path d="M43.0669 51.2802C42.9616 51.3795 42.7646 51.9897 42.8724 53.7938C43.5562 53.5122 44.1335 53.2016 44.5956 52.8703C43.5426 51.4223 43.135 51.2912 43.0669 51.2802Z" fill="#F8FBFC"/>
<path d="M32.7491 46.7538C33.5927 46.7068 33.9507 46.7275 34.2666 46.7441C34.4177 46.7524 34.5589 46.7593 34.7348 46.7593C35.1189 46.7593 35.6676 46.7248 36.842 46.5826C38.7869 46.3479 38.9653 45.3775 38.9504 44.9703C38.9219 44.1324 38.0473 43.4201 36.9993 43.387L36.5819 43.3718C35.239 43.3262 34.8339 43.3124 32.7515 43.5015C31.2576 43.6368 30.6344 44.494 30.6815 45.2809C30.7249 46.0636 31.4545 46.8255 32.7491 46.7538ZM32.8073 44.2621C34.85 44.0758 35.2118 44.0882 36.5608 44.1351L36.9795 44.1503C37.7587 44.1765 38.2542 44.6624 38.2666 45.0006C38.2778 45.3112 37.8405 45.6743 36.8532 45.8109C36.8247 45.4148 36.6711 44.9013 36.4815 44.9013C36.2784 44.9013 36.1136 45.499 36.1062 45.9007C35.021 46.0152 34.6902 46.0014 34.3112 45.9835C34.3013 45.5818 34.1377 44.9937 33.9358 44.9937C33.7364 44.9937 33.5766 45.5638 33.5617 45.9655C33.34 45.9669 33.0711 45.9752 32.7168 45.9932C31.8559 46.0387 31.3864 45.6342 31.3629 45.2312C31.3393 44.8295 31.7816 44.3546 32.8073 44.2621Z" fill="#01243D"/>
<path d="M20.9682 44.2484C20.8629 44.1199 20.1667 44.635 19.7765 45.03C19.385 45.4263 19.4482 45.552 19.5535 45.6804C19.66 45.8089 19.7666 45.8917 20.1556 45.4968C20.5458 45.1018 21.0723 44.3768 20.9682 44.2484Z" fill="#01243D"/>
<path d="M22.2095 44.6791C22.1042 44.5506 21.408 45.0657 21.0165 45.4607C20.6263 45.8557 20.6907 45.9827 20.7948 46.1111C20.9013 46.2382 21.0066 46.3224 21.3968 45.9261C21.7883 45.5325 22.3148 44.8061 22.2095 44.6791Z" fill="#01243D"/>
<path d="M48.7145 43.1992C48.6092 43.0708 47.913 43.5859 47.5228 43.9809C47.1314 44.3758 47.1958 44.5029 47.2998 44.63C47.4064 44.7584 47.5129 44.8412 47.9007 44.4463C48.2933 44.0527 48.8198 43.3277 48.7145 43.1992Z" fill="#01243D"/>
<path d="M49.957 43.6285C49.8517 43.5001 49.1555 44.0138 48.7653 44.4102C48.3739 44.8051 48.437 44.9322 48.5423 45.0606C48.6489 45.1891 48.7554 45.2719 49.1432 44.8769C49.5346 44.482 50.0623 43.757 49.957 43.6285Z" fill="#01243D"/>
<path d="M23.9648 43.0556C24.9819 43.0556 25.8069 42.1584 25.8069 41.0513C25.8069 39.9442 24.9819 39.0469 23.9648 39.0469C22.9478 39.0469 22.1227 39.9442 22.1227 41.0513C22.1227 42.1584 22.9465 43.0556 23.9648 43.0556Z" fill="#01243D"/>
<path d="M45.2459 39.0014C44.2289 39.0014 43.4039 39.8973 43.4039 41.0043C43.4039 42.1114 44.2289 43.0087 45.2459 43.0087C46.263 43.0087 47.0868 42.1114 47.0868 41.0043C47.0868 39.8973 46.2642 39.0014 45.2459 39.0014Z" fill="#01243D"/>
<path d="M43.2279 47.5407C41.148 47.5089 33.8503 47.5724 25.1305 48.2088C22.4077 48.4089 21.818 48.7126 21.7697 51.4941C21.7573 52.2464 22.0583 52.9767 22.6406 53.6061C23.6687 54.7174 25.4997 55.4973 27.9227 55.9031C27.9289 55.9045 27.9326 55.9045 27.9376 55.9059C28.5545 56.0108 29.2086 56.0881 29.8936 56.1433C29.9605 56.1488 30.0299 56.153 30.0968 56.1571C30.3557 56.1764 30.6196 56.1902 30.8859 56.2013C30.9801 56.2054 31.0742 56.2082 31.1708 56.2137C31.5028 56.2234 31.841 56.2317 32.1866 56.2317H32.1978H32.2003H32.2027C32.8358 56.2317 33.4898 56.2137 34.1637 56.1778C34.689 56.1502 35.1981 56.1129 35.6961 56.0702C35.8163 56.0605 35.9303 56.0467 36.0479 56.0356C36.4344 55.9998 36.8135 55.9597 37.1827 55.9155C37.2805 55.9031 37.3784 55.8907 37.4763 55.8769C37.8727 55.8258 38.2604 55.7706 38.6345 55.7085C38.6841 55.7002 38.7324 55.6919 38.7807 55.6823C43.7123 54.8471 46.5677 53.1506 46.6098 50.8895L46.6173 50.4975C46.6408 49.4387 46.6581 48.7388 46.2283 48.2405C45.7972 47.7436 45.0403 47.5683 43.2279 47.5407ZM24.1482 53.8629C25.0165 52.4908 25.4204 52.1691 25.5517 52.0946C25.6322 52.2423 25.8441 52.7945 25.9778 54.6608C25.2705 54.4344 24.6573 54.1666 24.1482 53.8629ZM34.1291 55.4145C30.7261 55.5981 28.3291 55.293 26.6778 54.8623C26.6468 54.3805 26.6121 53.9568 26.5712 53.5965C28.2027 52.5805 30.71 51.7122 34.5317 51.6915C38.6234 51.657 40.8619 52.0504 42.1576 52.6053C42.1502 52.9988 42.1638 53.475 42.201 54.041C40.1619 54.7657 37.4242 55.2378 34.1291 55.4145ZM43.0669 51.2802C43.135 51.2912 43.5426 51.4237 44.5956 52.869C44.1335 53.2017 43.5562 53.5123 42.8724 53.7939C42.7634 51.9897 42.9616 51.3796 43.0669 51.2802ZM45.9297 50.4768L45.9211 50.8729C45.9111 51.3796 45.6498 51.9 45.1369 52.401C43.7173 50.4478 43.14 50.3801 42.7696 50.5858C42.559 50.7045 42.3162 50.9737 42.2097 51.8227C40.5794 51.178 38.1179 50.9033 34.5292 50.9282C30.7447 50.9475 28.1829 51.7868 26.4585 52.7972C26.2479 51.6046 25.9593 51.3533 25.6669 51.3133C25.3139 51.2664 24.7998 51.4983 23.561 53.464C23.3987 53.3342 23.2463 53.1989 23.1162 53.0581C22.6678 52.5722 22.4448 52.0518 22.4535 51.5093C22.4907 49.2772 22.6183 49.1585 25.1739 48.9708C32.7986 48.4145 39.332 48.2985 42.2208 48.2985C42.6271 48.2985 42.9616 48.3013 43.2168 48.304C44.7554 48.3261 45.459 48.4559 45.729 48.7678C45.9632 49.037 45.9496 49.6099 45.9297 50.4768Z" fill="#01243D"/>
<path d="M30.7583 9.44121C31.0544 10.0044 31.4483 10.6836 31.7853 11.1889C32.1247 11.6913 32.318 11.9453 32.4753 12.0337C32.5459 12.0848 32.6054 12.0958 32.6524 12.0917C32.6958 12.0889 32.7107 12.082 32.7193 12.0737C32.728 12.0654 32.7404 12.0516 32.7553 12.0075C32.7726 11.9605 32.7837 11.8943 32.7614 11.8032C32.7367 11.6085 32.5793 11.3255 32.2573 10.8092C31.9315 10.2943 31.4743 9.66623 31.0891 9.17617C30.8921 8.93321 30.7212 8.71924 30.5886 8.57153C30.4561 8.42796 30.3285 8.37689 30.3223 8.38379C30.3148 8.38931 30.3173 8.5384 30.4003 8.72476C30.4833 8.90974 30.6109 9.15684 30.7583 9.44121Z" fill="#01243D"/>
<path d="M20.8059 9.44172C21.7053 9.69042 22.5737 9.93083 23.229 10.1118C23.9586 10.3108 24.3427 10.4227 24.5669 10.4034C24.6771 10.4075 24.744 10.3813 24.7837 10.3495C24.8258 10.3205 24.8357 10.3053 24.8394 10.2942C24.8419 10.2818 24.8419 10.2624 24.8246 10.2127C24.8072 10.1616 24.7651 10.0952 24.6722 10.0289C24.4938 9.8728 24.1147 9.71115 23.3752 9.48455C22.6356 9.25934 21.6619 9.0742 20.8741 8.99544C20.4801 8.95814 20.132 8.93465 19.883 8.93188C19.6328 8.93188 19.4755 8.9982 19.4742 9.00788C19.4742 9.01755 19.613 9.11979 19.8533 9.18888C20.0912 9.25934 20.4281 9.33948 20.8059 9.44172Z" fill="#01243D"/>
<path d="M24.1717 12.9794C24.0218 13.0029 23.9264 13.0803 23.9264 13.0914C23.9252 13.0997 24.0106 13.191 24.1568 13.238C24.3018 13.2822 24.5086 13.3279 24.7428 13.3804C25.211 13.4786 25.7957 13.5685 26.2528 13.5948C26.7112 13.6169 26.9552 13.6127 27.0865 13.5298C27.151 13.5021 27.1894 13.4565 27.2117 13.415C27.234 13.3763 27.2377 13.3583 27.2377 13.3445C27.2389 13.332 27.2364 13.314 27.2191 13.2712C27.203 13.2269 27.172 13.1758 27.1101 13.137C26.9887 13.0375 26.7496 12.9946 26.2925 12.9462C25.8366 12.9033 25.2469 12.9019 24.77 12.9282C24.5322 12.9448 24.3228 12.9586 24.1717 12.9794Z" fill="#01243D"/>
<path d="M17.8378 14.9557C18.1834 14.8672 18.6034 14.7291 18.9168 14.5798C19.2265 14.4278 19.385 14.3297 19.442 14.2068C19.4742 14.1584 19.4841 14.1018 19.4804 14.0548C19.4804 14.012 19.4767 13.994 19.473 13.9829C19.468 13.9705 19.4594 13.9539 19.4346 13.9221C19.4061 13.8876 19.3652 13.8544 19.3119 13.8434C19.1943 13.7978 19.0196 13.8489 18.7 13.9788C18.3828 14.1128 17.9926 14.3339 17.6866 14.537C17.5355 14.6406 17.4017 14.7318 17.3101 14.8092C17.2196 14.8866 17.1849 14.9943 17.1887 15.0026C17.1936 15.0109 17.2828 15.0634 17.3968 15.0496C17.5095 15.033 17.6619 14.9957 17.8378 14.9557Z" fill="#01243D"/>
<path d="M22.5836 17.0024C23.2414 16.8463 23.587 16.7454 23.7555 16.6156C23.8409 16.563 23.8831 16.505 23.9029 16.4567C23.9227 16.4097 23.9239 16.3917 23.9215 16.3793C23.919 16.3668 23.9116 16.3503 23.8781 16.3143C23.8422 16.2784 23.784 16.2411 23.6873 16.2301C23.4879 16.1803 23.1348 16.2328 22.4721 16.3655C21.8093 16.5023 20.967 16.7316 20.2943 16.943C19.9598 17.0508 19.6625 17.1461 19.4532 17.2249C19.2451 17.3064 19.1298 17.4183 19.1311 17.428C19.1336 17.4377 19.276 17.4929 19.4978 17.4805C19.7195 17.4653 20.0242 17.428 20.3711 17.3865C21.0661 17.2981 21.9221 17.1558 22.5836 17.0024Z" fill="#01243D"/>
<path d="M18.8821 23.117C18.887 23.1253 19.0468 23.0838 19.25 22.9403C19.5163 22.7512 19.7876 22.5607 20.0552 22.3716C20.6994 21.9285 21.5195 21.4357 22.1686 21.0754C22.8152 20.7096 23.167 20.5398 23.3268 20.3727C23.4098 20.3023 23.4483 20.2361 23.4631 20.1823C23.4792 20.1312 23.478 20.1119 23.4755 20.1008C23.4705 20.0898 23.4606 20.0746 23.4185 20.0484C23.3764 20.0194 23.307 19.9973 23.2017 20.0069C22.9788 20.0056 22.596 20.1367 21.9122 20.4942C21.2296 20.8545 20.4145 21.4467 19.8211 22.0044C19.525 22.2846 19.2735 22.5427 19.1038 22.7374C18.9354 22.9403 18.8759 23.1115 18.8821 23.117Z" fill="#01243D"/>
<path d="M25.7722 19.6831C25.5975 19.8143 25.5195 19.951 25.5245 19.9579C25.5269 19.9676 25.6731 19.9828 25.8713 19.9165C26.0683 19.8502 26.3408 19.7439 26.6505 19.6375C27.2699 19.4152 28.0417 19.1666 28.64 18.9719C29.2383 18.7731 29.5567 18.6778 29.7116 18.5466C29.7896 18.4941 29.828 18.4361 29.8466 18.3878C29.8652 18.3408 29.8664 18.3229 29.8652 18.3104C29.8614 18.298 29.854 18.2814 29.8218 18.2469C29.7871 18.211 29.7326 18.1751 29.6372 18.1627C29.4477 18.1157 29.1095 18.1654 28.4839 18.3477C27.8596 18.5328 27.0878 18.8753 26.4969 19.2205C26.2021 19.3945 25.9481 19.5547 25.7722 19.6831Z" fill="#01243D"/>
<path d="M37.8628 11.3145C37.8727 11.3228 37.8863 11.3311 37.9297 11.3366C37.973 11.3463 38.0325 11.3394 38.1006 11.2979C38.2567 11.2317 38.4388 11.0094 38.8018 10.605C39.1623 10.1977 39.6293 9.67872 40.0282 9.27702C40.2251 9.07133 40.4085 8.90154 40.5336 8.77178C40.6612 8.64064 40.7083 8.50812 40.7045 8.49984C40.6996 8.49156 40.5732 8.47914 40.4097 8.55368C40.2462 8.6296 40.0294 8.75798 39.7878 8.91397C39.306 9.2287 38.7535 9.71047 38.3843 10.155C38.0164 10.5995 37.8566 10.8686 37.8268 11.0536C37.8033 11.1392 37.812 11.2041 37.8281 11.2496C37.843 11.2938 37.8541 11.3076 37.8628 11.3145Z" fill="#01243D"/>
<path d="M40.1384 14.667C40.1322 14.7167 40.1347 14.736 40.1409 14.7471C40.1458 14.7595 40.1558 14.7719 40.1979 14.7954C40.2375 14.8216 40.3019 14.8396 40.3948 14.8244C40.5893 14.8175 40.899 14.6697 41.485 14.3921C41.9929 14.1422 42.6742 13.808 43.4237 13.4406C43.7272 13.2901 43.9972 13.1658 44.188 13.0663C44.3775 12.9669 44.4779 12.8454 44.4766 12.8357C44.4754 12.8274 44.3317 12.7846 44.1211 12.8191C43.9118 12.8551 43.6219 12.9269 43.2936 13.0139C42.6383 13.1948 41.8417 13.4958 41.2496 13.7997C40.6562 14.1076 40.3589 14.3051 40.235 14.475C40.1694 14.5482 40.1434 14.6145 40.1384 14.667Z" fill="#01243D"/>
<path d="M45.3933 18.8753C45.5494 18.8878 45.6845 18.9002 45.7848 18.8974C45.8851 18.8919 45.9619 18.827 45.9632 18.8173C45.9657 18.8091 45.9297 18.711 45.848 18.6475C45.7625 18.5867 45.6399 18.519 45.5024 18.4403C45.2236 18.2898 44.8706 18.1338 44.5844 18.055C44.297 17.9777 44.1422 17.9556 44.0418 18.0191C43.9935 18.0385 43.9613 18.0785 43.939 18.1158C43.918 18.1531 43.9105 18.1697 43.9093 18.1807C43.9068 18.1918 43.9031 18.2111 43.9043 18.2539C43.9056 18.2995 43.9167 18.3519 43.9477 18.3961C44.0047 18.508 44.1484 18.5784 44.4296 18.6765C44.7108 18.7745 45.0861 18.845 45.3933 18.8753Z" fill="#01243D"/>
<path d="M42.538 22.1265C42.5429 22.1168 42.5218 22.0063 42.4413 21.9124C42.3583 21.8213 42.2345 21.7094 42.0957 21.5796C41.8145 21.3255 41.4491 21.0397 41.1456 20.8532C40.8408 20.671 40.6723 20.5895 40.5485 20.6144C40.4915 20.6157 40.4481 20.642 40.4159 20.6724C40.3849 20.7 40.3763 20.7138 40.3701 20.7262C40.3639 20.7373 40.3577 20.7538 40.3515 20.7966C40.3441 20.8422 40.3453 20.8988 40.3726 20.9541C40.4147 21.088 40.5609 21.2109 40.8557 21.4139C41.1505 21.6155 41.5556 21.8254 41.8925 21.9704C42.0635 22.0422 42.2134 22.1044 42.3249 22.1389C42.4364 22.1693 42.5342 22.1334 42.538 22.1265Z" fill="#01243D"/>
<path d="M34.7101 20.6916C34.6642 20.6751 34.5948 20.6709 34.4995 20.7068C34.2938 20.7593 33.9829 20.9815 33.4081 21.4274C32.837 21.8774 32.1321 22.4999 31.5772 23.0217C31.3034 23.2868 31.0593 23.5173 30.8921 23.6912C30.7274 23.8693 30.6605 24.028 30.6654 24.0349C30.6716 24.0432 30.8265 24.0211 31.0309 23.901C31.2328 23.7796 31.5053 23.596 31.8162 23.3875C32.4356 22.9651 33.1863 22.4157 33.7488 21.9519C34.3099 21.4853 34.5973 21.2245 34.7063 21.0243C34.767 20.9332 34.7856 20.8614 34.7856 20.8062C34.7881 20.7537 34.7831 20.7358 34.7769 20.7248C34.7683 20.7178 34.7546 20.7054 34.7101 20.6916Z" fill="#01243D"/>
<path d="M28.9621 25.9593C29.0302 25.8861 29.0562 25.8185 29.0624 25.766C29.0711 25.7163 29.0686 25.697 29.0624 25.686C29.0599 25.6736 29.0476 25.6611 29.0067 25.6377C28.9658 25.6101 28.9039 25.5907 28.8097 25.6059C28.6127 25.6101 28.2931 25.7536 27.7047 26.0573C27.1188 26.3651 26.3854 26.8082 25.8057 27.1892C25.517 27.3825 25.2631 27.5522 25.0859 27.6848C24.9113 27.8187 24.8295 27.9567 24.8332 27.965C24.8357 27.9733 24.9844 27.9884 25.1875 27.9167C25.3894 27.8463 25.6682 27.7289 25.9816 27.5964C26.6096 27.3272 27.3764 26.9628 27.9562 26.6412C28.5372 26.3168 28.8345 26.1291 28.9621 25.9593Z" fill="#01243D"/>
<path d="M24.1519 25.7398C24.2312 25.6501 24.2609 25.5755 24.2696 25.5203C24.2783 25.4678 24.2758 25.4471 24.2696 25.4375C24.2634 25.425 24.251 25.414 24.2052 25.3961C24.1556 25.3754 24.0838 25.3685 23.9748 25.4016C23.7456 25.443 23.3777 25.6528 22.6938 26.0821C22.0113 26.5142 21.1615 27.1161 20.49 27.624C20.1556 27.8808 19.8607 28.1058 19.6551 28.277C19.4507 28.4509 19.3566 28.6097 19.3603 28.6179C19.3652 28.6262 19.5349 28.6138 19.7715 28.5006C20.0069 28.386 20.3265 28.2121 20.6932 28.0147C21.4216 27.6158 22.3123 27.0898 22.985 26.6453C23.6589 26.1939 24.0057 25.9413 24.1519 25.7398Z" fill="#01243D"/>
<path d="M29.7884 28.698C30.4957 28.3915 31.3629 27.9816 32.0219 27.6213C32.6785 27.2596 33.0179 27.0512 33.1666 26.8731C33.2458 26.7944 33.2768 26.7254 33.2892 26.6702C33.3016 26.6191 33.2979 26.5998 33.2917 26.5887C33.2867 26.5777 33.2768 26.5639 33.2322 26.5404C33.1889 26.5156 33.1207 26.499 33.0154 26.5183C32.7974 26.5349 32.4381 26.6964 31.7704 27.0374C31.1065 27.3811 30.2727 27.8711 29.6125 28.2908C29.283 28.5034 28.9943 28.6897 28.7912 28.8333C28.5905 28.9796 28.4938 29.1259 28.4963 29.1342C28.5013 29.1425 28.6623 29.1508 28.8915 29.0679C29.1207 28.9837 29.4316 28.8485 29.7884 28.698Z" fill="#01243D"/>
<path d="M37.537 27.3438C37.6633 27.2334 37.8244 27.0691 38.0114 26.8827C38.3781 26.5059 38.8129 26.0172 39.1226 25.6072C39.4298 25.1958 39.5785 24.9667 39.6057 24.7955C39.6268 24.7168 39.6181 24.6547 39.6008 24.6091C39.5859 24.565 39.5772 24.5512 39.5686 24.5429C39.5599 24.5332 39.545 24.5249 39.5042 24.5139C39.462 24.5029 39.4051 24.5001 39.3394 24.536C39.1895 24.5871 39.0074 24.7845 38.6841 25.1806C38.362 25.5796 37.9879 26.1276 37.7042 26.5859C37.5655 26.8178 37.4403 27.0194 37.3611 27.1726C37.2818 27.3272 37.2768 27.4625 37.283 27.4694C37.2917 27.4749 37.4106 27.4515 37.537 27.3438Z" fill="#01243D"/>
<path d="M42.3658 28.2612C42.4351 28.177 42.5144 28.0541 42.6061 27.9146C42.7882 27.6329 42.9864 27.267 43.1066 26.9659C43.2218 26.6607 43.2676 26.4922 43.2292 26.3707C43.2205 26.3155 43.192 26.2727 43.1623 26.2423C43.1326 26.2133 43.1189 26.2022 43.109 26.1981C43.1004 26.1926 43.083 26.1857 43.0446 26.1815C43.005 26.176 42.9567 26.1788 42.9121 26.205C42.8043 26.2492 42.7176 26.397 42.5813 26.6897C42.4475 26.9852 42.3224 27.3871 42.2431 27.7227C42.2059 27.8912 42.1713 28.0389 42.1576 28.1508C42.144 28.264 42.1886 28.3579 42.196 28.3621C42.2035 28.3634 42.2976 28.3427 42.3658 28.2612Z" fill="#01243D"/>
<path d="M11.5634 32.7564C12.1481 32.149 12.6745 31.6065 13.0648 31.202C13.5144 30.7327 13.756 30.4898 13.839 30.2965C13.8861 30.2123 13.8972 30.1405 13.8923 30.0895C13.891 30.0398 13.8836 30.0204 13.8762 30.0108C13.87 30.0025 13.8563 29.9901 13.813 29.9763C13.7684 29.9597 13.704 29.9556 13.6173 29.9914C13.4302 30.0439 13.154 30.2579 12.6745 30.7231C12.1976 31.191 11.6488 31.8702 11.2611 32.4568C11.0678 32.7522 10.9056 33.0173 10.7965 33.2147C10.6937 33.4134 10.6789 33.5736 10.6838 33.5805C10.69 33.586 10.8263 33.5321 10.9774 33.3789C11.1285 33.2229 11.3292 33.0007 11.5634 32.7564Z" fill="#01243D"/>
<path d="M8.46637 32.3823C8.54069 32.2567 8.6336 32.0772 8.74509 31.8798C9.04984 31.3166 9.27778 30.8942 9.43262 30.6057C9.62835 30.2178 9.73241 30.0121 9.72622 29.8561C9.73365 29.7871 9.71755 29.7305 9.69277 29.6919C9.67295 29.6518 9.6618 29.638 9.65189 29.6311C9.64322 29.6242 9.62835 29.6159 9.58747 29.6077C9.54535 29.598 9.49209 29.6008 9.4351 29.6339C9.30255 29.6891 9.15637 29.8796 8.93215 30.2758C8.70917 30.6733 8.49486 31.231 8.3747 31.6976C8.31647 31.9309 8.2694 32.138 8.24834 32.2898C8.22852 32.4431 8.27435 32.5563 8.28179 32.559C8.28922 32.5618 8.38956 32.5066 8.46637 32.3823Z" fill="#01243D"/>
<path d="M54.6087 33.5617C54.6929 33.6543 54.766 33.7357 54.8267 33.7868C54.8899 33.8379 54.9766 33.8352 54.984 33.831C54.9915 33.8269 55.0361 33.7427 55.0274 33.657C55.0175 33.5714 54.989 33.4609 54.9593 33.3339C54.8936 33.0839 54.7858 32.7911 54.6694 32.5853C54.5492 32.381 54.4736 32.2829 54.3721 32.2691C54.3324 32.2567 54.2853 32.2636 54.2482 32.2774C54.211 32.2884 54.1961 32.2967 54.1862 32.3036C54.1776 32.3091 54.1627 32.3202 54.1354 32.3506C54.107 32.381 54.0772 32.421 54.0685 32.4652C54.0277 32.5702 54.0673 32.6945 54.1677 32.9099C54.2705 33.1267 54.4476 33.3753 54.6087 33.5617Z" fill="#01243D"/>
<path d="M9.52429 57.249C9.48589 57.8633 9.48341 58.6557 9.50819 59.2934C9.52306 59.6137 9.53297 59.8939 9.55279 60.0968C9.57385 60.297 9.64446 60.424 9.65189 60.424C9.66056 60.424 9.7448 60.3081 9.78568 60.112C9.82656 59.9133 9.8662 59.6358 9.91327 59.321C10.0012 58.6888 10.0817 57.902 10.1065 57.2863C10.1276 56.672 10.1214 56.3448 10.0495 56.1695C10.0248 56.0839 9.98388 56.0342 9.94548 56.0052C9.91079 55.9762 9.89345 55.9735 9.88354 55.9721C9.87115 55.9707 9.85505 55.9749 9.81665 55.997C9.77701 56.0204 9.73117 56.0632 9.69649 56.1474C9.60482 56.3131 9.56641 56.6347 9.52429 57.249Z" fill="#01243D"/>
<path d="M13.1564 63.4858C13.2047 63.6597 13.2914 63.7563 13.2989 63.7563C13.3075 63.755 13.3744 63.639 13.3881 63.4609C13.4017 63.2815 13.4091 63.0344 13.4215 62.7528C13.4426 62.1923 13.4611 61.4993 13.4574 60.9609C13.45 60.4226 13.4413 60.1396 13.3633 59.985C13.3373 59.9077 13.2964 59.8635 13.2567 59.84C13.2221 59.8152 13.206 59.8097 13.1936 59.8097C13.1824 59.8083 13.1663 59.811 13.1292 59.8317C13.0883 59.8524 13.0437 59.8911 13.0115 59.9684C12.9248 60.1147 12.8901 60.406 12.8764 60.9582C12.8665 61.5104 12.926 62.2213 13.0177 62.7831C13.0672 63.0661 13.1118 63.3118 13.1564 63.4858Z" fill="#01243D"/>
<path d="M16.0366 64.8607C16.0738 64.967 16.153 65.0277 16.1629 65.0277C16.1704 65.0263 16.2435 64.9573 16.2707 64.8455C16.2943 64.7351 16.3141 64.5818 16.3364 64.4093C16.3748 64.06 16.3946 63.6307 16.3723 63.2966C16.3451 62.9639 16.3153 62.7886 16.2286 62.7003C16.1976 62.6561 16.1518 62.6326 16.1134 62.6216C16.0762 62.6105 16.0589 62.6078 16.0477 62.6105C16.0366 62.6105 16.0205 62.6147 15.9846 62.6299C15.9462 62.6478 15.904 62.674 15.8768 62.7223C15.7987 62.819 15.7864 62.9971 15.7901 63.3311C15.7987 63.6652 15.8594 64.0918 15.9313 64.4341C15.9685 64.6039 16.0019 64.753 16.0366 64.8607Z" fill="#01243D"/>
<path d="M21.1788 64.8799C21.1664 64.8799 21.1503 64.8813 21.1144 64.9007C21.0748 64.92 21.0314 64.9545 21.0017 65.0138C20.9199 65.1353 20.8988 65.3672 20.8865 65.8062C20.879 66.2465 20.9187 66.8084 20.9744 67.2625C21.0054 67.4889 21.0314 67.689 21.0611 67.8312C21.0933 67.9748 21.1689 68.0604 21.1776 68.0604C21.185 68.0604 21.2618 67.9748 21.2928 67.8312C21.3225 67.689 21.3485 67.4889 21.3795 67.2625C21.4365 66.8084 21.4749 66.2465 21.4674 65.8062C21.4551 65.3672 21.434 65.1353 21.3522 65.0138C21.3225 64.9531 21.2804 64.92 21.2395 64.9007C21.2061 64.8813 21.19 64.8799 21.1788 64.8799Z" fill="#01243D"/>
<path d="M40.2363 67.8823C40.2003 67.8658 40.1842 67.8616 40.1731 67.8602C40.1607 67.8589 40.1446 67.8616 40.1087 67.8754C40.069 67.8865 40.0232 67.9141 39.9922 67.9638C39.9055 68.0604 39.8758 68.255 39.8485 68.6236C39.8262 68.9922 39.8448 69.4684 39.8857 69.8522C39.908 70.044 39.9266 70.2138 39.9501 70.3339C39.9774 70.4582 40.0505 70.5327 40.0579 70.5327C40.0666 70.5327 40.1458 70.4637 40.1818 70.3463C40.2177 70.2276 40.2511 70.062 40.2895 69.8729C40.3614 69.4946 40.4233 69.0225 40.4283 68.654C40.4345 68.284 40.4208 68.0894 40.3428 67.9817C40.3168 67.9279 40.2759 67.8989 40.2363 67.8823Z" fill="#01243D"/>
<path d="M45.7811 64.8951C45.7427 64.8786 45.7253 64.8786 45.7154 64.8786C45.703 64.8786 45.6882 64.8841 45.6522 64.9062C45.6138 64.9269 45.573 64.9642 45.5494 65.0277C45.4763 65.1547 45.4714 65.3824 45.4751 65.8159C45.4825 66.2466 45.5209 66.8015 45.5581 67.2529C45.5804 67.4793 45.594 67.6767 45.6151 67.8216C45.6361 67.9652 45.7068 68.059 45.7154 68.0604C45.7229 68.0618 45.8059 67.9831 45.8467 67.8409C45.8851 67.6987 45.9235 67.5013 45.9619 67.2722C46.0375 66.8153 46.0784 66.2397 46.0548 65.7924C46.0288 65.3451 45.9892 65.1132 45.8988 64.9973C45.8653 64.9379 45.8195 64.9089 45.7811 64.8951Z" fill="#01243D"/>
<path d="M50.8799 66.0933C50.9059 66.2203 50.9803 66.3004 50.9877 66.3004C50.9964 66.3018 51.0744 66.23 51.1116 66.1058C51.1463 65.9815 51.1785 65.8076 51.2194 65.6102C51.2912 65.214 51.3507 64.7198 51.3581 64.3319C51.3643 63.9454 51.3507 63.7397 51.2726 63.6293C51.2454 63.5741 51.2033 63.5423 51.1649 63.5244C51.1289 63.5064 51.1128 63.5023 51.1004 63.5023C51.0905 63.5023 51.0744 63.5037 51.036 63.5189C50.9964 63.5327 50.9518 63.5603 50.9208 63.6127C50.8341 63.7163 50.8044 63.9178 50.7771 64.3043C50.7548 64.6908 50.7721 65.1878 50.813 65.5909C50.8378 65.7896 50.8551 65.9663 50.8799 66.0933Z" fill="#01243D"/>
<path d="M55.5613 62.3855C55.5873 62.5236 55.6604 62.6092 55.6691 62.6105C55.6765 62.6105 55.757 62.5319 55.793 62.3952C55.8276 62.2585 55.8598 62.0694 55.8995 61.8527C55.9726 61.4192 56.032 60.8809 56.0407 60.4585C56.0457 60.0361 56.032 59.8124 55.9552 59.6924C55.9267 59.633 55.8846 59.5985 55.8475 59.5805C55.8103 59.5612 55.7954 59.5557 55.783 59.5557C55.7719 59.5557 55.7558 59.5571 55.7174 59.5723C55.679 59.5888 55.6332 59.6192 55.6022 59.6758C55.5167 59.7904 55.487 60.0112 55.461 60.4309C55.4374 60.8533 55.456 61.3958 55.4969 61.8347C55.5192 62.0542 55.5365 62.2475 55.5613 62.3855Z" fill="#01243D"/>
<path d="M25.7933 29.0611C25.7933 29.0611 23.9896 33.7172 23.9041 35.3364C23.9041 35.3364 28.1754 32.1007 36.8011 29.9114C45.4268 27.7221 36.9906 29.6105 36.9906 29.6105" fill="url(#paint0_linear)"/>
<path d="M36.7565 30.2012C36.7565 30.2012 34.4672 34.4253 34.2294 34.7332C34.2294 34.7332 40.3502 34.6006 46.7857 30.509" fill="url(#paint1_linear)"/>
<path d="M50.8415 31.71C50.8415 31.71 48.2066 35.7478 44.9944 36.2986C44.9944 36.2986 46.1478 32.8116 46.476 30.7009" fill="url(#paint2_linear)"/>
<defs>
<linearGradient id="paint0_linear" x1="29.959" y1="35.7352" x2="33.6931" y2="29.524" gradientUnits="userSpaceOnUse">
<stop stop-color="#004775"/>
<stop offset="1" stop-color="#2D73B4" stop-opacity="0"/>
</linearGradient>
<linearGradient id="paint1_linear" x1="34.2292" y1="32.4666" x2="46.7859" y2="32.4666" gradientUnits="userSpaceOnUse">
<stop stop-color="#97BE13"/>
<stop offset="1" stop-color="#97BE13" stop-opacity="0"/>
</linearGradient>
<linearGradient id="paint2_linear" x1="44.9946" y1="33.4989" x2="50.8411" y2="33.4989" gradientUnits="userSpaceOnUse">
<stop stop-color="#2D73B4"/>
<stop offset="1" stop-color="#55ABDD" stop-opacity="0"/>
</linearGradient>
</defs>
</svg>
