<svg width="92" height="92" viewBox="0 0 92 92" fill="none" xmlns="http://www.w3.org/2000/svg">
<circle cx="46" cy="46" r="46" fill="white"/>
<path d="M26.7197 19.407C26.7197 19.407 27.9736 18.2592 30.3601 20.3374L31.4725 18.6132C31.4725 18.6132 28.7876 16.4895 26.7197 19.407Z" fill="#6078BA"/>
<path d="M31.0933 14.3659C31.0933 14.3659 29.6118 16.2064 31.7455 18.3047L30.3045 19.7609C30.3045 19.7609 27.0079 15.7159 31.0933 14.3659Z" fill="#6078BA"/>
<path d="M25.0157 63.9732C27.6146 59.9534 31.6949 58.8663 31.6949 58.8663L41.4736 55.241H50.8073L60.586 58.8663C60.586 58.8663 64.6663 59.9534 67.2652 63.9732H25.0157Z" fill="#B6E1F8"/>
<path d="M58.8921 83H74C74 80.4213 73.8331 76.7403 73.8331 76.7403C72.9433 61.2883 61.6882 58.8613 61.6882 58.8613C52.9107 56.7376 57.6938 70.3138 57.6938 70.3138C57.4612 73.5902 57.9466 77.9943 58.8921 83Z" fill="#58C3E7"/>
<path d="M52.5517 46.0688H39.7343V58.5629H52.5517V46.0688Z" fill="#B6E1F8"/>
<path d="M52.5466 51.8785V46.0688H39.7343V48.9459C43.3848 51.9898 47.7888 52.374 52.5466 51.8785Z" fill="#83D0F3"/>
<path d="M66.1933 83C66.441 76.265 66.3652 74.4144 66.3045 72.1138C66.173 66.9968 65.0758 62.6686 61.7034 58.8663C61.6983 58.8663 61.6882 58.8612 61.6882 58.8612L52.5466 55.8831C52.5466 55.8831 54.468 59.2455 46.0697 59.2455C46.0697 59.2455 40.5382 59.0281 39.7292 55.8831L30.4511 58.8612C30.4511 58.8612 22.518 60.813 21.1579 69.1609L25.8197 77.7364L25.6528 83H66.1933Z" fill="#6078BA"/>
<path d="M62.5073 30.4499C62.8714 27.578 62.2596 24.8223 62.2899 21.9908C62.3101 20.0896 61.941 17.2227 59.5747 16.98C56.2983 16.6463 55.2871 22.2992 55.0949 24.7515C54.827 28.1291 55.6663 31.7797 56.3185 35.0866C56.5511 36.2798 56.5309 38.6664 57.8708 39.2428C59.0185 39.7333 60.1966 38.5754 60.7832 37.7108C62.2039 35.6276 62.2039 32.8567 62.5073 30.4499Z" fill="#6078BA"/>
<path d="M60.0803 44.3295C58.786 49.3959 56.5056 50.7965 56.5056 50.7965L53.4466 51.3931C51.6871 51.1706 48.6483 50.4526 48.6483 50.4526C41.6607 48.0762 39.6332 47.434 38.5511 44.7795C38.5056 44.6682 33.0399 25.7021 33.0399 25.7021C32.145 15.9384 42.3635 13.9108 43.9056 13.6529C45.4326 13.299 55.1607 10.5989 58.0326 19.9682C58.0326 19.9682 62.2798 30.8292 60.0803 44.3295Z" fill="#B6E1F8"/>
<path d="M63.291 10.5231C63.8421 13.5518 63.3264 17.7485 60.9803 19.6851C58.432 21.7835 56.2427 21.2121 53.1736 21.8947C49.9832 22.6026 46.7169 22.8857 43.5112 23.5026C41.2663 23.9374 38.6725 24.1852 37.641 26.5667C36.2758 29.7168 36.0079 33.8225 36.9281 36.8917C37.6916 39.4451 37.9292 41.9328 38.7685 45.2598C35.8714 42.8631 33.6214 39.3642 33.6214 39.3642C32.1702 36.8209 32.1702 36.8209 30.5421 32.3966C29.5865 29.8027 28.7624 27.5274 28.636 24.8526C28.4792 21.4042 30.1478 19.9025 31.9882 16.7373C33.7174 13.7642 36.1444 11.7012 39.3096 10.7607C39.3096 10.7607 55.3478 11.6608 55.0494 8C55.0494 8 58.9023 8.98598 58.1691 11.5445C58.1691 11.5445 62.1989 10.8062 61.3444 8C61.3393 8 62.9725 8.76856 63.291 10.5231Z" fill="#6078BA"/>
<path d="M37.5702 36.2343C37.5702 36.2343 35.841 32.4724 33.1259 34.7023C33.1259 34.7023 31.8871 35.668 33.4141 38.1861C33.4141 38.1861 35.6236 41.8064 38.273 39.799L37.5702 36.2343Z" fill="#B6E1F8"/>
<path d="M37.2972 27.4566C37.2972 27.4566 37.3073 34.1966 38.5461 37.7714L37.2315 38.0344C37.2315 38.0344 36.5388 33.4129 34.1624 33.3573L37.2972 27.4566Z" fill="#6078BA"/>
<path d="M34.1219 83C34.1219 83 20.0101 83 20 83C20.0051 83 20.0506 79.6477 20.0556 79.41C20.1618 76.1133 20.3691 72.7914 20.9657 69.5452C21.8152 64.9035 24.0702 60.7826 29.0354 59.6045C31.3056 59.0635 33.3281 60.4388 34.5567 62.3097C34.5567 62.3046 36.8017 65.0754 34.1219 83Z" fill="#58C3E7"/>
</svg>
